<svg xmlns="http://www.w3.org/2000/svg" width="408" height="271" fill="none" viewBox="0 0 408 271"><path fill="#fff" d="M.5 0h407v271H.5z"/><path fill="#1D1D1B" d="M331.1 176.5h-76.5V137h.8c.7 0 1.3-.7 1.3-1.4 0-.8-.6-1.4-1.3-1.4H234a1.4 1.4 0 0 0 0 2.8h.8v2.6h-4.4v-16.3c0-.8-.6-1.4-1.4-1.4h-.4v-9.3h.4c.8 0 1.4-.6 1.4-1.4 0-.7-.6-1.4-1.4-1.4h-19.9v-7c.2 0 .3-.3.4-.5L213 93c.2-.5 0-1.1-.4-1.5l-1.2-1 .7-4.3c0-.4-.1-.8-.4-1.1-.2-.4-.6-.5-1-.5h-3.3a4.4 4.4 0 0 0-.3-4.5l1.3-3v-.5l.4-8.2 7.6-11.1c.3-.3.3-.7.2-1.1l-1.2-5a1.4 1.4 0 0 0-2.3-.6l-1.6 1.7c-3.4-2.1-6.6-2.8-9.5-2-2.9.8-4.7 2.9-5.6 4.2l-2.1-1c-.5-.2-1-.2-1.4 0-.4.3-.6.7-.6 1.2v4c0 .5.2 1 .6 1.2l3.3 2 4.5 6.8-.6 11a4.4 4.4 0 0 0-.5 4.9h-3.3c-.5 0-.9.1-1.1.5-.3.3-.4.8-.3 1.2l1 4.1-1.3.7c-.6.4-.9 1-.6 1.7l3.2 9.2v8h-19.3a1.4 1.4 0 0 0 0 2.7h.7v9.3h-.7c-.8 0-1.4.6-1.4 1.4v16.3H172V137h.7c.8 0 1.4-.7 1.4-1.4 0-.8-.6-1.4-1.4-1.4h-21.2c-.8 0-1.4.6-1.4 1.4 0 .7.6 1.4 1.4 1.4h.7v39.4H77.9c-.8 0-1.4.6-1.4 1.4 0 .7.6 1.4 1.4 1.4h23.2l5.1 9H82.8a1.4 1.4 0 0 0 0 2.8h25l4 7.1H87c-.8 0-1.4.6-1.4 1.4 0 .8.6 1.4 1.4 1.4h26.3l4 7H93.5c-.7 0-1.4.7-1.4 1.4 0 .8.7 1.4 1.4 1.4h221.8c.7 0 1.4-.6 1.4-1.4 0-.8-.7-1.4-1.4-1.4h-25.7l4-7H322c.8 0 1.4-.6 1.4-1.4 0-.8-.6-1.4-1.4-1.4h-26.7l4-7h27c.7 0 1.3-.7 1.3-1.5 0-.7-.6-1.3-1.4-1.3h-25.4l5-9.1h25.3c.8 0 1.4-.7 1.4-1.4 0-.8-.6-1.4-1.4-1.4Zm-53.5 2.8-3.9 9h-16.1l2.9-9h17Zm-5 11.8-3 7.1h-15.2l2.3-7h15.9Zm-15-11.8-3 9h-13l1.6-9h14.4Zm-3.8 11.8-2.3 7.1h-11.7l1.3-7h12.7Zm-10.6-14.6v-34h3v34h-3Zm-5.6-39.4H252v39.4h-3V141c0-.8-.6-1.4-1.4-1.4h-5.8c-.7 0-1.4.6-1.4 1.4v35.4h-2.8V137Zm-7 5.4h4.3v28.1h-4.4v-28.1Zm4.3 30.9v3h-16.2v-3H235Zm-26.6-18.5v5.5l-4.6-4.5c-.5-.6-1.4-.6-1.9 0l-4.6 4.2V155h11Zm-8.7-2.8.2-27.4v-12l.1-2.8v-7c2.6-.7 5.2-.3 6.6 0V152h-7Zm10.2 18.5a23.7 23.7 0 0 1 5 5.9h-3.6a13.8 13.8 0 0 0-9.3-3.1c-2.4.1-5 1-8 3h-3.7a31.3 31.3 0 0 1 5-5.8c2-1.7 4.5-3 7.1-3 2.5-.1 5 .9 7.5 3Zm.5-3.1 5.6-.1v5.9a32.2 32.2 0 0 0-5.6-5.8Zm-19 3.1a27 27 0 0 0-2.2 2.6v-5.8h5.7c-1.3 1-2.5 2-3.5 3.2Zm3 8.7.9-.3c1.7-1.3 3.4-2.1 5-2.5a10.2 10.2 0 0 1 9.6 2.4c.2.2.5.4 1 .4h8.3v1H186v-1h8.3Zm33.4-8.7h-9V166c0-.8-.6-1.4-1.4-1.4h-4.8l-1.5-1.4v-9.7c0-.8-.6-1.4-1.3-1.4h-.5v-27.4h18.5v46Zm-5.4-57.9h3.6v8.6h-3.6v-8.6Zm-5.4 0h2.6v8.6h-2.6v-8.6Zm-2.8 0v8.6h-4.9v-8.6h4.9ZM202.7 53c2-.5 4.3 0 6.8 1.3L207 57c-.4-.8-1-1.5-2-1.5-1.2 0-1.9 1-2.4 2.2l-3.7-1.8c.8-1 2-2.3 3.8-2.8Zm-4.4 7.2c0-.2-.2-.3-.4-.4L195 58v-1l1.4.6 6.5 3.2h1.2c.3-.2.6-.6.7-1l.2-.5.1.6c.2.4.5.8 1 1 .5 0 1 0 1.4-.4l5.8-6.2.5 2-7.5 10.8-.2.8-.4 8.3-.9 2.2a4 4 0 0 0-1.8-.2l.5-9.8c0-.3-.1-.6-.3-.8l-4.9-7.4Zm6.8 22.3a1.6 1.6 0 1 1-3.2 0c0-.4.1-.7.3-1 1-.5 1.6-.5 1.9-.5l.3.2.4.4c.2.3.3.6.3 1ZM197 93l1.1-.6c.6-.3.9-1 .7-1.6l-.8-3.5h11l-.5 3.4c0 .5.1 1 .5 1.3l1 1-2.6 7.2a14 14 0 0 0-4.6-.8c-1.1 0-2.3.2-3.4.6l-2.4-7Zm.2 71 5.5-5.2 5.9 5.8h-12.1l.7-.7Zm-4.2-51.3h4.1v8.6h-4v-8.6Zm-5.4 0h2.7v8.6h-2.7v-8.6Zm-6.2 0h3.4v8.6h-3.4v-8.6Zm-2.1 12H197l-.2 27.4h-1c-.7 0-1.3.6-1.3 1.4v9.2l-2 2h-4.8c-.7 0-1.4.5-1.4 1.3v4.6h-7v-45.9Zm-7.2 17.8h4.4v28.1H172v-28.1Zm0 30.9h14.2v3h-14.2v-3ZM155 137h14.2v39.4h-3V141c0-.8-.5-1.4-1.3-1.4h-5.8c-.8 0-1.4.6-1.4 1.4v35.4H155V137Zm12 61.1h-11.6l-2.3-7H166l1.3 7Zm-3.5-55.7v34h-3v-34h3Zm.2 36.8 1.6 9h-13l-3-9h14.4Zm-11.2 18.9h-15.2l-3-7h15.9l2.3 7Zm-6.1-19 3 9.2h-16.3l-3.8-9.1h17Zm-42.2 0h22.1l3.8 9.2h-20.8l-5.1-9.1Zm6.6 12h20.5l3 7h-19.5l-4-7Zm9.5 16.8-4-7h19.1l3 7h-18Zm21.1 0-3-7h15l2.2 7h-14.2Zm17.2 0-2.3-7h11.3l1.2 7h-10.2Zm23.6-3.6c-.7.1-1.2.7-1.2 1.4v2.2h-9.4l-1.2-7h11.8v3.4Zm0-6.2H170l-1.3-7h13.6v7Zm.9-17.7h-.7a1.4 1.4 0 0 0-.2 2.7v5.2h-14l-1.7-9.1h16.6v1.2Zm14 27.5H184v-.8h13.3v.8Zm8.5 0H200v-18c0-.6.2-1.2.6-1.6.5-.6 1.1-.9 1.9-.9h.7c.7 0 1.4.3 1.8.9.4.4.7 1 .7 1.6v18Zm-2.5-23.3h-.7a5.3 5.3 0 0 0-5.3 5.3v14.4H185v-21.2h34.4v21.2h-11V190c0-.6-.1-1.1-.3-1.6a5.4 5.4 0 0 0-5-3.7Zm18.3 23.3h-13v-.8h13v.8Zm.4-28.7h18.5l-1.7 9h-16.4v-5h.6c.7 0 1.4-.7 1.4-1.4 0-.8-.7-1.4-1.4-1.4h-1v-1.2Zm13.3 28.7h-11v-2.2c0-.8-.6-1.4-1.3-1.4h-.6V201h14.2l-1.3 7Zm-13-9.8v-7h16l-1.2 7h-14.7Zm26.1 9.8H238l1.2-7h11.3l-2.3 7Zm17.2 0h-14.3l2.3-7h15l-3 7Zm21 0h-18l3-7h19l-4 7Zm5.6-9.8h-19.5l3-7H296l-4 7Zm5.5-9.8h-20.9l3.9-9.1h22.1l-5.1 9Zm33.2 29.3H78.4c-.8 0-1.4.7-1.4 1.4 0 .8.6 1.4 1.4 1.4h252.3c.7 0 1.3-.6 1.3-1.4 0-.7-.6-1.4-1.3-1.4Z"/></svg>