<svg xmlns="http://www.w3.org/2000/svg" width="408" height="271" fill="none" viewBox="0 0 408 271"><path fill="#fff" d="M.5 0h407v271H.5z"/><path fill="#1D1D1B" d="M111.6 168.9h-1.4v33.6h2.7v-35c0 .8-.6 1.4-1.3 1.4Zm0 0h-1.4v33.6h2.7v-35c0 .8-.6 1.4-1.3 1.4Zm0 0h-1.4v33.6h2.7v-35c0 .8-.6 1.4-1.3 1.4Zm0 0h-1.4v33.6h2.7v-35c0 .8-.6 1.4-1.3 1.4Zm0 0h-1.4v33.6h2.7v-35c0 .8-.6 1.4-1.3 1.4Zm0 0h-1.4v33.6h2.7v-35c0 .8-.6 1.4-1.3 1.4Zm0 0h-1.4v33.6h2.7v-35c0 .8-.6 1.4-1.3 1.4Zm0 0h-1.4v33.6h2.7v-35c0 .8-.6 1.4-1.3 1.4Zm0 0h-1.4v33.6h2.7v-35c0 .8-.6 1.4-1.3 1.4Zm0 0h-1.4v33.6h2.7v-35c0 .8-.6 1.4-1.3 1.4Zm0 0h-1.4v33.6h2.7v-35c0 .8-.6 1.4-1.3 1.4Zm0 0h-1.4v33.6h2.7v-35c0 .8-.6 1.4-1.3 1.4Zm0 0h-1.4v33.6h2.7v-35c0 .8-.6 1.4-1.3 1.4Zm0 0h-1.4v33.6h2.7v-35c0 .8-.6 1.4-1.3 1.4Zm0 0h-1.4v33.6h2.7v-35c0 .8-.6 1.4-1.3 1.4Zm13.3-34.5c0-.2-.2-.3-.3-.4h-.1l-.2-.1h-.1l-.2-.1h-12.4c-.8 0-1.4.6-1.4 1.3v68.7c0 .7.5 1.3 1.2 1.3H124c.6 0 1.2-.6 1.2-1.3v-68.7a1 1 0 0 0-.3-.7Zm-12 2h9.6v66h-9.6v-66Zm-1.3 32.5h-1.4v33.6h2.7v-35c0 .8-.6 1.4-1.3 1.4Zm0 0h-1.4v33.6h2.7v-35c0 .8-.6 1.4-1.3 1.4Zm0 0h-1.4v33.6h2.7v-35c0 .8-.6 1.4-1.3 1.4Zm0 0h-1.4v33.6h2.7v-35c0 .8-.6 1.4-1.3 1.4Zm0 0h-1.4v33.6h2.7v-35c0 .8-.6 1.4-1.3 1.4Zm0 0h-1.4v33.6h2.7v-35c0 .8-.6 1.4-1.3 1.4Zm0 0h-1.4v33.6h2.7v-35c0 .8-.6 1.4-1.3 1.4Zm0 0h-1.4v33.6h2.7v-35c0 .8-.6 1.4-1.3 1.4Zm0 0h-1.4v33.6h2.7v-35c0 .8-.6 1.4-1.3 1.4Zm0 0h-1.4v33.6h2.7v-35c0 .8-.6 1.4-1.3 1.4Zm0 0h-1.4v33.6h2.7v-35c0 .8-.6 1.4-1.3 1.4Zm0 0h-1.4v33.6h2.7v-35c0 .8-.6 1.4-1.3 1.4Zm0 0h-1.4v33.6h2.7v-35c0 .8-.6 1.4-1.3 1.4Zm0 0h-1.4v33.6h2.7v-35c0 .8-.6 1.4-1.3 1.4Zm-3.4-2.7h-7c-.8 0-1.4.6-1.4 1.3v36.3c0 .8.6 1.4 1.4 1.4h7l.5-.1c.5-.2.8-.7.8-1.3v-36.3c0-.7-.6-1.3-1.3-1.3Zm-1.4 36.3h-4.3v-33.6h4.3v33.6Zm-21.5-36.3h-7.6l-.2.2-.2.2c-.3.2-.4.6-.4 1v36.2c0 .8.6 1.4 1.3 1.4h7c.8 0 1.4-.6 1.4-1.4v-36.3c0-.7-.6-1.3-1.3-1.3Zm-1.4 36.3h-4.3v-33.6h4.3v33.6Zm71.9-66v15h2.7v-15h-2.7Zm-12.2 14v1h2.6v-1h-2.6Zm12.2-14v15h2.7v-15h-2.7Zm-12.2 14v1h2.6v-1h-2.6Zm0-14v11.2h2.6v-11.2h-2.7Zm12.2 0v15h2.7v-15h-2.7Zm-12.2 14v1h2.6v-1h-2.6Zm0-14v11.2h2.6v-11.2h-2.7Zm12.2 0v15h2.7v-15h-2.7Zm-12.2 14v1h2.6v-1h-2.6Zm0-14v11.2h2.6v-11.2h-2.7Zm0 14v1h2.6v-1h-2.6Zm0-14v11.2h2.6v-11.2h-2.7Zm0 14v1h2.6v-1h-2.6Zm0-14v11.2h2.6v-11.2h-2.7Zm0 14v1h2.6v-1h-2.6Zm0-14v11.2h2.6v-11.2h-2.7Zm0 14v1h2.6v-1h-2.6Zm0-14v11.2h2.6v-11.2h-2.7Zm0 14v1h2.6v-1h-2.6Zm0-14v11.2h2.6v-11.2h-2.7Zm0 14v1h2.6v-1h-2.6Zm0-14v11.2h2.6v-11.2h-2.7Zm0 14v1h2.6v-1h-2.6Zm0-14v11.2h2.6v-11.2h-2.7Zm12.2 0v15h2.7v-15h-2.7Zm-12.3 0v11.2h2.7v-11.2h-2.7Zm0 0v11.2h2.7v-11.2h-2.7Zm0 0v11.2h2.7v-11.2h-2.7Zm0 0v11.2h2.7v-11.2h-2.7Zm.1 14v1h2.6v-1h-2.6Zm0 0v1h2.6v-1h-2.6Zm14.7-16v-.2h-.1l-.2-.2-.2-.1-.2-.1h-.2a1 1 0 0 0-.3-.1H145c-.8 0-1.4.6-1.4 1.3v69.2c.3.5.8.9 1.4.9h12.3l.2-.1c.6-.2 1-.7 1-1.3v-68.7l-.2-.7Zm-2.5 68h-9.6v-66h9.6v66Zm-12.2-52v1h2.6v-1h-2.6Zm0-14v11.2h2.6v-11.2h-2.7Zm0 0v11.2h2.6v-11.2h-2.7Zm0 0v11.2h2.6v-11.2h-2.7Zm0 0v11.2h2.6v-11.2h-2.7Zm0 0v11.2h2.6v-11.2h-2.7Zm0 14v1h2.6v-1h-2.6Zm0-14v11.2h2.6v-11.2h-2.7Zm0 14v1h2.6v-1h-2.6Zm0-14v11.2h2.6v-11.2h-2.7Zm0 14v1h2.6v-1h-2.6Zm0-14v11.2h2.6v-11.2h-2.7Zm0 14v1h2.6v-1h-2.6Zm0-14v11.2h2.6v-11.2h-2.7Zm0 14v1h2.6v-1h-2.6Zm0-14v11.2h2.6v-11.2h-2.7Zm0 14v1h2.6v-1h-2.6Zm0-14v11.2h2.6v-11.2h-2.7Zm0 14v1h2.6v-1h-2.6Zm0-14v11.2h2.6v-11.2h-2.7Zm0 14v1h2.6v-1h-2.6Zm12.2-14v15h2.7v-15h-2.7Zm-12.3 0v11.2h2.7v-11.2h-2.7Zm.1 14v1h2.6v-1h-2.6Zm12.2-14v15h2.7v-15h-2.7Zm-12.3 0v11.2h2.7v-11.2h-2.7Zm.1 14v1h2.6v-1h-2.6Zm12.2-14v15h2.7v-15h-2.7Zm-12.3 0v11.2h2.7v-11.2h-2.7Zm.1 14v1h2.6v-1h-2.6Zm12.2-14v15h2.7v-15h-2.7Zm0 0v11.2h2.7v-11.2h-2.7Zm32.6 13.9v52h.9l1.1-1v-51h-2Zm0 0v52h.9l1.1-1v-51h-2Zm0 0v52h.9l1.1-1v-51h-2Zm2.7-14h-2.7v66h.9l1.1-1v-52.2l-.2-1.5h1v-11.2Zm-15 0v11.3h2.8v-11.2h-2.7Zm15 0h-2.7v66h.9l1.1-1v-52.2l-.2-1.5h1v-11.2Zm-15 0v11.3h2.8v-11.2h-2.7Zm15 0h-2.7v66h.9l1.1-1v-52.2l-.2-1.5h1v-11.2Zm-15 0v11.3h2.8v-11.2h-2.7Zm15 0h-2.7v66h.9l1.1-1v-52.2l-.2-1.5h1v-11.2Zm-15 0v11.3h2.8v-11.2h-2.7Zm15 0h-2.7v66h.9l1.1-1v-52.2l-.2-1.5h1v-11.2Zm-15 0v11.3h2.8v-11.2h-2.7Zm15 0h-2.7v66h.9l1.1-1v-52.2l-.2-1.5h1v-11.2Zm-15 0v11.3h2.8v-11.2h-2.7Zm15 0h-2.7v66h.9l1.1-1v-52.2l-.2-1.5h1v-11.2Zm-15 0v11.3h2.8v-11.2h-2.7Zm15 0h-2.7v66h.9l1.1-1v-52.2l-.2-1.5h1v-11.2Zm-15 0v11.3h2.8v-11.2h-2.7Zm15 0h-2.7v66h.9l1.1-1v-52.2l-.2-1.5h1v-11.2Zm-15 0v11.3h2.8v-11.2h-2.7Zm15 0h-2.7v66h.9l1.1-1v-52.2l-.2-1.5h1v-11.2Zm-15 0v11.3h2.8v-11.2h-2.7Zm15 0h-2.7v15h2v-2.2l-.2-1.5h1v-11.2Zm-15 0v11.3h2.8v-11.2h-2.7Zm15-1.5v-.2l-.2-.2v-.2l-.2-.2-.4-.2h-.3s0-.1 0 0l-.2-.1h-12.3c-.7 0-1.3.6-1.3 1.3v12.6h2.7v-11.2h9.5v15h2v-2.3l-.2-1.5h1V135Zm0 0v-.2l-.2-.2v-.2l-.2-.2-.4-.2h-.3s0-.1 0 0l-.2-.1h-12.3c-.7 0-1.3.6-1.3 1.3v12.6h2.7v-11.2h9.5v15h2v-2.3l-.2-1.5h1V135Zm0 0v-.2l-.2-.2v-.2l-.2-.2-.4-.2h-.3s0-.1 0 0l-.2-.1h-12.3c-.7 0-1.3.6-1.3 1.3v12.6h2.7v-11.2h9.5v15h2v-2.3l-.2-1.5h1V135Zm0 0v-.2l-.2-.2v-.2l-.2-.2-.4-.2h-.3s0-.1 0 0l-.2-.1h-12.3c-.7 0-1.3.6-1.3 1.3v12.6h2.7v-11.2h9.5v66h.9l1.1-1v-52.3l-.2-1.5h1V135Zm0 0v-.2l-.2-.2v-.2l-.2-.2-.4-.2h-.3s0-.1 0 0l-.2-.1h-12.3c-.7 0-1.3.6-1.3 1.3v12.6h2.7v-11.2h9.5v66h.9l1.1-1v-52.3l-.2-1.5h1V135Zm0 0v-.2l-.2-.2v-.2l-.2-.2a.9.9 0 0 0-.4-.2h-.3s0-.1 0 0l-.2-.1h-12.3c-.7 0-1.3.6-1.3 1.3v68.7c0 .8.6 1.4 1.3 1.4h12.6l.2-.1.2-.1.2-.2c.3-.3.4-.6.4-1v-3c-.3.2-.5.5-.6 1l-.2.7h-1l1.1-1v-51h.7v-15.6Zm-2.7 67.6H179v-66h9.5v66Zm2.7-67.6v-.2l-.2-.2v-.2l-.2-.2-.4-.2h-.3s0-.1 0 0l-.2-.1h-12.3c-.7 0-1.3.6-1.3 1.3v12.6h2.7v-11.2h9.5v66h.9l1.1-1v-52.3l-.2-1.5h1V135Zm0 0v-.2l-.2-.2v-.2l-.2-.2-.4-.2h-.3s0-.1 0 0l-.2-.1h-12.3c-.7 0-1.3.6-1.3 1.3v12.6h2.7v-11.2h9.5v15h2v-2.3l-.2-1.5h1V135Zm0 0v-.2l-.2-.2v-.2l-.2-.2-.4-.2h-.3s0-.1 0 0l-.2-.1h-12.3c-.7 0-1.3.6-1.3 1.3v12.6h2.7v-11.2h9.5v15h2v-2.3l-.2-1.5h1V135Zm0 0v-.2l-.2-.2v-.2l-.2-.2-.4-.2h-.3s0-.1 0 0l-.2-.1h-12.3c-.7 0-1.3.6-1.3 1.3v12.6h2.7v-11.2h9.5v15h2v-2.3l-.2-1.5h1V135Zm0 0v-.2l-.2-.2v-.2l-.2-.2-.4-.2h-.3s0-.1 0 0l-.2-.1h-12.3c-.7 0-1.3.6-1.3 1.3v12.6h2.7v-11.2h9.5v15h2v-2.3l-.2-1.5h1V135Zm-15 1.6v11.2h2.8v-11.2h-2.7Zm15 0h-2.7v66h.9l1.1-1v-52.3l-.2-1.5h1v-11.2Zm-15 0v11.2h2.8v-11.2h-2.7Zm15 0h-2.7v66h.9l1.1-1v-52.3l-.2-1.5h1v-11.2Zm-15 0v11.2h2.8v-11.2h-2.7Zm15 0h-2.7v66h.9l1.1-1v-52.3l-.2-1.5h1v-11.2Zm-15 0v11.2h2.8v-11.2h-2.7Zm15 0h-2.7v66h.9l1.1-1v-52.3l-.2-1.5h1v-11.2Zm-15 0v11.2h2.8v-11.2h-2.7Zm15 0h-2.7v66h.9l1.1-1v-52.3l-.2-1.5h1v-11.2Zm-15 0v11.2h2.8v-11.2h-2.7Zm15 0h-2.7v66h.9l1.1-1v-52.3l-.2-1.5h1v-11.2Zm-15 0v11.2h2.8v-11.2h-2.7Zm15 0h-2.7v66h.9l1.1-1v-52.3l-.2-1.5h1v-11.2Zm-15 0v11.2h2.8v-11.2h-2.7Zm15 0h-2.7v66h.9l1.1-1v-52.3l-.2-1.5h1v-11.2Zm-15 0v11.2h2.8v-11.2h-2.7Zm15 0h-2.7v66h.9l1.1-1v-52.3l-.2-1.5h1v-11.2Zm-15 0v11.2h2.8v-11.2h-2.7Zm15 0h-2.7v66h.9l1.1-1v-52.3l-.2-1.5h1v-11.2Zm-.9 11.2h-1.8v54.8h.9l1.1-1v-52.3l-.2-1.5Zm-1.8 2.7v52h.9l1.1-1v-51h-2Zm0 0v52l.5.4.5.4.7-.3h.3v-52.5h-2Zm27.7-13.9v11.2h2.7v-11.2h-2.7Zm0 0v11.2h2.7v-11.2h-2.7Zm12.3 0v11.2h2.7v-11.2h-2.8Zm-12.3 0v11.2h2.7v-11.2h-2.7Zm12.3 0v15h2.7v-15h-2.8Zm-12.3 0v11.2h.7l-.2 1.5v2.2h2.2v-15h-2.7Zm12.3 0v15h2.7v-15h-2.8Zm-12.3 0v11.2h.7l-.2 1.5v2.2h2.2v-15h-2.7Zm12.3 0v15h2.7v-15h-2.8Zm-12.3 0v11.2h.7l-.2 1.5v2.2h2.2v-15h-2.7Zm12.3 0v15h2.7v-15h-2.8Zm-12.3 0v11.2h.7l-.2 1.5v2.2h2.2v-15h-2.7Zm12.3 0v15h2.7v-15h-2.8Zm-12.3 0v11.2h.7l-.2 1.5v2.2h2.2v-15h-2.7Zm12.3 0v15h2.7v-15h-2.8Zm-12.3 0v11.2h.7l-.2 1.5v2.2h2.2v-15h-2.7Zm12.3 0v15h2.7v-15h-2.8Zm-12.3 0v11.2h.7l-.2 1.5v2.2h2.2v-15h-2.7Zm12.3 0v15h2.7v-15h-2.8Zm-12.3 0v11.2h.7l-.2 1.5v2.2h2.2v-15h-2.7Zm12.3 0v15h2.7v-15h-2.8Zm-12.3 0v11.2h2.7v-11.2h-2.7Zm13.6-2.7h-12.2c-.8 0-1.4.6-1.4 1.3v12.6h2.7v-11.2h9.5v15h2.8V135c0-.7-.7-1.3-1.4-1.3Zm0 0h-12.2c-.8 0-1.4.6-1.4 1.3v12.6h2.7v-11.2h9.5v15h2.8V135c0-.7-.7-1.3-1.4-1.3Zm0 0h-12.2c-.8 0-1.4.6-1.4 1.3v12.6h2.7v-11.2h9.5v15h2.8V135c0-.7-.7-1.3-1.4-1.3Zm0 0h-12.2c-.8 0-1.4.6-1.4 1.3v12.6h2.7v-11.2h9.5v15h2.8V135c0-.7-.7-1.3-1.4-1.3Zm0 0h-12.2c-.8 0-1.4.6-1.4 1.3v12.6h2.7v-11.2h9.5v15h2.8V135c0-.7-.7-1.3-1.4-1.3Zm0 0h-12.2c-.8 0-1.4.6-1.4 1.3v15.3h.4v51.4-.3l-.4-.4v2.7a1.3 1.3 0 0 0 .9 1.3h12.7c.7 0 1.4-.5 1.4-1.3v-68.7c0-.7-.7-1.3-1.4-1.3Zm-1.3 68.7h-9.6v-66h9.5v66Zm1.3-68.7h-12.2c-.8 0-1.4.6-1.4 1.3v12.6h2.7v-11.2h9.5v15h2.8V135c0-.7-.7-1.3-1.4-1.3Zm0 0h-12.2c-.8 0-1.4.6-1.4 1.3v12.6h2.7v-11.2h9.5v15h2.8V135c0-.7-.7-1.3-1.4-1.3Zm0 0h-12.2c-.8 0-1.4.6-1.4 1.3v12.6h2.7v-11.2h9.5v15h2.8V135c0-.7-.7-1.3-1.4-1.3Zm0 0h-12.2c-.8 0-1.4.6-1.4 1.3v12.6h2.7v-11.2h9.5v15h2.8V135c0-.7-.7-1.3-1.4-1.3Zm0 0h-12.2c-.8 0-1.4.6-1.4 1.3v12.6h2.7v-11.2h9.5v15h2.8V135c0-.7-.7-1.3-1.4-1.3Zm-13.6 2.7v11.2h.7l-.2 1.5v2.2h2.2v-15h-2.7Zm12.3 0v15h2.7v-15h-2.8Zm-12.3 0v11.2h.7l-.2 1.5v2.2h2.2v-15h-2.7Zm12.3 0v15h2.7v-15h-2.8Zm-12.3 0v11.2h.7l-.2 1.5v2.2h2.2v-15h-2.7Zm12.3 0v15h2.7v-15h-2.8Zm-12.3 0v11.2h.7l-.2 1.5v2.2h2.2v-15h-2.7Zm12.3 0v15h2.7v-15h-2.8Zm-12.3 0v11.2h.7l-.2 1.5v2.2h2.2v-15h-2.7Zm12.3 0v15h2.7v-15h-2.8Zm-12.3 0v11.2h.7l-.2 1.5v2.2h2.2v-15h-2.7Zm12.3 0v15h2.7v-15h-2.8Zm-12.3 0v11.2h.7l-.2 1.5v2.2h2.2v-15h-2.7Zm12.3 0v15h2.7v-15h-2.8Zm-12.3 0v11.2h.7l-.2 1.5v2.2h2.2v-15h-2.7Zm12.3 0v15h2.7v-15h-2.8Zm-12.3 0v11.2h.7l-.2 1.5v2.2h2.2v-15h-2.7Zm12.3 0v15h2.7v-15h-2.8Zm-12.3 0v11.2h2.7v-11.2h-2.7Zm0 0v11.2h2.7v-11.2h-2.7Zm0 0v11.2h2.7v-11.2h-2.7Zm45.1 13.9v1h2.7v-1h-2.7Zm-12.3 0v1h2.7v-1H249Zm12.3 0v1h2.7v-1h-2.7Zm-12.3 0v1h2.7v-1H249Zm12.3 0v1h2.7v-1h-2.7Zm-12.3 0v1h2.7v-1H249Zm12.3 0v1h2.7v-1h-2.7Zm0 0v1h2.7v-1h-2.7Zm0-14v11.3h2.7v-11.2h-2.7Zm0 0v11.3h2.7v-11.2h-2.7Zm0 0v11.3h2.7v-11.2h-2.7Zm0 0v11.3h2.7v-11.2h-2.7Zm0 0v11.3h2.7v-11.2h-2.7Zm1.3-2.6h-12.2a1 1 0 0 0-.3 0h-.2v.1h-.2l-.1.1h-.1l-.2.3c-.2.3-.3.5-.3.8v68.7c0 .6.4 1.2 1 1.3h12.6c.8 0 1.4-.5 1.4-1.3v-68.7c0-.7-.6-1.3-1.4-1.3Zm-1.3 68.7h-9.6v-66h9.6v66Zm0-66v11.2h2.7v-11.2h-2.7Zm0 0v11.2h2.7v-11.2h-2.7Zm0 0v11.2h2.7v-11.2h-2.7Zm0 0v11.2h2.7v-11.2h-2.7Zm0 0v11.2h2.7v-11.2h-2.7Zm0 14v1h2.7v-1h-2.7Zm0 0v1h2.7v-1h-2.7Zm0 0v1h2.7v-1h-2.7Zm-12.3 0v1h2.7v-1H249Zm12.3 0v1h2.7v-1h-2.7Zm-12.3 0v1h2.7v-1H249Zm12.3 0v1h2.7v-1h-2.7Zm20.8-14v66h2.6v-66H282Zm0 0v66h2.6v-66H282Zm0 0v66h2.6v-66H282Zm0 0v66h2.6v-66H282Zm0 0v66h2.6v-66H282Zm0 0v66h2.6v-66H282Zm0 0v66h2.6v-66H282Zm0 0v66h2.6v-66H282Zm0 0v66h2.6v-66H282Zm0 0v66h2.6v-66H282Zm0 0v66h2.6v-66H282Zm0 0v66h2.6v-66H282Zm0 0v66h2.6v-66H282Zm13.5-2.7H283l-.3.2h-.1c-.3.3-.6.7-.6 1.1v68.7c0 .7.6 1.3 1.2 1.3h12.5c.7 0 1.2-.6 1.2-1.3v-68.7c0-.7-.6-1.3-1.4-1.3Zm-1.3 68.7h-9.6v-66h9.6v66Zm-12.3-66v66h2.7v-66H282Zm0 0v66h2.7v-66H282Zm0 0v66h2.7v-66H282Zm0 0v66h2.7v-66H282Zm0 0v66h2.7v-66H282Zm0 0v66h2.7v-66H282Zm0 0v66h2.7v-66H282Zm0 0v66h2.7v-66H282Zm0 0v66h2.7v-66H282Zm0 0v66h2.7v-66H282Zm0 0v66h2.7v-66H282Zm0 0v66h2.7v-66H282Zm0 0v66h2.7v-66H282Z"/><path fill="#1D1D1B" d="M123.9 205.2h-.1.2-.1Zm0 0h-.1.2-.1Zm0 0h-.1.2-.1Zm0 0h-.1.2-.1Zm0 0h-.1.2-.1Zm0 0h-.1.2-.1Zm0 0h-.1.2-.1Zm0 0h-.1.2-.1Zm0 0h-.1.2-.1Zm0 0h-.1.2-.1Zm0 0h-.1.2-.1Zm0 0h-.1.2-.1Zm0 0h-.1.2-.1Zm0 0h-.2.3-.2Zm0 0h-.2.3-.2Zm1.4-2.7h-15.2a1.4 1.4 0 0 0-1.4 1.3v4c0 .3 0 .6.2.8.2.4.7.6 1.2.6h15.5c.6-.1 1-.7 1-1.3v-4c0-.8-.5-1.4-1.3-1.4Zm-13.9 2.7H124v1.3h-12.6v-1.3Zm12.4 0h.2-.2Zm0 0h.2-.1Zm0 0h.2-.1Zm0 0h.2-.1Zm0 0h.2-.1Zm0 0h.2-.1Zm0 0h.2-.1Zm0 0h.2-.1Zm0 0h.2-.1Zm0 0h.2-.1Zm0 0h.2-.1Zm0 0h.2-.1Zm0 0h.2-.1Zm0 0h.2-.1Zm33.4 0Zm0 0Zm0 0Zm0 0Zm0 0Zm0 0Zm0 0Zm0 0Zm0 0Zm0 0Zm0 0Zm0 0Zm0 0Zm0 0Zm0 0Zm1.4-2.7h-15.2l-.7.1c-.4.3-.7.7-.7 1.2v4c0 .8.6 1.4 1.4 1.4H159c.5-.3.9-.7.9-1.3v-4c0-.8-.6-1.4-1.4-1.4Zm-13.9 2.7h12.6v1.3h-12.6v-1.3Zm12.5 0Zm0 0Zm0 0Zm0 0Zm0 0Zm0 0Zm0 0Zm0 0Zm0 0Zm0 0Zm0 0Zm0 0Zm0 0Zm0 0Zm32.7 0h-.1.1Zm0 0h-.1.1Zm0 0h-.1.1Zm0 0h-.1.1Zm0 0h-.1.1Zm0 0h-.1.1Zm0 0h-.1.1Zm0 0h-.1.1Zm0 0h-.1.1Zm0 0h-.1.1Zm0 0h-.1.1Zm0 0h-.1.1Zm0 0h-.1.1Zm0 0h-.1.1Zm0 0h-.1.1Zm2.6-2c-.2-.4-.7-.7-1.2-.7H176c-.7 0-1.3.6-1.3 1.3v4c0 .8.6 1.4 1.3 1.4h15.8l.2-.2.2-.2.2-.2.1-.2.1-.3V204l-.1-.7Zm-15.1 2h12.5v1.3h-12.5v-1.3Zm12.5 0h-.1.1Zm0 0h-.1.1Zm0 0h-.1.1Zm0 0h-.1.1Zm0 0h-.1.1Zm0 0h-.1.1Zm0 0h-.1.1Zm0 0h-.1.1Zm0 0h-.1.1Zm0 0h-.1.1Zm0 0h-.1.1Zm0 0h-.1.1Zm0 0h-.1.1Zm0 0h-.1.1Zm41.3-2.7H216c-.5 0-1 .3-1.2.9l-.1.4v4.3l.1.3v.1l.1.1a1.3 1.3 0 0 0 .4.4l.2.1.3.1h15.5c.7 0 1.3-.6 1.3-1.3v-4c0-.8-.5-1.4-1.3-1.4Zm-1.3 4h-12.6v-1.3h12.6v1.3Zm35.3-3.5h-.2v-.2l-.3-.2-.7-.1h-15.2c-.8 0-1.4.6-1.4 1.3v4c0 .6.4 1.1.9 1.3h.2l.3.1H264c.8 0 1.4-.6 1.4-1.3v-4l-.2-.8Zm-2.5 3.5H250v-1.3h12.6v1.3Zm34.9-3.9-.6-.1h-15.2c-.8 0-1.4.6-1.4 1.3v4c0 .7.5 1.3 1.1 1.4H297c.5 0 1-.2 1.2-.6l.2-.7v-4c0-.7-.3-1.1-.8-1.3Zm-2 4h-12.5v-1.4h12.6v1.3Zm2.2-85H110.1c-.8 0-1.4.6-1.4 1.3v9.4c0 .7.6 1.3 1.4 1.3h187.7c.8 0 1.4-.6 1.4-1.3v-9.4c0-.7-.6-1.3-1.4-1.3Zm-186.4 9.3v-6.6h185v6.6h-185Zm180.2-24.3h-62.3v2.7h61v2H116.4v-2h62.9v-2.7H115c-.8 0-1.4.6-1.4 1.3v4.7c0 .8.6 1.4 1.4 1.4h176.5c.8 0 1.4-.6 1.4-1.4V108c0-.7-.6-1.3-1.4-1.3Z"/><path fill="#1D1D1B" d="M230.6 100.9H178c-.7 0-1.3.6-1.3 1.3v10.4c0 .7.6 1.4 1.3 1.4h52.7c.8 0 1.4-.7 1.4-1.4v-10.4c0-.7-.6-1.3-1.4-1.3Zm-1.3 10.4h-50v-7.7h50v7.7Zm-105.5 22.5h.4l.1.1h.2l.1.2.3.3c.2.2.2.4.2.7v1.4H249V135c0-.3.1-.5.3-.7v-.1a1 1 0 0 1 .3-.3h.2v-.1h.3l.3-.1H123.8Zm0 0h.4l.1.1h.2l.1.2.3.3c.2.2.2.4.2.7v1.4H249V135c0-.3.1-.5.3-.7v-.1a1 1 0 0 1 .3-.3h.2v-.1h.3l.3-.1H123.8Zm0 0h.4l.1.1h.2l.1.2.3.3c.2.2.2.4.2.7v1.4H249V135c0-.3.1-.5.3-.7v-.1a1 1 0 0 1 .3-.3h.2v-.1h.3l.3-.1H123.8Zm0 0h.4l.1.1h.2l.1.2.3.3c.2.2.2.4.2.7v1.4H249V135c0-.3.1-.5.3-.7v-.1a1 1 0 0 1 .3-.3h.2v-.1h.3l.3-.1H123.8Zm0 0h.4l.1.1h.2l.1.2.3.3c.2.2.2.4.2.7v1.4H249V135c0-.3.1-.5.3-.7v-.1a1 1 0 0 1 .3-.3h.2v-.1h.3l.3-.1H123.8Zm0 0h.4l.1.1h.2l.1.2.3.3c.2.2.2.4.2.7v1.4H249V135c0-.3.1-.5.3-.7v-.1a1 1 0 0 1 .3-.3h.2v-.1h.3l.3-.1H123.8Zm0 0h.4l.1.1h.2l.1.2.3.3c.2.2.2.4.2.7v1.4H249V135c0-.3.1-.5.3-.7v-.1a1 1 0 0 1 .3-.3h.2v-.1h.3l.3-.1H123.8Zm0 0h.4l.1.1h.2l.1.2.3.3c.2.2.2.4.2.7v1.4H249V135c0-.3.1-.5.3-.7v-.1a1 1 0 0 1 .3-.3h.2v-.1h.3l.3-.1H123.8Zm0 0h.4l.1.1h.2l.1.2.3.3c.2.2.2.4.2.7v1.4H249V135c0-.3.1-.5.3-.7v-.1a1 1 0 0 1 .3-.3h.2v-.1h.3l.3-.1H123.8Zm0 0h.4l.1.1h.2l.1.2.3.3c.2.2.2.4.2.7v1.4H249V135c0-.3.1-.5.3-.7v-.1a1 1 0 0 1 .3-.3h.2v-.1h.3l.3-.1H123.8Zm0 0h.4l.1.1h.2l.1.2.3.3c.2.2.2.4.2.7v1.4H249V135c0-.3.1-.5.3-.7v-.1a1 1 0 0 1 .3-.3h.2v-.1h.3l.3-.1H123.8Zm0 0h.4l.1.1h.2l.1.2.3.3c.2.2.2.4.2.7v1.4H249V135c0-.3.1-.5.3-.7v-.1a1 1 0 0 1 .3-.3h.2v-.1h.3l.3-.1H123.8Zm0 0h.4l.1.1h.2l.1.2.3.3c.2.2.2.4.2.7v1.4H249V135c0-.3.1-.5.3-.7v-.1a1 1 0 0 1 .3-.3h.2v-.1h.3l.3-.1H123.8Zm0 0h.4l.1.1h.2l.1.2.3.3c.2.2.2.4.2.7v1.4H249V135c0-.3.1-.5.3-.7v-.1a1 1 0 0 1 .3-.3h.2v-.1h.3l.3-.1H123.8Zm106 0c.6 0 1.3.6 1.3 1.3v1.4h16.4l1.7-2.1v-.1a1 1 0 0 1 .3-.3h.3v-.1h.2l.3-.1h-20.6Zm-40 0h.4l.4.3.2.2.1.2a1.5 1.5 0 0 1 .2.6v1.4h25V135c0-.7.6-1.3 1.4-1.3h-27.7Zm-32.7 0h.5a1.6 1.6 0 0 0 .2.2l.2.1.2.2.1.1 1.5 2h16.4v-1.3c0-.7.6-1.3 1.4-1.3H157Zm72.6 0c.7 0 1.4.6 1.4 1.3v1.4h16.4l1.7-2.1v-.1a1 1 0 0 1 .3-.3h.3v-.1h.2l.3-.1h-20.6Zm-40 0h.5l.4.3.2.2.1.2a1.5 1.5 0 0 1 .2.6v1.4h25V135c0-.7.6-1.3 1.4-1.3h-27.7Zm-32.6 0h.5a1.6 1.6 0 0 0 .2.2l.2.1.2.2.1.1 1.5 2h16.4v-1.3c0-.7.6-1.3 1.4-1.3H157Zm72.6 0c.7 0 1.4.6 1.4 1.3v1.4h16.4l1.7-2.1v-.1a1 1 0 0 1 .3-.3h.3v-.1h.2l.3-.1h-20.6Zm-40 0h.5l.4.3.2.2.1.2a1.5 1.5 0 0 1 .2.6v1.4h25V135c0-.7.6-1.3 1.4-1.3h-27.7Zm-32.6 0h.5a1.6 1.6 0 0 0 .2.2l.2.1.2.2.1.1 1.5 2h16.4v-1.3c0-.7.6-1.3 1.4-1.3H157Zm72.6 0c.7 0 1.4.6 1.4 1.3v1.4h16.4l1.7-2.1v-.1a1 1 0 0 1 .3-.3h.3v-.1h.2l.3-.1h-20.6Zm-40 0h.5l.4.3.2.2.1.2a1.5 1.5 0 0 1 .2.6v1.4h25V135c0-.7.6-1.3 1.4-1.3h-27.7Zm-32.6 0h.5a1.6 1.6 0 0 0 .2.2l.2.1.2.2.1.1 1.5 2h16.4v-1.3c0-.7.6-1.3 1.4-1.3H157Zm72.6 0c.7 0 1.4.6 1.4 1.3v1.4h16.4l1.7-2.1v-.1a1 1 0 0 1 .3-.3h.3v-.1h.2l.3-.1h-20.6Zm-39.8 0h.3l.4.3.2.2.1.2a1.5 1.5 0 0 1 .2.6v1.4h25V135c0-.7.6-1.3 1.4-1.3h-27.7.1Zm-32.5 0h.2l.2.1.2.2.2.2.1.1 1.5 2h16.4v-1.3c0-.7.6-1.3 1.3-1.3h-20.4.3Zm145.3-2c-.2-.5-.7-.9-1.3-.9h-195c-.6 0-1.1.4-1.3 1-.2.5 0 1.1.4 1.5l3.7 2.8c.3.2.5.3.9.3h187.7c.4 0 .6-.1.9-.3l3.5-2.9c.5-.3.7-1 .5-1.5Zm-5.3 2H110.5l-.2-.2h187.2l-.1.2Zm-140.3 0h.5a1.6 1.6 0 0 0 .2.2l.2.1.2.2.1.1 1.5 2h16.4v-1.3c0-.7.6-1.3 1.4-1.3H157Zm32.7 0h.4l.4.3.2.2.1.2a1.5 1.5 0 0 1 .2.6v1.4h25V135c0-.7.6-1.3 1.4-1.3h-27.7Zm40 0c.6 0 1.3.6 1.3 1.3v1.4h16.4l1.7-2.1v-.1a1 1 0 0 1 .3-.3h.3v-.1h.2l.3-.1h-20.6Zm-72.7 0h.5a1.6 1.6 0 0 0 .2.2l.2.1.2.2.1.1 1.5 2h16.4v-1.3c0-.7.6-1.3 1.4-1.3H157Zm32.7 0h.4l.4.3.2.2.1.2a1.5 1.5 0 0 1 .2.6v1.4h25V135c0-.7.6-1.3 1.4-1.3h-27.7Zm40 0c.6 0 1.3.6 1.3 1.3v1.4h16.4l1.7-2.1v-.1a1 1 0 0 1 .3-.3h.3v-.1h.2l.3-.1h-20.6Zm-72.7 0h.5a1.6 1.6 0 0 0 .2.2l.2.1.2.2.1.1 1.5 2h16.4v-1.3c0-.7.6-1.3 1.4-1.3H157Zm32.7 0h.4l.4.3.2.2.1.2a1.5 1.5 0 0 1 .2.6v1.4h25V135c0-.7.6-1.3 1.4-1.3h-27.7Zm40 0c.6 0 1.3.6 1.3 1.3v1.4h16.4l1.7-2.1v-.1a1 1 0 0 1 .3-.3h.3v-.1h.2l.3-.1h-20.6Zm-72.7 0h.5a1.6 1.6 0 0 0 .2.2l.2.1.2.2.1.1 1.5 2h16.4v-1.3c0-.7.6-1.3 1.4-1.3H157Zm32.7 0h.4l.4.3.2.2.1.2a1.5 1.5 0 0 1 .2.6v1.4h25V135c0-.7.6-1.3 1.4-1.3h-27.7Zm40 0c.6 0 1.3.6 1.3 1.3v1.4h16.4l1.7-2.1v-.1a1 1 0 0 1 .3-.3h.3v-.1h.2l.3-.1h-20.6Zm-72.7 0h.5a1.6 1.6 0 0 0 .2.2l.2.1.2.2.1.1 1.5 2h16.4v-1.3c0-.7.6-1.3 1.4-1.3H157Zm32.7 0h.4l.4.3.2.2.1.2a1.5 1.5 0 0 1 .2.6v1.4h25V135c0-.7.6-1.3 1.4-1.3h-27.7Zm40 0c.6 0 1.3.6 1.3 1.3v1.4h16.4l1.7-2.1v-.1a1 1 0 0 1 .3-.3h.3v-.1h.2l.3-.1h-20.6Zm-106 0h.4l.1.1h.2l.1.2.3.3c.2.2.2.4.2.7v1.4H249V135c0-.3.1-.5.3-.7v-.1a1 1 0 0 1 .3-.3h.2v-.1h.3l.3-.1H123.8Zm0 0h.4l.1.1h.2l.1.2.3.3c.2.2.2.4.2.7v1.4H249V135c0-.3.1-.5.3-.7v-.1a1 1 0 0 1 .3-.3h.2v-.1h.3l.3-.1H123.8Zm0 0h.4l.1.1h.2l.1.2.3.3c.2.2.2.4.2.7v1.4H249V135c0-.3.1-.5.3-.7v-.1a1 1 0 0 1 .3-.3h.2v-.1h.3l.3-.1H123.8Zm0 0h.4l.1.1h.2l.1.2.3.3c.2.2.2.4.2.7v1.4H249V135c0-.3.1-.5.3-.7v-.1a1 1 0 0 1 .3-.3h.2v-.1h.3l.3-.1H123.8Zm0 0h.4l.1.1h.2l.1.2.3.3c.2.2.2.4.2.7v1.4H249V135c0-.3.1-.5.3-.7v-.1a1 1 0 0 1 .3-.3h.2v-.1h.3l.3-.1H123.8Zm0 0h.4l.1.1h.2l.1.2.3.3c.2.2.2.4.2.7v1.4H249V135c0-.3.1-.5.3-.7v-.1a1 1 0 0 1 .3-.3h.2v-.1h.3l.3-.1H123.8Zm0 0h.4l.1.1h.2l.1.2.3.3c.2.2.2.4.2.7v1.4H249V135c0-.3.1-.5.3-.7v-.1a1 1 0 0 1 .3-.3h.2v-.1h.3l.3-.1H123.8Zm0 0h.4l.1.1h.2l.1.2.3.3c.2.2.2.4.2.7v1.4H249V135c0-.3.1-.5.3-.7v-.1a1 1 0 0 1 .3-.3h.2v-.1h.3l.3-.1H123.8Zm0 0h.4l.1.1h.2l.1.2.3.3c.2.2.2.4.2.7v1.4H249V135c0-.3.1-.5.3-.7v-.1a1 1 0 0 1 .3-.3h.2v-.1h.3l.3-.1H123.8Zm0 0h.4l.1.1h.2l.1.2.3.3c.2.2.2.4.2.7v1.4H249V135c0-.3.1-.5.3-.7v-.1a1 1 0 0 1 .3-.3h.2v-.1h.3l.3-.1H123.8Zm0 0h.4l.1.1h.2l.1.2.3.3c.2.2.2.4.2.7v1.4H249V135c0-.3.1-.5.3-.7v-.1a1 1 0 0 1 .3-.3h.2v-.1h.3l.3-.1H123.8Zm0 0h.4l.1.1h.2l.1.2.3.3c.2.2.2.4.2.7v1.4H249V135c0-.3.1-.5.3-.7v-.1a1 1 0 0 1 .3-.3h.2v-.1h.3l.3-.1H123.8Zm0 0h.4l.1.1h.2l.1.2.3.3c.2.2.2.4.2.7v1.4H249V135c0-.3.1-.5.3-.7v-.1a1 1 0 0 1 .3-.3h.2v-.1h.3l.3-.1H123.8Z"/><path fill="#1D1D1B" d="M296 101.6c-.2-.4-.7-.7-1.2-.7H111.6c-.5 0-1 .3-1.2.7-.3.4-.3 1 0 1.3l3.3 5.5.2.2c.2.4.6.7 1.1.7h64.3v-2.7h-63.5l-1.8-3h178.5l-1.8 3h-61.4v2.7h62.2c.5 0 1-.3 1.1-.7l.4-.6 3-5c.2-.5.2-1 0-1.4Zm14.1 10.5c-.2-.5-.7-.8-1.3-.8H99c-.5 0-1 .3-1.3.8-.2.5 0 1.1.4 1.5l10.7 9.9.4.4c.3.2.6.3 1 .3h187.7c.4 0 .7 0 1-.3l.4-.4 10.6-10c.4-.3.5-.9.3-1.4Zm-12.8 9.5H110.6l-8.2-7.6h203l-8 7.6Z"/><path fill="#1D1D1B" d="m204.8 97.8-.3-.4-.1-.1-.1.1a1.4 1.4 0 0 1-1.1.6h2.4l-.8-.2Zm0 0-.3-.4-.1-.1-.1.1a1.4 1.4 0 0 1-1.1.6h2.4l-.8-.2Zm0 0-.3-.4-.1-.1-.1.1a1.4 1.4 0 0 1-1.1.6h2.4l-.8-.2Zm0 0-.3-.4-.1-.1-.1.1a1.4 1.4 0 0 1-1.1.6h2.4l-.8-.2Zm0 0-.3-.4-.1-.1-.1.1a1.4 1.4 0 0 1-1.1.6h2.4l-.8-.2Zm0 0-.3-.4-.1-.1-.1.1a1.4 1.4 0 0 1-1.1.6h2.4l-.8-.2Zm0 0-.3-.4-.1-.1-.1.1a1.4 1.4 0 0 1-1.1.6h2.4l-.8-.2Zm0 0-.3-.4-.1-.1-.1.1a1.4 1.4 0 0 1-1.1.6h2.4l-.8-.2Zm0 0-.3-.4-.1-.1-.1.1a1.4 1.4 0 0 1-1.1.6h2.4l-.8-.2Zm0 0-.3-.4-.1-.1-.1.1a1.4 1.4 0 0 1-1.1.6h2.4l-.8-.2Zm0 0-.3-.4-.1-.1-.1.1a1.4 1.4 0 0 1-1.1.6h2.4l-.8-.2Zm0 0-.3-.4-.1-.1-.1.1a1.4 1.4 0 0 1-1.1.6h2.4l-.8-.2Zm0 0-.3-.4-.1-.1-.1.1a1.4 1.4 0 0 1-1.1.6h2.4l-.8-.2Zm0 0-.3-.4-.1-.1-.1.1a1.4 1.4 0 0 1-1.1.6h2.4l-.8-.2Zm0 0-.3-.4-.1-.1-.1.1a1.4 1.4 0 0 1-1.1.6h2.4l-.8-.2Zm0 0-.3-.4-.1-.1-.1.1a1.4 1.4 0 0 1-1.1.6h2.4l-.8-.2Zm31.3-1.8c-.3-.4-.7-.7-1.3-.7h-61.4c-.5 0-1 .3-1.2.7-.2.5-.1 1 .2 1.4l2.7 3.5 1.5 1.8.3.4c.2.3.6.5 1 .5h52.7c.5 0 .9-.2 1.1-.6l.3-.3 1.3-1.8 2.6-3.5c.3-.4.4-1 .2-1.4Zm-57.5 4.9-2.3-3H232l-2.1 3h-51.4Zm26.2-3.1-.3-.4-.1-.1-.1.1a1.4 1.4 0 0 1-1.1.6h2.4l-.8-.2Zm0 0-.3-.4-.1-.1-.1.1a1.4 1.4 0 0 1-1.1.6h2.4l-.8-.2Zm0 0-.3-.4-.1-.1-.1.1a1.4 1.4 0 0 1-1.1.6h2.4l-.8-.2Zm0 0-.3-.4-.1-.1-.1.1a1.4 1.4 0 0 1-1.1.6h2.4l-.8-.2Zm0 0-.3-.4-.1-.1-.1.1a1.4 1.4 0 0 1-1.1.6h2.4l-.8-.2Zm0 0-.3-.4-.1-.1-.1.1a1.4 1.4 0 0 1-1.1.6h2.4l-.8-.2Zm0 0-.3-.4-.1-.1-.1.1a1.4 1.4 0 0 1-1.1.6h2.4l-.8-.2Zm0 0-.3-.4-.1-.1-.1.1a1.4 1.4 0 0 1-1.1.6h2.4l-.8-.2Zm0 0-.3-.4-.1-.1-.1.1a1.4 1.4 0 0 1-1.1.6h2.4l-.8-.2Zm0 0-.3-.4-.1-.1-.1.1a1.4 1.4 0 0 1-1.1.6h2.4l-.8-.2Zm0 0-.3-.4-.1-.1-.1.1a1.4 1.4 0 0 1-1.1.6h2.4l-.8-.2Zm0 0-.3-.4-.1-.1-.1.1a1.4 1.4 0 0 1-1.1.6h2.4l-.8-.2Zm0 0-.3-.4-.1-.1-.1.1a1.4 1.4 0 0 1-1.1.6h2.4l-.8-.2Zm0 0-.3-.4-.1-.1-.1.1a1.4 1.4 0 0 1-1.1.6h2.4l-.8-.2Zm0 0-.3-.4-.1-.1-.1.1a1.4 1.4 0 0 1-1.1.6h2.4l-.8-.2Zm0 0-.3-.4-.1-.1-.1.1a1.4 1.4 0 0 1-1.1.6h2.4l-.8-.2Zm0 0-.3-.4-.1-.1-.1.1a1.4 1.4 0 0 1-1.1.6h2.4l-.8-.2Z"/><path fill="#1D1D1B" d="m196 95.9-.5-.6-1.6-2.4-9.7-14a1.4 1.4 0 0 0-2.5.8l1 15.6v1.4c0 .7.6 1.3 1.3 1.3h10.8c.5 0 1-.3 1.2-.7.2-.5.2-1 0-1.4Zm-10.7-.6-.6-11 7.5 11h-6.9Zm40.8-17c-.6-.2-1.2 0-1.5.5l-9.7 14-1.7 2.5-.4.6a1.4 1.4 0 0 0 1.2 2h10.7c.8 0 1.3-.5 1.4-1.2v-1.4l1-15.6c0-.6-.4-1.2-1-1.4Zm-9.6 17 7.6-11-.7 11h-6.9Z"/><path fill="#1D1D1B" d="m204.5 96.2-.1-.3-.2-.6-1.4-4-4.8-13.7c-.2-.6-.8-1-1.4-1-.7.2-1.1.7-1.2 1.3l-1.6 15-.2 2.4-.2 1.2c0 .4.1.8.4 1 .2.3.6.5 1 .5h8.4l.5-.1.6-.5v-.1c.3-.4.3-.8.2-1.1Zm-8.2-1 1.2-11 3.8 11h-5Z"/><path fill="#1D1D1B" d="m215.2 95.3-.3-2.5-1.6-15a1.4 1.4 0 0 0-2.6-.2l-5.2 15-1 2.7-.1.6-.1.3c-.2.3-.1.7 0 1l.1.2.4.4.7.2h8.4c.4 0 .8-.2 1-.5.3-.3.4-.6.4-1l-.1-1.2Zm-7.8 0 3.9-11 1.1 11h-5Z"/><path fill="#1D1D1B" d="M204.2 98c-.8 0-1.4-.6-1.4-1.4V80.3a1.4 1.4 0 0 1 2.7 0v16.3c0 .8-.6 1.4-1.3 1.4Zm0-21.5c-.8 0-1.4-.6-1.4-1.4v-3.8a1.4 1.4 0 0 1 2.7 0v3.8c0 .8-.6 1.4-1.3 1.4Z"/><path fill="#1D1D1B" d="M208 76.8a4 4 0 0 0-5.2-2.7 3.9 3.9 0 0 0 1.3 7.5c.5 0 1 0 1.4-.2a4 4 0 0 0 2.6-3.7l-.1-.9Zm-5 1a1.2 1.2 0 0 1 2.4 0 1.2 1.2 0 0 1-2.5 0Z"/><path fill="#1D1D1B" d="m205 74.2-.2-.3-.7-.7-1.3-1.3-4.6-4.5a1.4 1.4 0 0 0-2.3 1.3l1.8 6c0 .2.3.5.5.7l2.1 1.4.7.5c.3.2.5.3.8.3.4 0 .7-.2 1-.4.6-.7 1-.7 1-.7h.7l.3-.1.2-.1.2-.2.1-.2.1-.1v-.2l.1-.1V75c.1-.3 0-.7-.3-1Zm-5.3-.8-.7-2.3 3 3.4-2.3-1Z"/><path fill="#1D1D1B" d="M203 75.1v.5l.1.2v.1l.2.1.2.2.3.2h.7c.1 0 .5.1 1.1.8.3.2.7.4 1 .4.3 0 .5-.1.8-.3l.7-.5 2.1-1.4.5-.8 1.8-5.9c.2-.5 0-1.2-.6-1.5-.5-.3-1.2-.2-1.7.2l-4.6 4.5-1.3 1.3-.7.7-.3.3c-.2.2-.4.6-.4 1Zm3.5-.6 3-3.4-.7 2.4-2.3 1Zm-82.8 130.7c-.6 0-1.2-.6-1.2-1.3 0-.8.5-1.4 1.2-1.4l16.4-1v-51.8L123 136.2c-.6-.5-.7-1.3-.3-2 .4-.5 1.3-.6 1.8-.2l17.7 14c.3.2.5.6.5 1v53.7c0 .7-.5 1.3-1.2 1.3l-17.7 1.2Z"/><path fill="#1D1D1B" d="M143.6 202.5v-.3a1.3 1.3 0 0 0-.9-.8h-.5l-17 1c-.7.1-1.2.7-1.2 1.4v4c0 .5.1.8.4 1.1.3.2.6.3 1 .3h.2l16.4-2h.4c.7 0 1.2-.7 1.2-1.3v-3.4Zm-2.7 2.1-14.2 1.8V205l14.2-1v.5Zm87.5-56.9v2.7h12.4v-.9l1.4-1.8h-13.8Zm-38.2 0 .2 1.5v1.2h26.2v-1.2l.2-1.5h-26.6Zm-25.3 0 1.3 1.8v1h12.7v-2.8h-14Zm25.3 0h-1.8v2.7h2v-1.2l-.2-1.5Zm0 0 .2 1.5v1.2h28.4v-2.7h-28.6Zm38.2 0v2.7h12.4v-.9l1.4-1.8h-13.8Zm-63.5 0 1.3 1.8v1h12.7v-2.8h-14Zm-9.1 0v2.7h2.7v-2.7h-2.7Zm34.4 0h-1.8v2.7h2v-1.2l-.2-1.5Zm-25.3 0 1.3 1.8v1h12.7v-2.8h-14Zm-9.1 0v2.7h2.7v-2.7h-2.7Zm32.6 0v2.7h30.4v-2.7h-30.4Zm1.8 0 .2 1.5v1.2h28.4v-2.7h-28.6Zm0 0 .2 1.5v1.2h26.2v-1.2l.2-1.5h-26.6Zm0 0 .2 1.5v1.2h26.2v-1.2l.2-1.5h-26.6Zm0 0 .2 1.5v1.2h26.2v-1.2l.2-1.5h-26.6Zm0 0 .2 1.5v1.2h26.2v-1.2l.2-1.5h-26.6Zm0 0 .2 1.5v1.2h26.2v-1.2l.2-1.5h-26.6Zm0 0 .2 1.5v1.2h26.2v-1.2l.2-1.5h-26.6Zm-1.8 3.7v2.7h2v-2.7h-2Zm1.8-3.7.2 1.5v1.2h26.2v-1.2l.2-1.5h-26.6Zm2.8 0 .1 1.2v1.5h23.5v-1.2l.2-1.5H193Zm23.6 3.7v2.7h2.2v-2.7h-2.2Zm-23.6-3.7.1 1.2v1.5h23.5v-1.2l.2-1.5H193Zm0 0 .1 1.2v1.5h23.5v-1.2l.2-1.5H193Zm0 0 .1 1.2v1.5h23.5v-1.2l.2-1.5H193Zm0 0 .1 1.2v1.5h23.5v-1.2l.2-1.5H193Zm0 0 .1 1.2v1.5h23.5v-1.2l.2-1.5H193Zm0 0 .1 1.2v1.5h23.5v-1.2l.2-1.5H193Zm20.8 3.7v2.7h2.3v-2.7h-2.3Zm-22.7 0v2.7h2v-2.7h-2Zm1.9-3.7.1 1.2v1.5h23.5v-1.2l.2-1.5H193Zm0 0 .1 1.2v1.5h23.5v-1.2l.2-1.5H193Zm0 0 .1 1.2v1.5h23.5v-1.2l.2-1.5H193Zm0 0 .1 1.2v1.5h23.5v-1.2l.2-1.5H193Zm0 0 .1 1.2v1.5h23.5v-1.2l.2-1.5H193Zm-1.9 0v2.7h25.5v-1.2l.2-1.5H191Zm-.9 0 .2 1.5v1.2h26.2v-1.2l.2-1.5h-26.6Zm0 0 .2 1.5v1.2h26.2v-1.2l.2-1.5h-26.6Zm0 0 .2 1.5v1.2h26.2v-1.2l.2-1.5h-26.6Zm0 0 .2 1.5v1.2h26.2v-1.2l.2-1.5h-26.6Zm0 0 .2 1.5v1.2h26.2v-1.2l.2-1.5h-26.6Zm0 0 .2 1.5v1.2h26.2v-1.2l.2-1.5h-26.6Zm-25.3 0 1.3 1.8v1h12.7v-2.8h-14Zm0 0 1.3 1.8v1h12.7v-2.8h-14Zm-9.1 3.7v2.7h2.7v-2.7h-2.7Zm12.4-3.7.4.6c.2.2.3.5.3.8v1.3h10v-2.7h-10.7Zm0 0 .4.6c.2.2.3.5.3.8v1.3h10v-2.7h-10.7Zm0 0 .4.6c.2.2.3.5.3.8v1.3h10v-2.7h-10.7Zm0 0 .4.6c.2.2.3.5.3.8v1.3h10v-2.7h-10.7Zm0 0 .4.6c.2.2.3.5.3.8v1.3h10v-2.7h-10.7Zm0 0 .4.6c.2.2.3.5.3.8v1.3h10v-2.7h-10.7Zm0 0 .4.6c.2.2.3.5.3.8v1.3h10v-2.7h-10.7Zm0 0 .4.6c.2.2.3.5.3.8v1.3h10v-2.7h-10.7Zm0 0 .4.6c.2.2.3.5.3.8v1.3h10v-2.7h-10.7Zm0 0 .4.6c.2.2.3.5.3.8v1.3h10v-2.7h-10.7Zm0 0 .4.6c.2.2.3.5.3.8v1.3h10v-2.7h-10.7Zm0 0 .4.6c.2.2.3.5.3.8v1.3h10v-2.7h-10.7Zm-2 3.7v2.7h2.7v-2.7h-2.7Zm2-3.7.4.6c.2.2.3.5.3.8v1.3h10v-2.7h-10.7Zm8 3.7v2.7h2.7v-2.7h-2.7Zm-8-3.7.4.6c.2.2.3.5.3.8v1.3h10v-2.7h-10.7Zm0 0 .4.6c.2.2.3.5.3.8v1.3h10v-2.7h-10.7Zm0 0 .4.6c.2.2.3.5.3.8v1.3h10v-2.7h-10.7Zm0 0 .4.6c.2.2.3.5.3.8v1.3h10v-2.7h-10.7Zm0 0 .4.6c.2.2.3.5.3.8v1.3h10v-2.7h-10.7Zm0 0 .4.6c.2.2.3.5.3.8v1.3h10v-2.7h-10.7Zm0 0 .4.6c.2.2.3.5.3.8v1.3h10v-2.7h-10.7Zm0 0 .4.6c.2.2.3.5.3.8v1.3h10v-2.7h-10.7Zm0 0 .4.6c.2.2.3.5.3.8v1.3h10v-2.7h-10.7Zm0 0 .4.6c.2.2.3.5.3.8v1.3h10v-2.7h-10.7Zm0 0 .4.6c.2.2.3.5.3.8v1.3h10v-2.7h-10.7Zm-3.3 0 1.3 1.8v1h12.7v-2.8h-14Zm0 0 1.3 1.8v1h12.7v-2.8h-14Zm0 0 1.3 1.8v1h12.7v-2.8h-14Zm0 0 1.3 1.8v1h12.7v-2.8h-14Zm-18.7 2.7v-2.7H142c-.6.2-1 .7-1 1.4v3.7c0 .7.6 1.3 1.4 1.3h4v-2.7h-2.7v-1h2.6Zm18.7-2.7 1.3 1.8v1h12.7v-2.8h-14Zm-9.1 0v2.7h2.7v-2.7h-2.7Zm34.4 0h-1.8v2.7h2v-1.2l-.2-1.5Zm0 0 .2 1.5v1.2h28.4v-2.7h-28.6Zm38.2 0v2.7h12.4v-.9l1.4-1.8h-13.8Zm-63.5 0 1.3 1.8v1h12.7v-2.8h-14Zm-9.1 0v2.7h2.7v-2.7h-2.7Zm34.4 0h-1.8v2.7h2v-1.2l-.2-1.5Zm0 0 .2 1.5v1.2h28.4v-2.7h-28.6Zm38.2 0v2.7h12.4v-.9l1.4-1.8h-13.8Zm2.7 0v2.7h9.7v-.9l1.4-1.8H231Zm0 0v2.7h9.7v-.9l1.4-1.8H231Zm0 0v2.7h9.7v-.9l1.4-1.8H231Zm0 0v2.7h9.7v-.9l1.4-1.8H231Zm0 0v2.7h9.7v-.9l1.4-1.8H231Zm0 0v2.7h9.7v-.9l1.4-1.8H231Zm0 0v2.7h9.7v-.9l1.4-1.8H231Zm0 0v2.7h9.7v-.9l1.4-1.8H231Zm0 0v2.7h9.7v-.9l1.4-1.8H231Zm0 0v2.7h9.7v-.9l1.4-1.8H231Zm0 0v2.7h9.7v-.9l1.4-1.8H231Zm0 0v2.7h9.7v-.9l1.4-1.8H231Zm0 0v2.7h9.7v-.9l1.4-1.8H231Zm0 0v2.7h9.7v-.9l1.4-1.8H231Zm7 6.4h2.7v-2.7H238v2.7Zm-9.7 0h2.7v-2.7h-2.7v2.7Zm2.7-6.4v2.7h9.7v-.9l1.4-1.8H231Zm0 0v2.7h9.7v-.9l1.4-1.8H231Zm0 0v2.7h9.7v-.9l1.4-1.8H231Zm0 0v2.7h9.7v-.9l1.4-1.8H231Zm0 0v2.7h9.7v-.9l1.4-1.8H231Zm0 0v2.7h9.7v-.9l1.4-1.8H231Zm0 0v2.7h9.7v-.9l1.4-1.8H231Zm0 0v2.7h9.7v-.9l1.4-1.8H231Zm0 0v2.7h9.7v-.9l1.4-1.8H231Zm0 0v2.7h9.7v-.9l1.4-1.8H231Zm17.8 3.7v2.7h2.7v-2.7H249Zm-17.8-3.7v2.7h9.7v-.9l1.4-1.8H231Zm0 0v2.7h9.7v-.9l1.4-1.8H231Zm0 0v2.7h9.7v-.9l1.4-1.8H231Zm-2.7 0v2.7h12.4v-.9l1.4-1.8h-13.8Zm32.8 3.7v2.7h2.7v-2.7h-2.7Zm4.8-3.7h-4.8v2.7h3.5v3.7h1.3c.8 0 1.4-.6 1.4-1.3V149c0-.8-.6-1.4-1.4-1.4Zm-17 0v2.7h2.6v-2.7H249Z"/><path fill="#1D1D1B" d="M168.9 149v52c0 .6-.4 1.1-1 1.3l-8 2.1-2.4.7h-.4a1.4 1.4 0 0 1-.3-2.6h.1l1.6-.5 7.7-2v-50.5l-1.4-1.8-6.3-8.5-2-2.7-.5-.6a1.4 1.4 0 0 1 1.1-2.1h.5l.2.1.2.2.2.2.1.1 1.5 2 8.4 11.3.4.5.3.9Z"/><path fill="#1D1D1B" d="M168.3 199.9c-.3-.3-.7-.3-1.2-.2l-8.6 2.7-.3.1c-.6.2-1 .7-1 1.3v4c0 .5.3 1 .7 1.2a1.4 1.4 0 0 0 1 .2h.2l9-3.7c.5-.2.8-.7.8-1.2V201c0-.5-.2-.9-.6-1.1Zm-2.1 3.5-6.2 2.5v-1.1l6.2-2v.6Zm26.9-54.4v53c0 .4-.1.8-.4 1l-.2.2-1.8 1.6-.3.2h-.2l-.2.1h-.2c-.4 0-.8 0-1-.4-.5-.6-.5-1.4 0-2l.5-.2h1l.1-.7v-.1c.1-.4.4-.7.7-.9v-50.4h-.7v-1.2l-.2-1.5-1.6-11.2-.2-1.2c0-.7.4-1.4 1.2-1.5h.6l.4.3.2.2.1.2a1.5 1.5 0 0 1 .2.4l.2 1.6 1.6 11.2.2 1.2v.2Z"/><path fill="#1D1D1B" d="M193.1 202v3.5l-.5 2.6v.3l-.2.2-.2.2-.2.2-.2.1h-.2l-.3.1h-.1c-.7 0-1.3-.6-1.3-1.3v-4.5l.3-1 .3-.7a1.4 1.4 0 0 1 1.5-1c.6 0 1.1.7 1.1 1.3Zm25.4 2.6c-.2.4-.6.6-1 .6h-.4l-.1-.1-.3-.2-2-1.5-.3-.3c-.4-.2-.5-.6-.5-1v-53.2l.2-1.2 1.9-11.2.1-1c.2-.8.9-1.3 1.6-1.2.7.2 1.2.9 1.1 1.6v.6l-2 11.2-.2 1.5v1.2h-.5v50.7c.2 0 .3.2.4.4v.3l.4.7h1l.4.3c.6.4.7 1.3.2 1.8Z"/><path fill="#1D1D1B" d="M217.3 203.8v4c0 .8-.5 1.4-1.2 1.4h-.7l-.2-.2-.1-.1-.3-.3v-.2l-.2-.3-.7-4V202c0-.6.4-1.2 1-1.3.5 0 1 0 1.2.3l.4.5.4 1 .3.8v.5Zm34.3.4c-.2.6-.7 1-1.3 1h-.4l-2.5-.7-8.3-2.2c-.6-.2-1-.7-1-1.3v-52c0-.2 0-.5.3-.8l.4-.5 8.7-11.2 1.7-2.1v-.1l.2-.2.2-.1h.1v-.1h.3l.3-.1c.3 0 .6 0 .8.3.6.4.7 1.3.3 1.9l-.4.5-2 2.6-6.8 8.6-1.4 1.8V200l8.2 2.2 1.5.4h.1c.7.2 1.2 1 1 1.7Z"/><path fill="#1D1D1B" d="M249.2 202.5h-.2l-9.2-2.8c-.4-.1-.8 0-1.2.2-.3.3-.5.7-.5 1v3.5c0 .6.3 1.1.8 1.3l9.4 3.4.2.1h.3a1.4 1.4 0 0 0 1.3-1.3v-4c0-.7-.4-1.2-1-1.4Zm-8.4.3 6.6 2v1.1l-6.6-2.4v-.7Zm43.8 1.2c0 .6-.6 1.2-1.3 1.2h-.2l-2.7-.3-14.5-1.5a1.3 1.3 0 0 1-.9-.5v-.1a1 1 0 0 1-.3-.6V149c0-.3.2-.7.5-1l.3-.3 14-11.2 3-2.4.1-.1.2-.1.3-.1a1.4 1.4 0 0 1 1 2.4l-.3.3-1.9 1.5-14.5 11.7v51.1l14.5 1.5 1.5.2c.8 0 1.3.7 1.2 1.4Z"/><path fill="#1D1D1B" d="M282 202.5h-.1l-15.7-1.5c-.4 0-.8 0-1 .3-.3.3-.5.6-.5.9v3.1a1.3 1.3 0 0 0 1.1 1.3l15.7 2.6h.3c.3 0 .6 0 .8-.3.4-.3.5-.6.5-1v-4c0-.8-.5-1.3-1.2-1.4Zm-14.6 1.3 13 1.2v1.3l-13-2.2v-.3Zm-155.8-40.5H78.2c-.7 0-1.3-.6-1.3-1.4 0-.7.6-1.3 1.3-1.3h32v-2.4h-32c-.7 0-1.3-.6-1.3-1.3 0-.7.6-1.4 1.3-1.4h33.4c.7 0 1.3.6 1.3 1.4v5c0 .8-.6 1.4-1.3 1.4Z"/><path fill="#1D1D1B" d="M111.6 168.9H78.2c-.7 0-1.3-.6-1.3-1.4 0-.7.6-1.3 1.3-1.3h32v-4.3a1.4 1.4 0 0 1 2.7 0v5.6c0 .8-.6 1.4-1.3 1.4Zm-25 33.6H77c-.7 0-1.2.6-1.2 1.3v3.4c0 .8.6 1.4 1.3 1.4h9.5c.7 0 1.3-.6 1.3-1.4v-3.4c0-.7-.5-1.3-1.2-1.3Zm-1.5 3.4h-6.7v-.7H85v.7Zm25.1-3.4H99.7c-.7 0-1.2.6-1.2 1.3v3.4c0 .8.6 1.4 1.4 1.4h10c.8 0 1.4-.6 1.4-1.4v-3.4c0-.7-.5-1.3-1.2-1.3Zm-8.9 2.7h7.4v.7h-7.4v-.7Zm204.7-39h-7.1c-.7 0-1.3.6-1.3 1.3v36.3c0 .6.3 1 .8 1.3h7.5c.8 0 1.4-.5 1.4-1.3v-36.3c0-.7-.6-1.3-1.4-1.3Zm-1.4 36.3h-4.3v-33.6h4.3v33.6Zm25.2-35.9-.2-.2a1.4 1.4 0 0 0-.8-.2h-7c-.7 0-1.3.6-1.3 1.3v36.3c0 .7.6 1.3 1.3 1.3h7c.8 0 1.4-.6 1.4-1.3v-36.3c0-.3-.2-.7-.4-1Zm-6.6 35.9v-33.6h4.3v33.6h-4.3Zm5.7-39.2h-33.4c-.7 0-1.3-.6-1.3-1.4v-5c0-.7.6-1.3 1.3-1.3H329c.7 0 1.3.6 1.3 1.3 0 .7-.6 1.4-1.3 1.4h-32v2.3h32a1.3 1.3 0 1 1 0 2.7Z"/><path fill="#1D1D1B" d="M328.9 168.9h-33.4c-.7 0-1.3-.6-1.3-1.4V162a1.4 1.4 0 0 1 2.7 0v4.3h32c.7 0 1.3.6 1.3 1.3 0 .8-.6 1.4-1.3 1.4Zm1.3 33.6h-9.7c-.7 0-1.2.6-1.2 1.3v3.4c0 .8.6 1.4 1.3 1.4h9.5c.7 0 1.3-.6 1.3-1.4v-3.4c0-.7-.5-1.3-1.2-1.3Zm-1.5 3.4H322v-.7h6.7v.7Zm-21.4-3.4h-10.4c-.7 0-1.2.6-1.2 1.3v3.4c0 .8.6 1.4 1.3 1.4h10.1c.8 0 1.4-.6 1.4-1.4v-3.4c0-.7-.6-1.3-1.2-1.3Zm-1.5 3.4h-7.4v-.7h7.4v.7Zm-172-58.2c-2.7 0-4.8 3.2-4.8 7.2s2.1 7.2 4.8 7.2c2.7 0 4.7-3.2 4.7-7.2s-2-7.2-4.7-7.2Zm0 11.7c-.8 0-2-1.7-2-4.5 0-2.7 1.2-4.5 2-4.5s2 1.8 2 4.5-1.2 4.5-2 4.5ZM274 148c-2.7 0-4.8 3.1-4.8 7.1 0 4 2 7.2 4.7 7.2s4.8-3.1 4.8-7.2c0-4-2.1-7.1-4.8-7.1Zm0 11.6c-1 0-2.1-1.7-2.1-4.5 0-2.7 1.2-4.4 2-4.4s2 1.7 2 4.4c0 2.8-1.2 4.5-2 4.5Zm54.9 60.4H78.2c-.7 0-1.3-.5-1.3-1.3 0-.7.6-1.3 1.3-1.3H329c.7 0 1.3.6 1.3 1.3 0 .8-.6 1.4-1.3 1.4Z"/><path stroke="#fff" stroke-linecap="round" stroke-miterlimit="10" d="M111.6 133.8h184.6"/></svg>