<svg xmlns="http://www.w3.org/2000/svg" width="189.6" height="125.7" viewBox="0 0 189.6 125.7"><defs><clipPath id="a"><path fill="none" d="M-.5-2.2h203v129H-.5z"/></clipPath><clipPath id="b"><path fill="none" d="M77.1-2.2h125.3V85H77.1z"/></clipPath></defs><g clip-path="url(#a)"><path fill="#131313" d="M33.4 26a15.1 15.1 0 0 0 3 3.7c-2 0-3.4 0-5.1-3l-.4-.6-4.5-7.7-1 .3 4.4 7.4 1.2 2a15.9 15.9 0 0 0 3.5 4.2c-2.1 0-3.5 0-5.3-3l-2-3.2-4-6.8A3 3 0 0 0 23 21a9.4 9.4 0 0 0 1.7 5.2 17.1 17.1 0 0 0 2.6 3 1.8 1.8 0 0 1-.7.1 8.4 8.4 0 0 1-1 0 26 26 0 0 0 2.3 3.8 15.2 15.2 0 0 1 2.6-.3c.8 0 .8.5.8.9a2.2 2.2 0 0 1-.7 1.7c-.1-.4-.4-1-1.8-1 .3.6 1.6 1.7 1.6 2.6a1.6 1.6 0 0 1-1.4 1.4 2 2 0 0 0 0-.5 3.9 3.9 0 0 0-1.1-2.1 2.2 2.2 0 0 1 0 .3c0 1.8-.2 2.5-1.2 2.5a1.7 1.7 0 0 1-1-.3 2.4 2.4 0 0 0 .7-2.2v-.8a4.3 4.3 0 0 1 0-.7 3.5 3.5 0 0 0-.8 0s-1.4-.1-1.8.7c-.4-.4-1-1-1-1.6 0-.4.2-.8 1-.8l1.8.2a20.1 20.1 0 0 0-1.8-2.9 2.2 2.2 0 0 1-.7 1.2 8.3 8.3 0 0 0-1.4-4 19.7 19.7 0 0 0-.1 3.4c0 4.3 1 7.4 3 8a1.8 1.8 0 0 1-1.4 1c-.8 0-1.2-1-1.6-1.8-.2.6-.8 2.2-1.4 2.2s-1.2-1.5-1.4-2.1c-.4.8-.8 1.7-1.6 1.7a1.7 1.7 0 0 1-1.4-1c2-.5 3-3.7 3-8a20.9 20.9 0 0 0-.2-3.4 8.5 8.5 0 0 0-1.4 4 2.3 2.3 0 0 1-.7-1.2 22.3 22.3 0 0 0-1.8 2.9l1.9-.2c.7 0 .9.4.9.8 0 .6-.6 1.2-1 1.5-.3-.8-1.8-.6-1.8-.6a3.5 3.5 0 0 0-.8 0 4.3 4.3 0 0 1 0 .7v.8a2.4 2.4 0 0 0 .7 2 1.7 1.7 0 0 1-1 .5c-1 0-1.1-.8-1.1-2.5a2.2 2.2 0 0 1 0-.4 3.9 3.9 0 0 0-1.2 2.2 2 2 0 0 0 0 .5 1.6 1.6 0 0 1-1.4-1.5c0-1 1.3-2 1.7-2.5-1.5 0-1.8.5-2 .9a2.2 2.2 0 0 1-.7-1.7c0-.4.1-.9.9-.9a15.2 15.2 0 0 1 2.6.3 26 26 0 0 0 2.3-4 8.4 8.4 0 0 1-1 .1 1.8 1.8 0 0 1-.7 0 17.1 17.1 0 0 0 2.6-3 9.3 9.3 0 0 0 1.7-5.2 5.8 5.8 0 0 0-.3-1.6L12.8 26l-2 3.3c-1.7 3-3 2.9-5.2 2.9A16 16 0 0 0 9 28.1l1.3-2.2 4.4-7.2-.9-.3-4.5 7.7-.4.6c-1.7 3-3.1 3-5.2 3A15.3 15.3 0 0 0 6.8 26l.3-.6 4.8-8-.8-.6-4 6.7A6 6 0 0 1 5 26a6.1 6.1 0 0 1-3 .4l.6-.4a16 16 0 0 0 2.9-3.8l4-6.8-.7-.7L6 19.6c-1.8 3-3.2 2.9-5.3 2.9A15.5 15.5 0 0 0 4 18.4l3.3-5.6a10.2 10.2 0 0 1-.4-1l-1.7 2.8c-1.7 3-3.1 3-5.2 3a15.5 15.5 0 0 0 3.4-4.2l3.2-5.5A8.4 8.4 0 0 1 9 3.4a3.8 3.8 0 0 1-1-.5c2.1 0 4.2-1.2 5.3-1.2a1.1 1.1 0 0 1 1.2 1 .5.5 0 0 1 0 .1c0 .7-.7 1.4-2 1.4a6.6 6.6 0 0 1-1 0 5.4 5.4 0 0 0-1.1 3.1c0 2.4 2.7 4.3 5.4 4.3h.5a13.3 13.3 0 0 1 2.5-4.5c-1-.4-2.3-1.5-2.3-2a19 19 0 0 1 2.5.7 1 1 0 0 0 .6-.6 14.8 14.8 0 0 1-2.4-.5 1.6 1.6 0 0 1-1-1 11 11 0 0 0 2.2.5 5.5 5.5 0 0 0 1-.1c-.3-.8-.9-1.5-1.5-1.5a3.5 3.5 0 0 0-1.4.4 4.3 4.3 0 0 1-.7-1.8c0-.5.5-1 1.7-1a5.5 5.5 0 0 1 1 .1 2.6 2.6 0 0 1 .7.2c0-.3.2-.5.7-.5 1 0 2.2.3 3.5.3a1.8 1.8 0 0 0 .7 0 3.3 3.3 0 0 1-.8 1 3.8 3.8 0 0 1 .8 2.1c0 2-1.2 3.5-1.2 5.4a6.8 6.8 0 0 0 1.1 2.8h.5c2.7 0 5.4-1.9 5.4-4.3a5.5 5.5 0 0 0-1.2-3.2 6.6 6.6 0 0 1-1 .1c-1.3 0-2-.7-2-1.4a1 1 0 0 1 1.1-1c1.2 0 3.3 1 5.4 1a4.1 4.1 0 0 1-1 .6A8.2 8.2 0 0 1 33.6 8l3.2 5.5a16 16 0 0 0 3.4 4.1c-2 0-3.5 0-5.2-2.9l-1.6-2.8a11 11 0 0 1-.5 1l3.3 5.6a15.5 15.5 0 0 0 3.4 4.2c-2.1 0-3.5 0-5.2-3l-2.9-4.8-.6.7 4 6.8a16.4 16.4 0 0 0 2.9 3.8l.5.4a6 6 0 0 1-3-.4 5.9 5.9 0 0 1-2.2-2.5l-4-6.7-.7.5 4.7 8.2Z"/><path fill="#fff" fill-rule="evenodd" d="M16.3 29.6c-.1-.5-.2-.8-.7-.8a1 1 0 0 0-.4.1 24.4 24.4 0 0 1-2.6 4.4 17 17 0 0 0-2.8-.2c-.2 0-.5 0-.5.5a2 2 0 0 0 .3 1 2.3 2.3 0 0 1 2-.7 3.6 3.6 0 0 1 .8.2c-1 1.1-2 2-2 2.7a1.4 1.4 0 0 0 .6 1 4.7 4.7 0 0 1 1.8-3V36c0 1.7.1 2 .8 2a.9.9 0 0 0 .3 0 3 3 0 0 1-.4-2v-1a8.4 8.4 0 0 0-.1-1 8.1 8.1 0 0 1 1.2 0 2.3 2.3 0 0 1 1.8.4 1.5 1.5 0 0 0 .6-1c0-.4-.3-.4-.6-.4a18.4 18.4 0 0 1-2.4.2 14.9 14.9 0 0 1 2.3-3.7Z"/><path fill="#fff" d="M26.2 33.3a18.4 18.4 0 0 1-2.4-.2c-.3 0-.6 0-.6.5a1.5 1.5 0 0 0 .6 1 2.3 2.3 0 0 1 1.8-.5 8.1 8.1 0 0 1 1.2 0 5.5 5.5 0 0 0 0 1v1a3 3 0 0 1-.6 2 .9.9 0 0 0 .4 0c.6 0 .8-.3.8-2.1v-1.2a4.7 4.7 0 0 1 1.8 3 1.4 1.4 0 0 0 .6-1c0-.6-1-1.5-2-2.7a3.6 3.6 0 0 1 .8-.1 2.3 2.3 0 0 1 2 .6 2 2 0 0 0 .2-1c0-.5-.3-.5-.5-.5a17 17 0 0 0-2.7.3A24.4 24.4 0 0 1 25 29a1 1 0 0 0-.5-.2c-.4 0-.5.4-.6.8a15.3 15.3 0 0 1 2.3 3.7Zm5.4-25.2a6.3 6.3 0 0 0-2-4.2h-.3a5.7 5.7 0 0 1 1.5 3.5c0 3-3 5.6-6.5 5.7v.8a7.6 7.6 0 0 1 0 1.3 7.5 7.5 0 0 0 7.3-7ZM9.5 7.4A5.6 5.6 0 0 1 11 3.9h-.4a6.3 6.3 0 0 0-2 4.2 7.5 7.5 0 0 0 7.5 7.1A10.8 10.8 0 0 1 16 14a5.6 5.6 0 0 1 0-.8c-3.5 0-6.5-2.6-6.5-5.7ZM20 4.6a4.2 4.2 0 0 0 .5-1.6c0-1.6-1.3-2.3-3-2.3-.8 0-1.2.3-1.2.6a3.9 3.9 0 0 0 .4 1.1 3.7 3.7 0 0 1 1.2-.3c1.1 0 2 1.3 2.1 2.5Z"/><path fill="#fff" fill-rule="evenodd" d="M20.8 2.5c1 .2 1.6-1 .7-1.3.2.4-.5.7-.5.7s-.2-.6.1-.9c-.6-.3-.7 0-.7.4a2.7 2.7 0 0 1 .4 1.1Z"/><path fill="#131313" d="M64 3.5h-6.8v40.7H64Z"/><path fill="red" d="M64 44.2h-6.8V85H64Z"/><path fill="#fc0" d="M64 85h-6.8v40.7H64Z"/><g fill="#131313" clip-path="url(#b)"><path d="M78.5 11.8V.8H85v1.3h-5.2v3.6h4.7V7h-4.7v4.8Zm11.4.1a3.7 3.7 0 0 1-2-.5 3.4 3.4 0 0 1-1.4-1.5 5 5 0 0 1-.5-2.2 5 5 0 0 1 .5-2.2A3.6 3.6 0 0 1 87.7 4a3.4 3.4 0 0 1 2-.5 4.2 4.2 0 0 1 1.3.3 3.1 3.1 0 0 1 1.1.6 3.3 3.3 0 0 1 .8 1.3 5.3 5.3 0 0 1 .3 2V8H87V7h5a2.5 2.5 0 0 0-.3-1.3A2 2 0 0 0 91 5a2.1 2.1 0 0 0-1.2-.4 2.3 2.3 0 0 0-1.2.4 2.6 2.6 0 0 0-.9 1 2.9 2.9 0 0 0-.2 1.2V8a3.5 3.5 0 0 0 .3 1.5 2.4 2.4 0 0 0 .9 1 2.6 2.6 0 0 0 1.3.3 3 3 0 0 0 .9 0 2 2 0 0 0 .7-.5 1.7 1.7 0 0 0 .4-.7l1.2.3a2.6 2.6 0 0 1-.6 1 3 3 0 0 1-1.1.7 4.3 4.3 0 0 1-1.5.3Zm8.3 0a3.3 3.3 0 0 1-1.8-.5 3.6 3.6 0 0 1-1.2-1.5 5.3 5.3 0 0 1-.5-2.1 5.2 5.2 0 0 1 .5-2.3 3.5 3.5 0 0 1 1.2-1.4 3.3 3.3 0 0 1 1.8-.5 2.5 2.5 0 0 1 1.3.2 2.2 2.2 0 0 1 .7.6l.4.5v-4h1.3v10.9h-1.2v-1.3h-.1l-.4.6a2.5 2.5 0 0 1-.7.6 2.6 2.6 0 0 1-1.3.2Zm.2-1a2 2 0 0 0 1.3-.5 2.4 2.4 0 0 0 .8-1 4.5 4.5 0 0 0 .2-1.7 4.6 4.6 0 0 0-.2-1.6 2.3 2.3 0 0 0-.8-1 2 2 0 0 0-1.3-.5 2.2 2.2 0 0 0-1.3.5 2.5 2.5 0 0 0-.8 1 4.3 4.3 0 0 0-.3 1.6 4.3 4.3 0 0 0 .3 1.6 2.5 2.5 0 0 0 .8 1 2 2 0 0 0 1.3.5Zm9.4 1a4 4 0 0 1-2-.5 3.6 3.6 0 0 1-1.3-1.5 5 5 0 0 1-.5-2.2 5.2 5.2 0 0 1 .5-2.2 3.6 3.6 0 0 1 1.3-1.5 3.4 3.4 0 0 1 1.9-.5 3.8 3.8 0 0 1 1.3.2 3 3 0 0 1 1 .7 3.5 3.5 0 0 1 .9 1.3 5.3 5.3 0 0 1 .3 1.9V8h-6.3V7h5a2.8 2.8 0 0 0-.3-1.3 2 2 0 0 0-.7-.9 2.1 2.1 0 0 0-1.2-.3 2.3 2.3 0 0 0-1.3.4 2.6 2.6 0 0 0-.8 1 2.9 2.9 0 0 0-.3 1.2V8a3.4 3.4 0 0 0 .3 1.5 2.3 2.3 0 0 0 .9 1 2.6 2.6 0 0 0 1.3.3 3 3 0 0 0 1 0 2 2 0 0 0 .6-.5 1.8 1.8 0 0 0 .5-.7l1.2.3a2.6 2.6 0 0 1-.7 1 3.2 3.2 0 0 1-1 .8 4.4 4.4 0 0 1-1.6.2Zm5.3-.1V3.6h1.2v1.2h.1a1.9 1.9 0 0 1 .8-1 2.4 2.4 0 0 1 1.3-.3h.6v1.3h-.7a2.2 2.2 0 0 0-1 .2 1.8 1.8 0 0 0-.8.7 1.9 1.9 0 0 0-.3 1v5Zm8 .2a3.4 3.4 0 0 1-1.4-.3 2.4 2.4 0 0 1-1-.9 2.4 2.4 0 0 1-.4-1.3 2.2 2.2 0 0 1 .3-1.2 2 2 0 0 1 .8-.7 4 4 0 0 1 1-.3l1.1-.2 1.2-.2a2 2 0 0 0 .7-.1.5.5 0 0 0 .2-.5 1.6 1.6 0 0 0-.4-1.2 1.8 1.8 0 0 0-1.3-.4 2.2 2.2 0 0 0-2.1 1.2l-1.3-.5a2.9 2.9 0 0 1 .9-1.1 3.1 3.1 0 0 1 1.1-.6 4.8 4.8 0 0 1 1.3-.2 4.6 4.6 0 0 1 .9.1 2.8 2.8 0 0 1 1 .4 2.3 2.3 0 0 1 .8.9 3.3 3.3 0 0 1 .3 1.5v5.3h-1.2v-1a2.1 2.1 0 0 1-.5.5 2.2 2.2 0 0 1-.8.5 3.2 3.2 0 0 1-1.2.2Zm.2-1.2a2.5 2.5 0 0 0 1.3-.3 2 2 0 0 0 .8-.7 2 2 0 0 0 .2-1V7.7a.9.9 0 0 1-.3.1l-.7.2h-.6l-.6.1a4.8 4.8 0 0 0-.9.2 1.5 1.5 0 0 0-.6.5 1 1 0 0 0-.3.7 1.1 1.1 0 0 0 .5 1 2.2 2.2 0 0 0 1.2.3Zm7-10v11h-1.2V.8Zm6.7 0h1.6l3.7 9h.1l3.7-9h1.6v11h-1.3V3.4l-3.5 8.3h-1.2l-3.4-8.3v8.3H135Zm13.1 11V3.6h1.3v8.2Zm.6-9.6a1 1 0 0 1-.6-.2.8.8 0 0 1 0-1.2 1 1 0 0 1 1.3 0 .8.8 0 0 1 0 1.1V2a.9.9 0 0 1-.7.3Zm4.2 4.6v5h-1.3V3.6h1.2v1.3h.2a2.3 2.3 0 0 1 .9-1 2.8 2.8 0 0 1 1.5-.4 2.9 2.9 0 0 1 1.4.3 2.3 2.3 0 0 1 1 1 3.7 3.7 0 0 1 .4 1.8v5.2h-1.3V6.7a2 2 0 0 0-.5-1.5 1.8 1.8 0 0 0-1.4-.6 2.4 2.4 0 0 0-1 .3 2 2 0 0 0-.8.7 2.5 2.5 0 0 0-.3 1.3Zm7.5 5V3.6h1.2v8.2Zm.6-9.6a1 1 0 0 1-.6-.2.8.8 0 0 1 .6-1.5.8.8 0 0 1 .6.3.8.8 0 0 1 .1 1.1V2a.9.9 0 0 1-.7.3Zm8.7 3.2-1.2.3a2.3 2.3 0 0 0-.3-.5 1.5 1.5 0 0 0-.5-.4 2 2 0 0 0-1-.2 2.1 2.1 0 0 0-1.2.3 1 1 0 0 0-.5.9.9.9 0 0 0 .4.7 2.8 2.8 0 0 0 1 .5l1.3.3a3.4 3.4 0 0 1 1.6.8 1.9 1.9 0 0 1 .5 1.4 2 2 0 0 1-.3 1.3 2.8 2.8 0 0 1-1.2.8 4.2 4.2 0 0 1-1.6.3 3.6 3.6 0 0 1-2-.5 2.4 2.4 0 0 1-1-1.6l1.1-.3a1.6 1.6 0 0 0 .6 1 2.2 2.2 0 0 0 1.3.3 2.4 2.4 0 0 0 1.4-.3 1.1 1.1 0 0 0 .5-1 1 1 0 0 0-.3-.6 2 2 0 0 0-.9-.5l-1.4-.3a3.3 3.3 0 0 1-1.6-.8 2 2 0 0 1-.5-1.4 2 2 0 0 1 .4-1.2 2.6 2.6 0 0 1 1-.9 3.7 3.7 0 0 1 1.6-.3 3 3 0 0 1 1.9.6 2.8 2.8 0 0 1 .9 1.3Zm5.5-1.8v1H171v-1Zm-3-2h1.3v7.8a1.6 1.6 0 0 0 .1.8.8.8 0 0 0 .5.4 1.5 1.5 0 0 0 .5 0h.5l.3 1.2h-.4a2.8 2.8 0 0 1-.5.1 2.6 2.6 0 0 1-1-.2 2.2 2.2 0 0 1-.9-.7 2 2 0 0 1-.3-1.2Zm5 10.1v-8h1.1v1.2h.2a2 2 0 0 1 .8-1 2.4 2.4 0 0 1 1.3-.3h.6v1.3h-.7a2.2 2.2 0 0 0-1 .2 1.8 1.8 0 0 0-.8.7 1.9 1.9 0 0 0-.3 1v5Zm6.5 3a2.2 2.2 0 0 1-.5 0 1.9 1.9 0 0 1-.4 0l.4-1.1a2.2 2.2 0 0 0 .8 0 1 1 0 0 0 .6-.3 2.5 2.5 0 0 0 .5-.9l.2-.6-3-8.2h1.4l2.2 6.5h.1l2.3-6.5h1.3l-3.4 9.3a3.6 3.6 0 0 1-.6 1 2.1 2.1 0 0 1-.8.7 2.3 2.3 0 0 1-1 .2ZM81.6 43.3a3.4 3.4 0 0 1-3.2-2 5 5 0 0 1-.5-2.2 5 5 0 0 1 .5-2.2 3.4 3.4 0 0 1 3.2-2 3.4 3.4 0 0 1 3.2 2 5 5 0 0 1 .5 2.2 5 5 0 0 1-.5 2.2 3.5 3.5 0 0 1-3.2 2Zm0-1.1a2.1 2.1 0 0 0 1.4-.5 2.4 2.4 0 0 0 .8-1A4 4 0 0 0 84 39a4.2 4.2 0 0 0-.3-1.5 2.5 2.5 0 0 0-.7-1.1 2.4 2.4 0 0 0-2.8 0 2.5 2.5 0 0 0-.8 1 4.2 4.2 0 0 0-.2 1.6 4 4 0 0 0 .2 1.5 2.4 2.4 0 0 0 .8 1.2 2.2 2.2 0 0 0 1.4.4Zm9.2-7.3V36h-4.4v-1Zm-3 8.2v-9.2a2 2 0 0 1 .3-1.2 2 2 0 0 1 .8-.7 2.7 2.7 0 0 1 1.1-.3 3.2 3.2 0 0 1 .8.1 3.2 3.2 0 0 1 .4.2l-.4 1h-.2a1.6 1.6 0 0 0-.4 0 1.1 1.1 0 0 0-1 .3 1.4 1.4 0 0 0-.2.9v9Zm9.1 0V32.3h6.6v1.1h-5.3v3.7h5v1.2h-5V42h5.4v1Zm11.9.2a3.2 3.2 0 0 1-1.8-.5 3.4 3.4 0 0 1-1.2-1.5 5.9 5.9 0 0 1 0-4.5 3.4 3.4 0 0 1 1.2-1.4 3.2 3.2 0 0 1 1.8-.5 2.6 2.6 0 0 1 1.3.2 2.2 2.2 0 0 1 .7.6l.4.6v-4h1.3V43h-1.2v-1h-.2l-.3.5a2.4 2.4 0 0 1-.8.6 2.6 2.6 0 0 1-1.2.3Zm.1-1.2a2 2 0 0 0 1.3-.4 2.4 2.4 0 0 0 .8-1 4.5 4.5 0 0 0 .3-1.7 4.6 4.6 0 0 0-.3-1.6 2.3 2.3 0 0 0-.8-1 2 2 0 0 0-1.3-.4 2.2 2.2 0 0 0-1.3.4 2.4 2.4 0 0 0-.8 1 4.8 4.8 0 0 0 0 3.2 2.5 2.5 0 0 0 .8 1.1 2 2 0 0 0 1.3.5Zm11.2-2.3V35h1.3v8H120v-1.4h-.1a2.6 2.6 0 0 1-.9 1 2.6 2.6 0 0 1-1.5.5 2.8 2.8 0 0 1-1.4-.4 2.3 2.3 0 0 1-1-1 3.8 3.8 0 0 1-.3-1.7v-5h1.3v5a2 2 0 0 0 .5 1.5 1.7 1.7 0 0 0 1.3.5 2.1 2.1 0 0 0 2-2.2Zm6.9 3.5a3.5 3.5 0 0 1-2-.6 3.6 3.6 0 0 1-1.3-1.5 5 5 0 0 1-.5-2.1 4.8 4.8 0 0 1 .5-2.2 3.6 3.6 0 0 1 1.3-1.5 3.5 3.5 0 0 1 2-.5 3.6 3.6 0 0 1 1.5.3 2.8 2.8 0 0 1 1.7 2.2h-1.3a2 2 0 0 0-2-1.4 2.2 2.2 0 0 0-1.3.4 2.5 2.5 0 0 0-.8 1 4 4 0 0 0-.3 1.7 4.2 4.2 0 0 0 .3 1.6 2.6 2.6 0 0 0 .8 1 2.2 2.2 0 0 0 1.3.5 2 2 0 0 0 .9-.2 1.8 1.8 0 0 0 .7-.5 1.9 1.9 0 0 0 .4-.7h1.2a3 3 0 0 1-.5 1.3 2.8 2.8 0 0 1-1.1.9 3.4 3.4 0 0 1-1.5.3Zm7.4 0a3.4 3.4 0 0 1-1.4-.3 2.3 2.3 0 0 1-1-.9 2.4 2.4 0 0 1-.4-1.3 2.2 2.2 0 0 1 .3-1.2 2 2 0 0 1 .7-.7 4 4 0 0 1 1-.3l1.2-.2 1.1-.2a2 2 0 0 0 .7-.1.4.4 0 0 0 .2-.5 1.7 1.7 0 0 0-.4-1.2 1.7 1.7 0 0 0-1.3-.4 2.3 2.3 0 0 0-1.4.4 2.2 2.2 0 0 0-.7.8l-1.2-.5a2.9 2.9 0 0 1 .9-1.1 3.2 3.2 0 0 1 1.2-.6 4.8 4.8 0 0 1 1.2-.2 4.6 4.6 0 0 1 .9.2 2.8 2.8 0 0 1 1 .3 2.3 2.3 0 0 1 .8.9 3.3 3.3 0 0 1 .3 1.5v5.4H137V42h-.1a2.1 2.1 0 0 1-.4.5 2.6 2.6 0 0 1-.8.5 3 3 0 0 1-1.2.3Zm.2-1.1a2.5 2.5 0 0 0 1.2-.3 2 2 0 0 0 .8-.8 1.9 1.9 0 0 0 .3-1V39a.6.6 0 0 1-.4.2 4.6 4.6 0 0 0-.6.1l-.7.1h-.5a4.6 4.6 0 0 0-1 .3 1.5 1.5 0 0 0-.6.4 1 1 0 0 0-.2.8 1.2 1.2 0 0 0 .4 1 2.1 2.1 0 0 0 1.3.3Zm9.3-7.3V36h-4.2v-1Zm-3-1.9h1.3v7.8a1.5 1.5 0 0 0 .2.8.8.8 0 0 0 .3.3 1.6 1.6 0 0 0 .6.1h.5l.3 1.1-.4.1a2.8 2.8 0 0 1-.5 0 2.5 2.5 0 0 1-1-.2 2.1 2.1 0 0 1-.9-.7 2 2 0 0 1-.3-1.2Zm5 10.1V35h1.2v8Zm.5-9.5a1 1 0 0 1-.6-.3.8.8 0 0 1-.2-.5.8.8 0 0 1 .2-.6 1 1 0 0 1 .6-.3.8.8 0 0 1 .7.3.8.8 0 0 1 .2.5.8.8 0 0 1-.2.6.9.9 0 0 1-.6.3Zm6.3 9.7a3.5 3.5 0 0 1-3.3-2 5 5 0 0 1-.4-2.2 5 5 0 0 1 .4-2.3 3.5 3.5 0 0 1 1.3-1.4 3.9 3.9 0 0 1 3.9 0 3.5 3.5 0 0 1 1.3 1.5 5 5 0 0 1 .5 2.2 5 5 0 0 1-.5 2.2 3.5 3.5 0 0 1-3.2 2Zm0-1.2a2.1 2.1 0 0 0 1.3-.4 2.4 2.4 0 0 0 .8-1.1 4.3 4.3 0 0 0 .3-1.5 4.4 4.4 0 0 0-.3-1.6 2.5 2.5 0 0 0-.8-1 2.4 2.4 0 0 0-2.7 0 2.5 2.5 0 0 0-.8 1 4.4 4.4 0 0 0-.3 1.6 4.3 4.3 0 0 0 .3 1.5 2.4 2.4 0 0 0 .8 1.1 2.1 2.1 0 0 0 1.4.5Zm6.8-3.9v4.9h-1.2V35h1.2v1.2a2.3 2.3 0 0 1 1-1 2.6 2.6 0 0 1 1.5-.3 3 3 0 0 1 1.4.3 2.3 2.3 0 0 1 1 1 3.8 3.8 0 0 1 .4 1.7v5.2h-1.3v-5a2.1 2.1 0 0 0-.5-1.6 1.8 1.8 0 0 0-1.4-.5 2.1 2.1 0 0 0-1 .3 2 2 0 0 0-.8.7 2.5 2.5 0 0 0-.3 1.2ZM80.7 74.8a3.4 3.4 0 0 1-1.4-.3 2.4 2.4 0 0 1-1.4-2.3 2.1 2.1 0 0 1 .3-1 2 2 0 0 1 .7-.8 3.5 3.5 0 0 1 1-.4 10.5 10.5 0 0 1 1.1 0l1.2-.2a1.8 1.8 0 0 0 .7-.2.4.4 0 0 0 .2-.4 1.7 1.7 0 0 0-.4-1.3 1.7 1.7 0 0 0-1.3-.4 2.3 2.3 0 0 0-1.4.3 2.2 2.2 0 0 0-.7.9l-1.2-.4A2.8 2.8 0 0 1 79 67a3 3 0 0 1 1.2-.6 4.8 4.8 0 0 1 1.2-.1 4.6 4.6 0 0 1 1 0 2.8 2.8 0 0 1 1 .4 2.3 2.3 0 0 1 .7.9 3.3 3.3 0 0 1 .3 1.5v5.4h-1.3v-1.1a2.3 2.3 0 0 1-.4.6 2.6 2.6 0 0 1-.8.5 3 3 0 0 1-1.2.3Zm.2-1.2a2.4 2.4 0 0 0 1.2-.3 2 2 0 0 0 .8-.7 1.9 1.9 0 0 0 .2-1v-1.2a.8.8 0 0 1-.3.2 6 6 0 0 1-.6.1l-.7.1H81a4.6 4.6 0 0 0-1 .3 1.5 1.5 0 0 0-.6.4 1 1 0 0 0-.3.8 1.1 1.1 0 0 0 .5 1 2.2 2.2 0 0 0 1.3.3Zm7-4v5h-1.2v-8.2h1.2v1.2h.1a2.4 2.4 0 0 1 .9-1 2.6 2.6 0 0 1 1.5-.3 3 3 0 0 1 1.4.3 2.3 2.3 0 0 1 1 1 3.8 3.8 0 0 1 .4 1.7v5.2h-1.3v-5a2.1 2.1 0 0 0-.5-1.6 1.8 1.8 0 0 0-1.4-.5 2.1 2.1 0 0 0-1 .2 2 2 0 0 0-.8.8 2.5 2.5 0 0 0-.3 1.2Zm10.6 5a3.2 3.2 0 0 1-1.8-.4 3.4 3.4 0 0 1-1.2-1.4 5.9 5.9 0 0 1 0-4.5 3.4 3.4 0 0 1 1.2-1.5 3.3 3.3 0 0 1 1.8-.5 2.6 2.6 0 0 1 1.2.2 2 2 0 0 1 .7.6l.4.6h.1v-4h1.3v10.8H101v-1.2h-.1l-.5.5a2.5 2.5 0 0 1-.7.6 2.8 2.8 0 0 1-1.2.3Zm.1-1a2 2 0 0 0 1.3-.4 2.4 2.4 0 0 0 .8-1.1 4.5 4.5 0 0 0 .3-1.7 4.3 4.3 0 0 0-.3-1.6 2.3 2.3 0 0 0-.8-1 2 2 0 0 0-1.3-.4 2 2 0 0 0-1.3.4 2.4 2.4 0 0 0-.8 1 4.2 4.2 0 0 0-.2 1.6 4.5 4.5 0 0 0 .2 1.6 2.7 2.7 0 0 0 .8 1.1 2.1 2.1 0 0 0 1.4.5Zm10.4 1v-11h3.7a4.4 4.4 0 0 1 2.1.5 2.8 2.8 0 0 1 1.2 1.2 3.6 3.6 0 0 1 .4 1.7 3.6 3.6 0 0 1-.4 1.7 2.8 2.8 0 0 1-1.2 1.2 4.8 4.8 0 0 1-2 .4h-3V69h2.9a3.2 3.2 0 0 0 1.4-.3 1.6 1.6 0 0 0 .7-.7 2.3 2.3 0 0 0 .3-1.1 2.4 2.4 0 0 0-.3-1.2 1.7 1.7 0 0 0-.8-.7 3.1 3.1 0 0 0-1.4-.3h-2.3v9.7Zm5.2-5 2.6 5h-1.5l-2.6-5Zm7.6 5a4 4 0 0 1-2-.4 3.5 3.5 0 0 1-1.3-1.6 5 5 0 0 1-.5-2.1 5.1 5.1 0 0 1 .5-2.3 3.6 3.6 0 0 1 1.3-1.4 3.5 3.5 0 0 1 1.9-.6 3.9 3.9 0 0 1 1.2.2 3.1 3.1 0 0 1 1.2.7 3.3 3.3 0 0 1 .8 1.3 5.3 5.3 0 0 1 .3 1.9v.5h-6.3v-1h5a2.6 2.6 0 0 0-.3-1.3 2 2 0 0 0-2-1.2 2.3 2.3 0 0 0-1.2.4 2.4 2.4 0 0 0-.8 1 2.8 2.8 0 0 0-.3 1.3v.7a3.5 3.5 0 0 0 .3 1.6 2.3 2.3 0 0 0 .9 1 2.6 2.6 0 0 0 1.3.3 2.5 2.5 0 0 0 .9-.1 2 2 0 0 0 .7-.5 2 2 0 0 0 .4-.7l1.3.4a2.6 2.6 0 0 1-.7 1 3 3 0 0 1-1.1.8 4.2 4.2 0 0 1-1.5.2Zm11-6.4-1.2.3a1.8 1.8 0 0 0-.3-.5 1.7 1.7 0 0 0-.5-.5 2.4 2.4 0 0 0-2.2.2 1 1 0 0 0-.5.8 1 1 0 0 0 .4.8 3 3 0 0 0 1 .4l1.2.3a3.4 3.4 0 0 1 1.7.8 2 2 0 0 1 .5 1.4 2 2 0 0 1-.4 1.3 2.6 2.6 0 0 1-1.1.9 4.2 4.2 0 0 1-1.7.3 3.6 3.6 0 0 1-2-.6 2.4 2.4 0 0 1-1-1.5l1.1-.3a1.6 1.6 0 0 0 .7 1 2 2 0 0 0 1.2.3 2.3 2.3 0 0 0 1.4-.4 1 1 0 0 0 .5-.9 1 1 0 0 0-.3-.7 1.8 1.8 0 0 0-.9-.4l-1.3-.3a3.3 3.3 0 0 1-1.7-.8 2.1 2.1 0 0 1-.1-2.6 2.7 2.7 0 0 1 1-.8 3.7 3.7 0 0 1 1.6-.3 3 3 0 0 1 1.9.5 2.9 2.9 0 0 1 1 1.3Zm5.4 6.5a4 4 0 0 1-2-.5 3.6 3.6 0 0 1-1.3-1.5 5 5 0 0 1-.5-2.2 5 5 0 0 1 .5-2.2 3.6 3.6 0 0 1 1.3-1.5 3.4 3.4 0 0 1 2-.5 3.8 3.8 0 0 1 1.2.2 3 3 0 0 1 1 .7 3.5 3.5 0 0 1 1 1.2 5.3 5.3 0 0 1 .2 2v.5h-6.3v-1.2h5a2.6 2.6 0 0 0-.2-1.2 2 2 0 0 0-.8-.8 2.2 2.2 0 0 0-1.2-.4 2.3 2.3 0 0 0-1.3.4 2.5 2.5 0 0 0-.8 1 2.9 2.9 0 0 0-.3 1.3v.7a3.4 3.4 0 0 0 .3 1.6 2.2 2.2 0 0 0 .9 1 2.7 2.7 0 0 0 1.3.3 2.5 2.5 0 0 0 1-.1 2 2 0 0 0 .6-.5 2 2 0 0 0 .5-.7l1.2.4a2.6 2.6 0 0 1-.6 1 3 3 0 0 1-1.1.8 4.2 4.2 0 0 1-1.5.2Zm7.7 0a3.2 3.2 0 0 1-1.4-.3 2.5 2.5 0 0 1-1-.9 2.4 2.4 0 0 1-.4-1.3 2.1 2.1 0 0 1 .3-1.2 2 2 0 0 1 .7-.7 3.9 3.9 0 0 1 1-.3 10.7 10.7 0 0 1 1.1-.2l1.2-.2a1.8 1.8 0 0 0 .7-.1.4.4 0 0 0 .2-.5 1.6 1.6 0 0 0-.4-1.2 1.7 1.7 0 0 0-1.3-.4 2.2 2.2 0 0 0-1.4.4 2.4 2.4 0 0 0-.7.8l-1.2-.4a2.8 2.8 0 0 1 .9-1.2 3 3 0 0 1 1.1-.6 4.8 4.8 0 0 1 1.3-.1 4.6 4.6 0 0 1 .9 0 2.8 2.8 0 0 1 1 .4 2.3 2.3 0 0 1 .8 1 3 3 0 0 1 .3 1.5v5.3h-1.1v-1.1a2.4 2.4 0 0 1-.5.5 2.6 2.6 0 0 1-.8.6 3.1 3.1 0 0 1-1.2.2Zm.2-1.2a2.4 2.4 0 0 0 1.2-.2 2 2 0 0 0 .8-.8 2 2 0 0 0 .3-1v-1a.8.8 0 0 1-.4 0l-.5.3h-.7l-.5.1a4.9 4.9 0 0 0-1 .2 1.5 1.5 0 0 0-.6.4 1 1 0 0 0-.3.8 1.1 1.1 0 0 0 .5 1 2.2 2.2 0 0 0 1.2.3Zm5.8 1v-8.1h1.2v1.2a2 2 0 0 1 .9-1 2.4 2.4 0 0 1 1.3-.4h.7v1.3h-.3a3.8 3.8 0 0 0-.5 0 2.3 2.3 0 0 0-1 .2 2 2 0 0 0-.8.7 1.9 1.9 0 0 0-.2 1v5.2Zm8.6.2a3.4 3.4 0 0 1-3.2-2 5 5 0 0 1-.5-2.2 4.8 4.8 0 0 1 .5-2.2 3.6 3.6 0 0 1 1.3-1.5 3.5 3.5 0 0 1 1.9-.5 3.8 3.8 0 0 1 1.5.3 3 3 0 0 1 1.2.9 2.7 2.7 0 0 1 .5 1.3h-1.2a1.9 1.9 0 0 0-2-1.4 2.2 2.2 0 0 0-1.3.4 2.5 2.5 0 0 0-.9 1 3.8 3.8 0 0 0-.3 1.6 4.2 4.2 0 0 0 .3 1.7 2.6 2.6 0 0 0 .9 1 2.2 2.2 0 0 0 1.3.5 2 2 0 0 0 .9-.2 1.8 1.8 0 0 0 1-1.3h1.3a3 3 0 0 1-.6 1.3 2.8 2.8 0 0 1-1 1 3.5 3.5 0 0 1-1.5.2Zm6.3-5.1v4.9h-1.3V63.7h1.3v4h.1a2.3 2.3 0 0 1 .9-1 2.8 2.8 0 0 1 1.5-.4 3 3 0 0 1 1.5.3 2.3 2.3 0 0 1 1 1 3.8 3.8 0 0 1 .3 1.7v5.2H171v-5a2 2 0 0 0-.6-1.6 1.8 1.8 0 0 0-1.3-.5 2.2 2.2 0 0 0-1.1.2 1.9 1.9 0 0 0-.8.8 2.4 2.4 0 0 0-.2 1.2Z"/></g></g></svg>