<svg xmlns="http://www.w3.org/2000/svg" viewBox="0 0 182.99 52.01"><path d="M106.16,24.4a3.2,3.2,0,0,1-2.4,1,3.25,3.25,0,0,1-2.4-1,3.45,3.45,0,0,1-1-2.48,3.56,3.56,0,0,1,1-2.52,3.33,3.33,0,0,1,4.8,0,3.51,3.51,0,0,1,1,2.52A3.4,3.4,0,0,1,106.16,24.4Z" transform="translate(-0.01)" fill="#004087"/><path d="M112.26,15.26a3.19,3.19,0,0,1-2.39,1,3.25,3.25,0,0,1-2.4-1,3.4,3.4,0,0,1-1-2.47,3.55,3.55,0,0,1,1-2.52,3.3,3.3,0,0,1,4.79,0,3.46,3.46,0,0,1,1,2.52A3.36,3.36,0,0,1,112.26,15.26Z" transform="translate(-0.01)" fill="#00a0ae"/><path d="M118.63,24.4a3.18,3.18,0,0,1-2.39,1,3.24,3.24,0,0,1-2.4-1,3.42,3.42,0,0,1-1-2.48,3.57,3.57,0,0,1,1-2.52,3.32,3.32,0,0,1,4.79,0,3.52,3.52,0,0,1,1,2.52A3.41,3.41,0,0,1,118.63,24.4Z" transform="translate(-0.01)" fill="#004087"/><path d="M131.15,24.4a3.33,3.33,0,0,1-4.8,0,3.42,3.42,0,0,1-1-2.48,3.57,3.57,0,0,1,1-2.52,3.2,3.2,0,0,1,2.4-1,3.25,3.25,0,0,1,2.4,1,3.51,3.51,0,0,1,1,2.52A3.4,3.4,0,0,1,131.15,24.4Z" transform="translate(-0.01)" fill="#00a0ae"/><path d="M131.15,6a3.33,3.33,0,0,1-4.8,0,3.4,3.4,0,0,1-1-2.47,3.55,3.55,0,0,1,1-2.52,3.31,3.31,0,0,1,4.8,0,3.49,3.49,0,0,1,1,2.52A3.39,3.39,0,0,1,131.15,6Z" transform="translate(-0.01)" fill="#00a0ae"/><path d="M124.92,15.26a3.31,3.31,0,0,1-4.8,0,3.4,3.4,0,0,1-1-2.47,3.55,3.55,0,0,1,1-2.52,3.21,3.21,0,0,1,2.4-1,3.26,3.26,0,0,1,2.4,1,3.49,3.49,0,0,1,1,2.52A3.39,3.39,0,0,1,124.92,15.26Z" transform="translate(-0.01)" fill="#00a0ae"/><path d="M143.86,24.4a3.33,3.33,0,0,1-4.8,0,3.42,3.42,0,0,1-1-2.48,3.57,3.57,0,0,1,1-2.52,3.2,3.2,0,0,1,2.4-1,3.25,3.25,0,0,1,2.4,1,3.51,3.51,0,0,1,1,2.52A3.4,3.4,0,0,1,143.86,24.4Z" transform="translate(-0.01)" fill="#00a0ae"/><path d="M137.43,15.26a3.31,3.31,0,0,1-4.8,0,3.4,3.4,0,0,1-1-2.47,3.55,3.55,0,0,1,1-2.52,3.21,3.21,0,0,1,2.4-1,3.26,3.26,0,0,1,2.4,1,3.49,3.49,0,0,1,1,2.52A3.39,3.39,0,0,1,137.43,15.26Z" transform="translate(-0.01)" fill="#00a0ae"/><path d="M156.57,24.4a3.18,3.18,0,0,1-2.39,1,3.24,3.24,0,0,1-2.4-1,3.42,3.42,0,0,1-1-2.48,3.57,3.57,0,0,1,1-2.52,3.32,3.32,0,0,1,4.79,0,3.48,3.48,0,0,1,1,2.52A3.37,3.37,0,0,1,156.57,24.4Z" transform="translate(-0.01)" fill="#00a0ae"/><path d="M156.57,6a3.18,3.18,0,0,1-2.39,1,3.24,3.24,0,0,1-2.4-1,3.4,3.4,0,0,1-1-2.47,3.55,3.55,0,0,1,1-2.52,3.3,3.3,0,0,1,4.79,0,3.46,3.46,0,0,1,1,2.52A3.36,3.36,0,0,1,156.57,6Z" transform="translate(-0.01)" fill="#88c152"/><path d="M150.15,15.26a3.31,3.31,0,0,1-4.8,0,3.4,3.4,0,0,1-1-2.47,3.55,3.55,0,0,1,1-2.52,3.21,3.21,0,0,1,2.4-1,3.26,3.26,0,0,1,2.4,1,3.49,3.49,0,0,1,1,2.52A3.39,3.39,0,0,1,150.15,15.26Z" transform="translate(-0.01)" fill="#00a0ae"/><path d="M162.86,15.26a3.31,3.31,0,0,1-4.8,0,3.39,3.39,0,0,1-1-2.47,3.54,3.54,0,0,1,1-2.52,3.21,3.21,0,0,1,2.4-1,3.26,3.26,0,0,1,2.4,1,3.49,3.49,0,0,1,1,2.52A3.39,3.39,0,0,1,162.86,15.26Z" transform="translate(-0.01)" fill="#88c152"/><path d="M169.29,24.4a3.33,3.33,0,0,1-4.8,0,3.42,3.42,0,0,1-1-2.48,3.57,3.57,0,0,1,1-2.52,3.2,3.2,0,0,1,2.4-1,3.25,3.25,0,0,1,2.4,1,3.51,3.51,0,0,1,1,2.52A3.4,3.4,0,0,1,169.29,24.4Z" transform="translate(-0.01)" fill="#88c152"/><path d="M175.58,15.26a3.31,3.31,0,0,1-4.8,0,3.4,3.4,0,0,1-1-2.47,3.55,3.55,0,0,1,1-2.52,3.21,3.21,0,0,1,2.4-1,3.26,3.26,0,0,1,2.4,1,3.49,3.49,0,0,1,1,2.52A3.39,3.39,0,0,1,175.58,15.26Z" transform="translate(-0.01)" fill="#88c152"/><path d="M182,6a3.33,3.33,0,0,1-4.8,0,3.4,3.4,0,0,1-1-2.47,3.55,3.55,0,0,1,1-2.52A3.31,3.31,0,0,1,182,1a3.49,3.49,0,0,1,1,2.52A3.39,3.39,0,0,1,182,6Z" transform="translate(-0.01)" fill="#88c152"/><path d="M6,22.93a2.77,2.77,0,0,0,1-1.16,3.54,3.54,0,0,0,.38-1.67,3.59,3.59,0,0,0-.38-1.66,2.87,2.87,0,0,0-1-1.15,2.74,2.74,0,0,0-1.51-.42,2.71,2.71,0,0,0-1.5.42,2.9,2.9,0,0,0-1,1.16,3.48,3.48,0,0,0-.38,1.64A3.61,3.61,0,0,0,2,21.74,2.84,2.84,0,0,0,3,22.9a2.73,2.73,0,0,0,1.5.42A2.78,2.78,0,0,0,6,22.91m2.76-7.26a.84.84,0,0,1,.24.62V24a4.39,4.39,0,0,1-.6,2.37,3.59,3.59,0,0,1-1.63,1.4,5.51,5.51,0,0,1-2.31.45,6.62,6.62,0,0,1-1.63-.24,2.87,2.87,0,0,1-1.19-.51.82.82,0,0,1-.55-.7,1,1,0,0,1,.07-.28A.67.67,0,0,1,1.83,26a1.37,1.37,0,0,1,.49.11,6.53,6.53,0,0,0,2.17.54A3,3,0,0,0,6.62,26a2.33,2.33,0,0,0,.75-1.84V23.2a3.17,3.17,0,0,1-1.23,1.17,3.58,3.58,0,0,1-1.82.49,4.06,4.06,0,0,1-2.19-.61,4.28,4.28,0,0,1-1.56-1.7,5.64,5.64,0,0,1,0-4.9A4.25,4.25,0,0,1,2.12,16a4,4,0,0,1,2.17-.61,3.75,3.75,0,0,1,1.78.43,3.87,3.87,0,0,1,1.3,1.07v-.56a.87.87,0,0,1,.23-.61.79.79,0,0,1,.6-.25.81.81,0,0,1,.6.24" transform="translate(-0.01)" fill="#00a0ae"/><path d="M17.66,15.57a.71.71,0,0,1,.34.59.86.86,0,0,1-.22.63.69.69,0,0,1-.53.22,1.59,1.59,0,0,1-.46-.1,1.82,1.82,0,0,0-.57-.13,1.77,1.77,0,0,0-1.06.38,2.76,2.76,0,0,0-.83,1A3.19,3.19,0,0,0,14,19.65v4.2a.77.77,0,0,1-.24.59.79.79,0,0,1-.6.25.78.78,0,0,1-.59-.24.85.85,0,0,1-.23-.61V16.37a.85.85,0,0,1,.24-.59.78.78,0,0,1,.58-.24.82.82,0,0,1,.84.83v.89a3.31,3.31,0,0,1,1.15-1.39,3.18,3.18,0,0,1,1.74-.55,1.34,1.34,0,0,1,.79.24" transform="translate(-0.01)" fill="#00a0ae"/><path d="M22.07,17.43a2.69,2.69,0,0,0-.94,1.7h5.13V19a2.15,2.15,0,0,0-.82-1.52,2.67,2.67,0,0,0-1.68-.59,2.75,2.75,0,0,0-1.69.56m5.7,2.87a.82.82,0,0,1-.57.22H21.07a3,3,0,0,0,1,2,2.9,2.9,0,0,0,2.06.77,3.27,3.27,0,0,0,1.36-.25,3.46,3.46,0,0,0,.92-.62.93.93,0,0,1,.51-.16.64.64,0,0,1,.49.21.67.67,0,0,1,.2.49.89.89,0,0,1-.35.67,4.12,4.12,0,0,1-1.33.85,4.48,4.48,0,0,1-1.71.36,5.08,5.08,0,0,1-2.48-.59,4.23,4.23,0,0,1-1.66-1.67,5,5,0,0,1-.58-2.41,5.3,5.3,0,0,1,.6-2.57A4.34,4.34,0,0,1,21.65,16a4.09,4.09,0,0,1,4.2,0,4.35,4.35,0,0,1,1.57,1.59A4.56,4.56,0,0,1,28,19.79.75.75,0,0,1,27.77,20.31Z" transform="translate(-0.01)" fill="#00a0ae"/><path d="M32.86,17.43a2.69,2.69,0,0,0-.94,1.7h5.13V19a2.15,2.15,0,0,0-.82-1.52,2.67,2.67,0,0,0-1.68-.59,2.73,2.73,0,0,0-1.69.56m5.7,2.87a.83.83,0,0,1-.57.22H31.86a3,3,0,0,0,1,2,2.9,2.9,0,0,0,2.06.77,3.27,3.27,0,0,0,1.36-.25,3.46,3.46,0,0,0,.92-.62.92.92,0,0,1,.5-.16.66.66,0,0,1,.5.21.67.67,0,0,1,.2.49.89.89,0,0,1-.35.67,4.06,4.06,0,0,1-1.34.85,4.48,4.48,0,0,1-1.71.36,5.11,5.11,0,0,1-2.48-.59,4.14,4.14,0,0,1-1.65-1.67,4.92,4.92,0,0,1-.59-2.41,5.3,5.3,0,0,1,.6-2.57A4.34,4.34,0,0,1,32.43,16a4.09,4.09,0,0,1,4.2,0,4.35,4.35,0,0,1,1.57,1.59,4.56,4.56,0,0,1,.61,2.27.75.75,0,0,1-.26.52" transform="translate(-0.01)" fill="#00a0ae"/><path d="M49.38,19.11v4.75a.85.85,0,0,1-.24.59.81.81,0,0,1-.6.24.78.78,0,0,1-.59-.24.81.81,0,0,1-.24-.59V19.13a2.56,2.56,0,0,0-.47-1.64,1.79,1.79,0,0,0-1.53-.61,2.66,2.66,0,0,0-1.26.3,2.43,2.43,0,0,0-.89.82,2.15,2.15,0,0,0-.32,1.13v4.73a.77.77,0,0,1-.24.59.87.87,0,0,1-1.19,0,.85.85,0,0,1-.23-.61V16.38a.81.81,0,0,1,.24-.59.78.78,0,0,1,.58-.25.84.84,0,0,1,.84.84V17a3.77,3.77,0,0,1,1.26-1.18,3.37,3.37,0,0,1,1.73-.48q3.14,0,3.14,3.77" transform="translate(-0.01)" fill="#00a0ae"/><path d="M63.71,22.92a2.89,2.89,0,0,0,1-1.16,3.71,3.71,0,0,0,.36-1.66,3.67,3.67,0,0,0-.36-1.65,2.89,2.89,0,0,0-1-1.16,2.75,2.75,0,0,0-2.92,0,2.89,2.89,0,0,0-1,1.16,4,4,0,0,0,0,3.31,3,3,0,0,0,1,1.16,2.68,2.68,0,0,0,1.46.42A2.6,2.6,0,0,0,63.71,22.92ZM66.4,12a.82.82,0,0,1,.24.61V23.86a.82.82,0,0,1-.84.83.75.75,0,0,1-.59-.23.85.85,0,0,1-.23-.61v-.49a3.51,3.51,0,0,1-1.23,1.07,3.46,3.46,0,0,1-1.7.43,3.87,3.87,0,0,1-2.14-.61,4.24,4.24,0,0,1-1.51-1.7,5.35,5.35,0,0,1-.56-2.45,5.48,5.48,0,0,1,.55-2.45A4.16,4.16,0,0,1,59.9,16,3.8,3.8,0,0,1,62,15.34a3.89,3.89,0,0,1,1.7.38,3.54,3.54,0,0,1,1.27,1V12.61a.85.85,0,0,1,.23-.6.78.78,0,0,1,.6-.24.81.81,0,0,1,.6.24" transform="translate(-0.01)" fill="#00a0ae"/><path d="M72,17.43a2.78,2.78,0,0,0-.94,1.7H76.2V19a2.15,2.15,0,0,0-.82-1.52,2.65,2.65,0,0,0-1.68-.59,2.75,2.75,0,0,0-1.69.56m5.7,2.87a.83.83,0,0,1-.57.22H71a3,3,0,0,0,1,2,2.9,2.9,0,0,0,2.06.77,3.27,3.27,0,0,0,1.36-.25,3.46,3.46,0,0,0,.92-.62.92.92,0,0,1,.5-.16.66.66,0,0,1,.5.21.67.67,0,0,1,.2.49.89.89,0,0,1-.35.67,4.12,4.12,0,0,1-1.33.85,4.48,4.48,0,0,1-1.71.36,5.08,5.08,0,0,1-2.48-.59A4.23,4.23,0,0,1,70,22.63a5,5,0,0,1-.58-2.41,5.3,5.3,0,0,1,.6-2.57A4.34,4.34,0,0,1,71.59,16a4.09,4.09,0,0,1,4.2,0,4.35,4.35,0,0,1,1.57,1.59A4.56,4.56,0,0,1,78,19.79.75.75,0,0,1,77.71,20.31Z" transform="translate(-0.01)" fill="#00a0ae"/><path d="M86.12,22.92a2.91,2.91,0,0,0,1-1.16,3.85,3.85,0,0,0,.35-1.66,3.73,3.73,0,0,0-.35-1.64,3,3,0,0,0-1-1.16,2.48,2.48,0,0,0-1.45-.43,2.58,2.58,0,0,0-1.46.42,2.85,2.85,0,0,0-1,1.15,4,4,0,0,0,0,3.32,2.88,2.88,0,0,0,1,1.16,2.66,2.66,0,0,0,1.46.42A2.55,2.55,0,0,0,86.12,22.92Zm2.7-7.25a.86.86,0,0,1,.23.62v7.57a.84.84,0,0,1-.23.59.82.82,0,0,1-.61.24.78.78,0,0,1-.59-.23.85.85,0,0,1-.23-.61V23.4a3.74,3.74,0,0,1-1.23,1,3.43,3.43,0,0,1-1.69.43,4,4,0,0,1-2.14-.61,4.19,4.19,0,0,1-1.52-1.7,5.73,5.73,0,0,1,0-4.9A4.17,4.17,0,0,1,82.32,16a3.82,3.82,0,0,1,2.11-.61,3.93,3.93,0,0,1,1.71.38,3.51,3.51,0,0,1,1.27,1v-.42a.85.85,0,0,1,.23-.62.75.75,0,0,1,.59-.24.8.8,0,0,1,.6.24" transform="translate(-0.01)" fill="#00a0ae"/><path d="M93.92,24.46a.81.81,0,0,1-.59.24.82.82,0,0,1-.59-.24.84.84,0,0,1-.23-.59V12.63a.85.85,0,0,1,.24-.6.82.82,0,0,1,.59-.25.76.76,0,0,1,.58.25.81.81,0,0,1,.24.6V23.87a.81.81,0,0,1-.24.59" transform="translate(-0.01)" fill="#00a0ae"/><path d="M19.79,32.32h3.75V44c0,7.27-4.09,8-12.48,8-6.95,0-10-1.28-10-7.95V32.33H5V44.2c0,3.71,1.66,4.59,6.77,4.59,5.52,0,8-.68,8-4.59V32.33Z" transform="translate(-0.01)" fill="#004087"/><path d="M47.4,51.59a85.85,85.85,0,0,1-8.84-10.25l-7.45,5.22v5H27.35V32.31h3.76V42.62L45.86,32.31h5.19l-9.67,6.84A106.07,106.07,0,0,0,52.12,51.59Z" transform="translate(-0.01)" fill="#004087"/><path d="M58.14,35.45V41.8H69.77c2.38,0,4.34-.51,4.34-3.33,0-2-1.41-3-3.65-3ZM73.88,51.6a17.53,17.53,0,0,1-4.75-6.77h-11V51.6H54.39V32.32H70.51c5.11,0,7.57,2.39,7.57,6.1A5.7,5.7,0,0,1,73,44.48a19.62,19.62,0,0,0,5.5,7.12Z" transform="translate(-0.01)" fill="#004087"/><path d="M94.59,35.28H90.51l-3.45,8.23h11Zm6.72,16.31-2.13-5.15H86L83.8,51.59H79.61L88,32.31h9.08l8.4,19.28h-4.18Z" transform="translate(-0.01)" fill="#004087"/><path d="M137.69,51.59V47.24L120,35.87V51.59h-3.75V32.31h4.94l16.51,10.57V32.31h3.79V51.59Z" transform="translate(-0.01)" fill="#004087"/><path d="M158.82,35.28h-4.08l-3.45,8.23h11Zm6.72,16.31-2.13-5.15H150.18L148,51.59h-4.2l8.4-19.28h9.09l8.4,19.28Z" transform="translate(-0.01)" fill="#004087"/><path d="M108,51.58V28.92s0-2.71,1.89-2.71,1.9,2.71,1.9,2.71V51.58H108Z" transform="translate(-0.01)" fill="#004087"/></svg>