<svg xmlns="http://www.w3.org/2000/svg" width="65" height="65" viewBox="0 0 65 65" fill="#ffffff"><path d="m20.69,35.28c.92,0,1.8-.37,2.46-1.02.65-.65,1.02-1.53,1.02-2.46s-.37-1.8-1.02-2.46c-.65-.65-1.53-1.02-2.46-1.02s-1.8.37-2.46,1.02c-.65.65-1.02,1.53-1.02,2.46s.37,1.8,1.02,2.46,1.53,1.02,2.46,1.02Zm15.28-3.47c0,.92-.37,1.8-1.02,2.46-.65.65-1.53,1.02-2.46,1.02s-1.8-.37-2.46-1.02c-.65-.65-1.02-1.53-1.02-2.46s.37-1.8,1.02-2.46,1.53-1.02,2.46-1.02,1.8.37,2.46,1.02,1.02,1.53,1.02,2.46Zm8.33,3.47c.92,0,1.8-.37,2.46-1.02s1.02-1.53,1.02-2.46-.37-1.8-1.02-2.46c-.65-.65-1.53-1.02-2.46-1.02s-1.8.37-2.46,1.02c-.65.65-1.02,1.53-1.02,2.46s.37,1.8,1.02,2.46,1.53,1.02,2.46,1.02Zm-20.14,7.64c0,.92-.37,1.8-1.02,2.46-.65.65-1.53,1.02-2.46,1.02s-1.8-.37-2.46-1.02c-.65-.65-1.02-1.53-1.02-2.46s.37-1.8,1.02-2.46c.65-.65,1.53-1.02,2.46-1.02s1.8.37,2.46,1.02c.65.65,1.02,1.53,1.02,2.46Zm8.33,3.47c.92,0,1.8-.37,2.46-1.02.65-.65,1.02-1.53,1.02-2.46s-.37-1.8-1.02-2.46-1.53-1.02-2.46-1.02-1.8.37-2.46,1.02-1.02,1.53-1.02,2.46.37,1.8,1.02,2.46c.65.65,1.53,1.02,2.46,1.02ZM7.5,16.18c0-2.3.91-4.51,2.54-6.14,1.63-1.63,3.84-2.54,6.14-2.54h32.64c2.3,0,4.51.91,6.14,2.54,1.63,1.63,2.54,3.84,2.54,6.14v32.64c0,2.3-.91,4.51-2.54,6.14-1.63,1.63-3.84,2.54-6.14,2.54H16.18c-2.3,0-4.51-.91-6.14-2.54-1.63-1.63-2.54-3.84-2.54-6.14V16.18Zm8.68-5.21c-1.38,0-2.71.55-3.68,1.53-.98.98-1.53,2.3-1.53,3.68v2.43h43.06v-2.43c0-1.38-.55-2.71-1.53-3.68-.98-.98-2.3-1.53-3.68-1.53,0,0-32.64,0-32.64,0Zm-5.21,37.85c0,1.38.55,2.71,1.53,3.68.98.98,2.3,1.53,3.68,1.53h32.64c1.38,0,2.71-.55,3.68-1.53.98-.98,1.53-2.3,1.53-3.68v-26.74H10.97s0,26.74,0,26.74Z"/></svg>