<svg xmlns="http://www.w3.org/2000/svg" width="65" height="65" viewBox="0 0 65 65" fill="#ffffff"><path d="m6.36,55.83c-1.53,0-2.8-.51-3.82-1.54-1.02-1.03-1.54-2.31-1.54-3.85V17.88c0-1.53.51-2.81,1.54-3.84,1.02-1.03,2.29-1.54,3.82-1.54h14.54v-4.61c0-1.53.51-2.81,1.54-3.84,1.02-1.03,2.29-1.54,3.82-1.54h9.18c1.53,0,2.8.51,3.82,1.54,1.02,1.02,1.54,2.31,1.54,3.84v4.61h14.54c1.53,0,2.8.51,3.82,1.54,1.02,1.02,1.54,2.31,1.54,3.84v14c-.52-.33-1.05-.63-1.58-.88s-1.1-.48-1.72-.7v-12.42c0-.6-.19-1.09-.57-1.48-.38-.38-.87-.58-1.47-.57H6.36c-.59,0-1.08.2-1.47.58-.38.38-.57.88-.57,1.48v32.57c0,.6.19,1.09.57,1.48s.87.58,1.47.58h24.74c.13.61.26,1.18.39,1.72.14.53.31,1.07.51,1.61H6.36v-.03ZM24.21,12.5h13.26v-4.61c0-.6-.19-1.09-.57-1.48-.38-.38-.87-.58-1.47-.58h-9.18c-.59,0-1.08.2-1.47.58-.38.38-.57.88-.57,1.48,0,0,0,4.61,0,4.61Zm26.53,50c-3.69,0-6.83-1.29-9.4-3.88-2.58-2.59-3.86-5.74-3.86-9.45s1.29-6.87,3.86-9.45c2.57-2.59,5.71-3.89,9.4-3.88,3.69,0,6.83,1.29,9.4,3.88,2.58,2.59,3.86,5.74,3.86,9.45s-1.29,6.87-3.86,9.45c-2.57,2.59-5.71,3.89-9.4,3.88Zm1.28-13.87v-9.08h-2.55v10.16l6.74,6.78,1.81-1.82-6-6.04Z"/></svg>