<svg xmlns="http://www.w3.org/2000/svg" width="408" height="271" fill="none" viewBox="0 0 408 271"><path fill="#fff" d="M.5 0h407v271H.5z"/><path fill="#1D1D1B" d="M331.1 217.2H78c-.8 0-1.4.7-1.4 1.4 0 .8.6 1.4 1.4 1.4h253c.8 0 1.4-.6 1.4-1.4 0-.7-.6-1.4-1.4-1.4Zm-237.8-9.8h222.4c.8 0 1.4-.6 1.4-1.4 0-.7-.6-1.3-1.4-1.3h-90.3v-9.4h79c.8 0 1.4-.6 1.4-1.4 0-.8-.6-1.4-1.3-1.4h-79v-2h79c.7 0 1.3-.6 1.3-1.3 0-.8-.6-1.4-1.3-1.4h-79v-2.6H262c.8 0 1.4-.6 1.4-1.4 0-.8-.6-1.4-1.4-1.4h-27V149c0-.4-.2-.8-.4-1v-3.7c0-.8-.7-1.4-1.4-1.4-.8 0-1.4.6-1.4 1.4v3.3H230v-3.3c0-.8-.6-1.4-1.4-1.4-.7 0-1.3.6-1.3 1.4v3.3h-1v-3.3c0-.8-.7-1.4-1.4-1.4-.8 0-1.4.6-1.4 1.4v3.3h-2V95.8c0-.7-.6-1.3-1.4-1.3-.8 0-1.4.6-1.4 1.3v5.6h-2.6v-5.6c0-.7-.6-1.3-1.4-1.3-.7 0-1.4.6-1.4 1.3v5.6h-.7V82.9c0-.8-.6-1.4-1.4-1.4h-1.5V78c0-.6-.5-1.2-1.1-1.3l.2-.4c.3-.5.2-1-.2-1.5l-1-1.1c.4-.5.8-1 .8-1.7 0-.8-.4-1.4-1-1.9l-.7-19.7a1.4 1.4 0 0 0-2.8 0l-.7 19.7c-.6.5-1 1.1-1 1.9 0 .6.3 1.2.7 1.6l-1 1.3a1.4 1.4 0 0 0 0 1.8c-.6.1-1 .7-1 1.3v3.6h-1.5c-.8 0-1.4.6-1.4 1.4v18.5h-.8v-5.6c0-.7-.6-1.4-1.4-1.4-.7 0-1.3.7-1.3 1.4v5.6h-2.7v-5.6c0-.7-.6-1.4-1.3-1.4-.8 0-1.4.7-1.4 1.4v51.8h-2.2v-3.3c0-.8-.7-1.4-1.4-1.4-.8 0-1.4.6-1.4 1.4v3.3h-1.7v-3.3c0-.8-.6-1.4-1.4-1.4-.7 0-1.3.6-1.3 1.4v3.3h-1v-3.3c0-.8-.7-1.4-1.4-1.4-.8 0-1.4.6-1.4 1.4v3.9l-.2.8v33.4h-27.2c-.8 0-1.4.6-1.4 1.4 0 .8.6 1.4 1.4 1.4H185v2.6h-80.6c-.7 0-1.3.6-1.3 1.4 0 .7.6 1.4 1.3 1.4h80.7v2h-80.7c-.7 0-1.3.5-1.3 1.3s.6 1.4 1.3 1.4h80.7v9.4H93.3c-.8 0-1.4.6-1.4 1.4 0 .7.6 1.3 1.4 1.3Zm85.2-57h12.8v3.6h-12.8v-3.6Zm40.2-34.9H215v-1.4h3.8v1.4Zm-6.5 0h-13.7v-1.4h13.7v1.4Zm-13.7 2.8h13.7V158h-13.7v-39.7Zm13.7-14.2v7.3h-13.7V104h13.7Zm-16.5 0v7.3h-3.8V104h3.8Zm-3.8 10h3.8v1.4h-3.8v-1.4Zm5.2 46.7h19.4v8.6h-1.6v-2.1c0-.8-.6-1.4-1.3-1.4-.8 0-1.4.6-1.4 1.4v2.1h-1v-2.1c0-.8-.7-1.4-1.4-1.4-.8 0-1.4.6-1.4 1.4v2.1h-1.8v-5.3c0-.7-.6-1.3-1.3-1.3-.8 0-1.4.6-1.4 1.3v5.3h-2.1v-2.1c0-.8-.6-1.4-1.4-1.4-.8 0-1.4.6-1.4 1.4v2.1h-1v-2.1c0-.8-.6-1.4-1.4-1.4-.8 0-1.4.6-1.4 1.4v2.1h-1.1v-8.6h3Zm22.2-10.4H232v3.6h-12.8v-3.6Zm-25.2 25v-3.2h22.4v3.2h-22.4Zm3.9 14.3v-1.2h14.6v1.2H198Zm8.3 2.8v12.2h-2v-12.2h2Zm2.8 0h2v12.2h-2v-12.2Zm-7.6 0v12.2h-2v-12.2h2Zm12.4 12.2v-12.2h.1c.8 0 1.4-.6 1.4-1.4v-4c0-.8-.6-1.4-1.4-1.4h-17.4c-.7 0-1.4.6-1.4 1.4v4c0 .8.7 1.4 1.4 1.4v12.2h-2.3l.1-26.5h22v26.5h-2.5Zm5.2 0 .2-26.5h3.4v26.5H219Zm5-29.3h-4.8v-18.6H232v25.6h-6.7v-5.6c0-.7-.6-1.4-1.3-1.4Zm-6.2-27.8c-.8 0-1.4.6-1.4 1.4v9H215v-39.7h3.8v29.3h-.8Zm.8-36.2H215V104h3.8v7.3Zm-15-32h3.3v2.1h-3.3v-2.2Zm-1.4 4.9h7.5v6.2h-9v-6.2h1.5Zm-1.5 9h9v8h-9v-8Zm-9 25h3.9V158h-1.6v-9c0-.8-.6-1.4-1.4-1.4h-.8v-29.3Zm-13.3 64.1v-25.6h12.8v18.6h-4.7c-.8 0-1.4.7-1.4 1.4v5.6h-6.7Zm9.4 6.7v-10.9h3.6v26.5h-3.6v-15.5Z"/><path fill="#1D1D1B" d="M181.9 158c-.8 0-1.4.6-1.4 1.4v20.4c0 .8.6 1.4 1.4 1.4.8 0 1.4-.6 1.4-1.4v-20.4c0-.8-.7-1.4-1.4-1.4Zm5 16.2c.8 0 1.4-.6 1.4-1.4v-13.4c0-.8-.7-1.4-1.4-1.4-.8 0-1.4.6-1.4 1.4v13.4c0 .8.6 1.4 1.4 1.4Zm42 7c.8 0 1.4-.6 1.4-1.4v-20.4c0-.8-.7-1.4-1.4-1.4-.8 0-1.4.6-1.4 1.4v20.4c0 .7.6 1.4 1.4 1.4Zm-5-23.2c-.8 0-1.4.6-1.4 1.4v13.4c0 .8.6 1.4 1.4 1.4.8 0 1.4-.6 1.4-1.4v-13.4c0-.8-.7-1.4-1.4-1.4Zm-23.5 21.3c-.7 0-1.4.6-1.4 1.4v2.7c0 .7.7 1.3 1.4 1.3.8 0 1.4-.6 1.4-1.3v-2.7c0-.8-.6-1.4-1.4-1.4Zm5.2 0c-.8 0-1.4.6-1.4 1.4v2.7c0 .7.6 1.3 1.4 1.3.7 0 1.3-.6 1.3-1.3v-2.7c0-.8-.6-1.4-1.3-1.4Zm5.1 0c-.8 0-1.4.6-1.4 1.4v2.7c0 .7.6 1.3 1.4 1.3.8 0 1.4-.6 1.4-1.3v-2.7c0-.8-.6-1.4-1.4-1.4ZM117.3 201v-2.6c0-.8-.6-1.4-1.4-1.4-.8 0-1.4.6-1.4 1.4v2.7c0 .8.6 1.4 1.4 1.4.8 0 1.4-.7 1.4-1.4Zm118 0v-2.6c0-.8-.7-1.4-1.4-1.4-.8 0-1.4.6-1.4 1.4v2.7c0 .8.6 1.4 1.4 1.4.8 0 1.4-.7 1.4-1.4Zm-78 0v-2.6c0-.8-.7-1.4-1.4-1.4-.8 0-1.4.6-1.4 1.4v2.7c0 .8.6 1.4 1.4 1.4.8 0 1.4-.7 1.4-1.4Zm118 0v-2.6c0-.8-.7-1.4-1.4-1.4-.8 0-1.4.6-1.4 1.4v2.7c0 .8.6 1.4 1.4 1.4.8 0 1.4-.7 1.4-1.4Zm-98 0v-2.6c0-.8-.7-1.4-1.4-1.4-.8 0-1.4.6-1.4 1.4v2.7c0 .8.6 1.4 1.4 1.4.8 0 1.4-.7 1.4-1.4Zm118 0v-2.6c0-.8-.7-1.4-1.4-1.4-.8 0-1.4.6-1.4 1.4v2.7c0 .8.6 1.4 1.4 1.4.8 0 1.4-.7 1.4-1.4Zm-158 0v-2.6c0-.8-.7-1.4-1.4-1.4-.8 0-1.4.6-1.4 1.4v2.7c0 .8.6 1.4 1.4 1.4.8 0 1.4-.7 1.4-1.4Zm118 0v-2.6c0-.8-.7-1.4-1.4-1.4-.8 0-1.4.6-1.4 1.4v2.7c0 .8.6 1.4 1.4 1.4.8 0 1.4-.7 1.4-1.4Zm-52.4-81.8c-.8 0-1.4.6-1.4 1.4v34.3c0 .7.6 1.4 1.4 1.4.8 0 1.4-.7 1.4-1.4v-34.3c0-.8-.7-1.4-1.4-1.4Zm5 0c-.8 0-1.4.6-1.4 1.4v34.3c0 .7.6 1.4 1.4 1.4.8 0 1.4-.7 1.4-1.4v-34.3c0-.8-.7-1.4-1.4-1.4Z"/></svg>