<svg xmlns="http://www.w3.org/2000/svg" width="102" height="100" viewBox="0 0 102 100"><path d="M30.43,41.76a2,2,0,0,1,1.36.55,1.91,1.91,0,0,1,.57,1.35V46.2a18.1,18.1,0,0,0,1.42,7,18.34,18.34,0,0,0,4,6,18.64,18.64,0,0,0,6,4,18.86,18.86,0,0,0,14.26,0,18.64,18.64,0,0,0,6.05-4,18.34,18.34,0,0,0,4-6,18.1,18.1,0,0,0,1.42-7V43.66a1.91,1.91,0,0,1,.57-1.35,2,2,0,0,1,1.36-.55,2,2,0,0,1,1.37.55,1.9,1.9,0,0,1,.56,1.35V46.2a22,22,0,0,1-5.92,15,22.62,22.62,0,0,1-14.65,7.11V74.1a1.85,1.85,0,0,1-.57,1.34,1.93,1.93,0,0,1-2.72,0,1.85,1.85,0,0,1-.57-1.34V68.31A22.62,22.62,0,0,1,34.42,61.2a22,22,0,0,1-5.92-15V43.66a1.9,1.9,0,0,1,.56-1.35A2,2,0,0,1,30.43,41.76Z" fill="#fff" fill-rule="evenodd"/><path d="M51,24a14.9,14.9,0,0,0-10.45,4.27,14.52,14.52,0,0,0-4.33,10.32v7.6a14.53,14.53,0,0,0,4,10,14.95,14.95,0,0,0,20.18,1.3,14.49,14.49,0,0,0,5.27-9.37H53.58a1.93,1.93,0,0,1-1.37-.56,1.9,1.9,0,0,1,0-2.69,1.93,1.93,0,0,1,1.37-.56H65.79v-3.8H53.58a1.93,1.93,0,0,1-1.37-.56,1.9,1.9,0,0,1,0-2.69,1.93,1.93,0,0,1,1.37-.56H65.66a14.46,14.46,0,0,0-4.91-9.06A14.9,14.9,0,0,0,51,24Z" fill="#72c6ef" opacity="0.45" style="isolation:isolate"/><path d="M51.64,46.2a1.92,1.92,0,0,0,1.93,1.9H65.66l.13-3.81H53.57a1.93,1.93,0,0,0-1.93,1.91Zm0-7.61a1.92,1.92,0,0,0,1.93,1.9H65.79l-.13-3.81H53.57a1.93,1.93,0,0,0-1.93,1.91Z" fill="#fff"/></svg>