<svg xmlns="http://www.w3.org/2000/svg" width="295" height="197" fill="none" viewBox="0 0 295 197"><path fill="#fff" d="M0 0h295v197H0z"/><g fill="#CBDB2A" opacity=".5"><path d="M142.4 67.1a27.6 27.6 0 0 1-27.5 27.6A27.4 27.4 0 0 1 87.4 67 27.6 27.6 0 0 1 115 39.6a27.4 27.4 0 0 1 27.5 27.5Z"/><path fill-rule="evenodd" d="M115 76.3a9.1 9.1 0 0 0 9-9.2 9.2 9.2 0 0 0-9-9.1 9.1 9.1 0 0 0-9.3 9.1 9.2 9.2 0 0 0 9.2 9.2Zm0 18.4A27.4 27.4 0 0 0 142.3 67a27.6 27.6 0 0 0-27.5-27.5A27.4 27.4 0 0 0 87.3 67 27.6 27.6 0 0 0 115 94.7Z" clip-rule="evenodd"/><path fill-rule="evenodd" d="M115.4 101.6a13.7 13.7 0 0 0-13.8 13.8V129a9.2 9.2 0 0 1-9.1 9.2 9.1 9.1 0 0 1-9.2-9.2v-13.7a32.2 32.2 0 0 1 32-32.2 32 32 0 0 1 32.1 32.2v4.5a9.2 9.2 0 0 1-9.1 9.2 9.1 9.1 0 0 1-9.2-9.2v-4.5a13.8 13.8 0 0 0-13.7-13.8Z" clip-rule="evenodd"/><path d="M169.8 67.1a27.6 27.6 0 0 0 27.5 27.6A27.4 27.4 0 0 0 224.8 67a27.6 27.6 0 0 0-27.5-27.5A27.4 27.4 0 0 0 169.8 67Z"/><path fill-rule="evenodd" d="M197.3 76.3a9.1 9.1 0 0 1-9.2-9.2 9.2 9.2 0 0 1 9.2-9.1 9.1 9.1 0 0 1 9.2 9.1 9.2 9.2 0 0 1-9.2 9.2Zm0 18.4A27.4 27.4 0 0 1 169.8 67a27.6 27.6 0 0 1 27.5-27.5A27.4 27.4 0 0 1 224.8 67a27.6 27.6 0 0 1-27.5 27.6Z" clip-rule="evenodd"/><path fill-rule="evenodd" d="M196.8 101.6a13.7 13.7 0 0 1 13.8 13.8V129a9.2 9.2 0 0 0 9.1 9.2 9.1 9.1 0 0 0 9.2-9.2v-13.7a32.2 32.2 0 0 0-32-32.2 32 32 0 0 0-32.1 32.2v4.5a9.2 9.2 0 0 0 9.2 9.2 9.1 9.1 0 0 0 9.1-9.2v-4.5a13.8 13.8 0 0 1 13.7-13.8Z" clip-rule="evenodd"/><path fill-rule="evenodd" d="M156.6 126.8a13.7 13.7 0 0 0-13.8 13.8v13.8a9.2 9.2 0 0 1-9.1 9.2 9.1 9.1 0 0 1-9.2-9.2v-13.8a32.2 32.2 0 0 1 32-32.1 32 32 0 0 1 32.1 32.1v13.8a9.2 9.2 0 0 1-9.2 9.2 9.1 9.1 0 0 1-9.1-9.2v-13.8a13.8 13.8 0 0 0-13.7-13.8Z" clip-rule="evenodd"/><path d="M183.6 92.4a27.6 27.6 0 0 1-27.5 27.5 27.4 27.4 0 0 1-27.5-27.5 27.6 27.6 0 0 1 27.5-27.5 27.4 27.4 0 0 1 27.5 27.5Z"/><path fill-rule="evenodd" d="M156.1 101.6a9.1 9.1 0 0 0 9.2-9.2 9.2 9.2 0 0 0-9.2-9.2 9.1 9.1 0 0 0-9.2 9.2 9.2 9.2 0 0 0 9.2 9.2Zm0 18.3a27.4 27.4 0 0 0 27.5-27.5A27.6 27.6 0 0 0 156 64.9a27.4 27.4 0 0 0-27.5 27.5 27.6 27.6 0 0 0 27.5 27.5Z" clip-rule="evenodd"/><path d="M92 101.6h45.8v36.7H92v-36.7Zm82.4 0h45.8v36.7h-45.8v-36.7Z"/><path d="M137.8 120h36.6l4.6 43.6h-45.8l4.6-43.7Z"/></g><path fill="#004087" fill-rule="evenodd" d="M98.9 78.6a18.3 18.3 0 0 0 18.3-18.3 18.4 18.4 0 0 0-18.3-18.4 18.3 18.3 0 0 0-18.3 18.4 18.4 18.4 0 0 0 18.3 18.3Zm0 9.2a27.4 27.4 0 0 0 27.5-27.5 27.6 27.6 0 0 0-27.5-27.6 27.4 27.4 0 0 0-27.5 27.6A27.6 27.6 0 0 0 99 87.8Z" clip-rule="evenodd"/><path fill="#004087" fill-rule="evenodd" d="M88.4 77.7a4.6 4.6 0 0 1 0 6.5l-3.1 3c-6 6-9.3 14.1-9.3 22.6v17a4.6 4.6 0 0 1-4.6 4.6 4.6 4.6 0 0 1-4.6-4.6v-17c0-10.9 4.4-21.3 12-29l3.1-3.1a4.6 4.6 0 0 1 6.5 0Zm108-2.8a4.6 4.6 0 0 0 0 6.5l3 3.1a31.9 31.9 0 0 1 9.3 22.5v19.8a4.6 4.6 0 0 0 4.6 4.6 4.6 4.6 0 0 0 4.6-4.6V107c0-10.8-4.3-21.3-12-29l-3-3a4.6 4.6 0 0 0-6.6 0Z" clip-rule="evenodd"/><path fill="#004087" fill-rule="evenodd" d="M181.3 78.6A18.3 18.3 0 0 1 163 60.3a18.4 18.4 0 0 1 18.3-18.4 18.3 18.3 0 0 1 18.3 18.4 18.4 18.4 0 0 1-18.3 18.3Zm0 9.2a27.4 27.4 0 0 1-27.5-27.5 27.6 27.6 0 0 1 27.5-27.6 27.4 27.4 0 0 1 27.4 27.6 27.6 27.6 0 0 1-27.4 27.5ZM140 117.6a22.9 22.9 0 0 0-23 23v12a4.6 4.6 0 0 1-4.5 4.5 4.6 4.6 0 0 1-4.6-4.6v-11.9a32.2 32.2 0 0 1 32-32.1 32 32 0 0 1 32.1 32.1v12a4.6 4.6 0 0 1-4.6 4.5 4.6 4.6 0 0 1-4.5-4.6v-11.9a23 23 0 0 0-23-23Z" clip-rule="evenodd"/><path fill="#004087" fill-rule="evenodd" d="M140 103.9a18.3 18.3 0 0 0 18.4-18.4A18.4 18.4 0 0 0 140 67.1a18.3 18.3 0 0 0-18.3 18.4A18.4 18.4 0 0 0 140 104Zm0 9.2a27.4 27.4 0 0 0 27.5-27.6A27.6 27.6 0 0 0 140.1 58a27.4 27.4 0 0 0-27.5 27.5 27.6 27.6 0 0 0 27.5 27.6Z" clip-rule="evenodd"/></svg>