<svg xmlns="http://www.w3.org/2000/svg" width="102" height="100" viewBox="0 0 102 100"><path d="M79.65,47.9a13.13,13.13,0,0,0-2.09-1.66,10,10,0,0,0,1-.84,10.76,10.76,0,0,0,3.2-7.7v-.2a10.76,10.76,0,0,0-3.2-7.7,11.43,11.43,0,0,0-7.8-3.2,10.27,10.27,0,0,0-4.2.8A11.47,11.47,0,0,0,63,29.8a14.23,14.23,0,0,0-2.4,3.6,11.82,11.82,0,0,0-.8,4.2v.1s0,.08,0,.12,0,.3,0,.46a11,11,0,0,0-5.52-1.48h0a11,11,0,0,0-5.48,1.47c0-.15,0-.3,0-.45s0-.08,0-.12v-.1a11.82,11.82,0,0,0-.8-4.2,14.23,14.23,0,0,0-2.4-3.6A11.35,11.35,0,0,0,42,27.4a10.27,10.27,0,0,0-4.2-.8A11.43,11.43,0,0,0,30,29.8a10.76,10.76,0,0,0-3.2,7.7s0,.07,0,.1,0,.07,0,.1A10.76,10.76,0,0,0,30,45.4a11.27,11.27,0,0,0,1,.84,13.13,13.13,0,0,0-2.09,1.66,12.77,12.77,0,0,0-3.8,9v5.5A3.67,3.67,0,0,0,29.57,66h12c0,.3-.05.6-.05.9v5.5a3.7,3.7,0,0,0,3.7,3.7,3.77,3.77,0,0,0,.83-.1H62.82a3.85,3.85,0,0,0,.83.1,3.7,3.7,0,0,0,3.7-3.7V66.9c0-.3,0-.6,0-.9H78.92a3.85,3.85,0,0,0,.83.1,3.7,3.7,0,0,0,3.7-3.7V56.9A12.77,12.77,0,0,0,79.65,47.9Z" fill="#72c6ef" opacity="0.45"/><path d="M74.15,42l-.86-.86a11,11,0,0,0,2.06-6.34,10.76,10.76,0,0,0-3.2-7.7,11.43,11.43,0,0,0-7.8-3.2,10.27,10.27,0,0,0-4.2.8,11.47,11.47,0,0,0-3.6,2.4,14.23,14.23,0,0,0-2.4,3.6,11.82,11.82,0,0,0-.8,4.2c0,.22,0,.45,0,.67a10.92,10.92,0,0,0-5.48-1.47h0a11.32,11.32,0,0,0-5.52,1.51c0-.24,0-.47,0-.71a11.82,11.82,0,0,0-.8-4.2,14.23,14.23,0,0,0-2.4-3.6,11.35,11.35,0,0,0-3.6-2.4,10.27,10.27,0,0,0-4.2-.8,11.43,11.43,0,0,0-7.8,3.2,10.57,10.57,0,0,0-3.2,7.7,11,11,0,0,0,3.2,7.7c.08.09.17.17.25.25l-.45.45a16,16,0,0,0-4.8,11.5v6.8a1.8,1.8,0,0,0,3.1,1.3,2.06,2.06,0,0,0,.5-1.3V54.7a12.62,12.62,0,0,1,3.7-9l.86-.86a10.26,10.26,0,0,0,4.64,1.06,11.82,11.82,0,0,0,4.2-.8,12.87,12.87,0,0,0,1.33-.69c0,.2,0,.39,0,.59a10.93,10.93,0,0,0,6.72,10.06A12.73,12.73,0,0,0,35.05,67v4.7a1.8,1.8,0,0,0,3.1,1.3,2.06,2.06,0,0,0,.5-1.3V67a9.16,9.16,0,0,1,2.7-6.5,9.35,9.35,0,0,1,6.5-2.7,10.17,10.17,0,0,1,3.7.7,12.09,12.09,0,0,1,3,2,9.91,9.91,0,0,1,2,3,8.42,8.42,0,0,1,.7,3.5v4.7a1.8,1.8,0,0,0,3.1,1.3,2.06,2.06,0,0,0,.5-1.3V67a12.77,12.77,0,0,0-3.8-9,13,13,0,0,0-4.89-3,11.2,11.2,0,0,0,3.49-2.3,10.76,10.76,0,0,0,3.2-7.7c0-.2,0-.4,0-.6a11.24,11.24,0,0,0,1.33.7,11.82,11.82,0,0,0,4.2.8,10.77,10.77,0,0,0,6.37-2.13l.83.83a14.22,14.22,0,0,1,2.8,4.1,13.21,13.21,0,0,1,1,4.8v7.9a2.12,2.12,0,0,0,.5,1.3A1.8,1.8,0,0,0,79,61.4V53.5A16,16,0,0,0,74.15,42Zm-42.8.2a7,7,0,0,1-5.2-2.1A7.42,7.42,0,0,1,24,34.9v0a7.35,7.35,0,0,1,7.4-7.28,7.18,7.18,0,0,1,5.2,2.1l.15.15a7.25,7.25,0,0,1-.15,10.25A7.8,7.8,0,0,1,31.35,42.2Zm21.7,8a7.8,7.8,0,0,1-5.2,2.1,7.57,7.57,0,0,1-5.2-2.1l-.15-.15a7.25,7.25,0,0,1,.15-10.25,7.57,7.57,0,0,1,5.2-2.1,7.18,7.18,0,0,1,5.2,2.1l.15.15A7.25,7.25,0,0,1,53.05,50.2ZM69.7,40l-.15.15a7.14,7.14,0,0,1-5.2,2.1,7.8,7.8,0,0,1-5.2-2.1A7.25,7.25,0,0,1,59,29.85l.15-.15a7.18,7.18,0,0,1,5.2-2.1,7.8,7.8,0,0,1,5.2,2.1A7.25,7.25,0,0,1,69.7,40Z" fill="#fff" fill-rule="evenodd"/></svg>