<svg xmlns="http://www.w3.org/2000/svg" width="102" height="100" viewBox="0 0 102 100"><path d="M51,24A26,26,0,1,0,77,50,25.83,25.83,0,0,0,51,24Zm-.37,40.36a6.86,6.86,0,0,1-1,2.35,7.72,7.72,0,0,1-1.61,1,21,21,0,0,0-2.11,2.36,5,5,0,0,1-1.23,1.85A26.9,26.9,0,0,1,40,69.81c0-.25-.25-1.86-.25-2.11-.24-.74-.49-1.85-.74-2.6-.62-1.36-1.61-2.6-1.61-4.2,0-1.24.25-2.6-.49-3.6-1.12-1.36-3.22-1.36-4.21-2.1a11.69,11.69,0,0,1-4-4.21,4.55,4.55,0,0,1-.24-3.59A34.84,34.84,0,0,1,29.7,42c1.12-2.6,2.73-5.69,4.71-7.55a10.65,10.65,0,0,1,8.79-2.1,8.55,8.55,0,0,1,2.1,1.36,3.66,3.66,0,0,1,1.24,2.1c0,.25,0,.25-.24.5a.94.94,0,0,1-.75.24,5.6,5.6,0,0,1-2.1-.24l-1-1c-1.61-.62-4,2.84-4.21,3.83-.37.75-.37,2.6,1,2.85.74,0,2.35-1.61,3.09-2.1.5-.25.75-.5,1.24-.75,2.11-.24,3.72,1.49,4.21,3.35.74,2.1-3.09,3.71-4.7,4.21-.62.24-.87-.25-1.37,0-1.23.49-2.84,2-2.84,3.59-.25,1.36-.25,2.6-.5,4-.25,0-.49,0-.49-.25v-.49c0-.87-.25-1.86-1-2.11-.25-.25-.25-.25-.5-.25-.74,0-1.61-.74-2.35-.24a3.32,3.32,0,0,0-1,2.1.89.89,0,0,0,.25.74c.61.25,1.11-.24,1.6,0,.5,0,.5.5.5.75.5.74,1.11,1.85,1.86,2.1h5.2a8.38,8.38,0,0,1,2.6,1c.24.62.24,1.12.49,1.61C46.91,60.52,48.4,60.52,50,61c.49.25.74.49.74,1A5,5,0,0,1,50.63,64.36ZM51.25,38H51c-.5-.49-.5-1.86-.5-2.6,0-1.24.75-2.1.5-3.34,0-.25-.25-2.35-.25-2.35-1.11-.38-2.1,0-1.85-1.37.24-.74,1.36-1,2.1-1a24.18,24.18,0,0,1,5.94.75c.5.24,1.86.49,2.11,1,.25.74-.5,1.85-.75,2.35a5,5,0,0,1-1.6,2.35,16.61,16.61,0,0,1-2.11,1.86c-.74.49-1.61,1.36-2.35,1.86C51.74,37.74,51.5,38,51.25,38ZM73,56.19C72.3,58.3,71.55,60.4,69.7,62a22.81,22.81,0,0,1-6,6.44c-.25-1-.74-2.35-1-3.59a15.48,15.48,0,0,1-1-3.1c-.25-.74-.25-2.1-1-2.85-.37-.49-.87-.49-1.36-.74-1.86-.87-4.21.25-5.45-1.61-.49-.74-.25-1.61-.25-2.6.5-.74.75-1.61,1.24-2.35A13.42,13.42,0,0,0,56.57,48c.25-.5,0-1.36.25-1.86a13.91,13.91,0,0,1,1.36-.74c.25-.25.5-.25.5-.5s-.25-.24-.25-.49a1.92,1.92,0,0,1,.49-1c1.24-1.24,2.6-2.23,3.84-3.59A.24.24,0,0,0,63,39.6c.25-.25,0-.5-.25-.5-.49-.24-.74-.24-1.24-.49-.24,0-.49,0-.49-.25-.25-.25,0-.74.25-1A27.33,27.33,0,0,0,62.89,35c.61-.62,1.11-1.61,1.85-1.86,2.36-1.11,3.72,2.48,4.71,3.84a8.74,8.74,0,0,1,2.35,3.59,9.83,9.83,0,0,0,1,2.35,25.47,25.47,0,0,1,1,7.56,19.73,19.73,0,0,1-.25,3.83C73.29,54.83,73.29,55.7,73,56.19Z" fill="#fff"/></svg>