<svg xmlns="http://www.w3.org/2000/svg" width="65" height="65" viewBox="0 0 65 65" fill="#ffffff"><path d="m41.42,29.83c.15.15.26.32.34.51.08.19.12.39.12.6s-.04.41-.12.6c-.08.19-.19.36-.34.51l-9.38,9.38c-.15.15-.32.26-.51.34-.19.08-.39.12-.6.12s-.41-.04-.6-.12-.36-.19-.51-.34l-4.69-4.69c-.15-.15-.26-.32-.34-.51s-.12-.39-.12-.6.04-.41.12-.6.19-.36.34-.51c.29-.29.69-.46,1.11-.46.21,0,.41.04.6.12.19.08.36.19.51.34l3.58,3.58,8.27-8.27c.15-.15.32-.26.51-.34.19-.08.39-.12.6-.12s.41.04.6.12c.19.08.36.19.51.34Z"/><path d="m18.44,7.5c.41,0,.81.16,1.1.46.29.29.46.69.46,1.1v1.56h25v-1.56c0-.41.16-.81.46-1.1.29-.29.69-.46,1.1-.46s.81.16,1.1.46c.29.29.46.69.46,1.1v1.56h3.12c1.66,0,3.25.66,4.42,1.83s1.83,2.76,1.83,4.42v34.38c0,1.66-.66,3.25-1.83,4.42s-2.76,1.83-4.42,1.83H13.75c-1.66,0-3.25-.66-4.42-1.83-1.17-1.17-1.83-2.76-1.83-4.42V16.88c0-1.66.66-3.25,1.83-4.42,1.17-1.17,2.76-1.83,4.42-1.83h3.12v-1.56c0-.41.16-.81.46-1.1.29-.29.69-.46,1.1-.46Zm-7.81,12.5v31.25c0,.83.33,1.62.92,2.21.59.59,1.38.92,2.21.92h37.5c.83,0,1.62-.33,2.21-.92.59-.59.92-1.38.92-2.21v-31.25H10.63Z"/></svg>