<svg xmlns="http://www.w3.org/2000/svg" width="65" height="65" viewBox="0 0 65 65" fill="#ffffff"><path d="m57.89,17.23h-4.41v-2.18c0-1.73-.7-3.4-1.94-4.62-1.24-1.22-2.92-1.92-4.68-1.92H7.12c-1.75,0-3.44.69-4.68,1.92-1.24,1.22-1.94,2.89-1.94,4.62v26.18c0,1.73.7,3.4,1.94,4.62s2.92,1.92,4.68,1.92h30.9v2.18c0,1.73.7,3.4,1.94,4.62,1.24,1.22,2.92,1.92,4.68,1.92h13.25c1.75,0,3.44-.69,4.68-1.92s1.94-2.89,1.94-4.62v-26.18c0-1.73-.7-3.4-1.94-4.62-1.24-1.22-2.92-1.92-4.68-1.92h0ZM7.12,43.41c-.58,0-1.14-.23-1.56-.64-.41-.41-.65-.96-.65-1.54V15.04c0-.58.24-1.14.65-1.54.41-.41.97-.64,1.56-.64h39.73c.58,0,1.14.23,1.56.64.41.41.65.96.65,1.54v2.18h-4.41c-1.75,0-3.44.69-4.68,1.92-1.24,1.22-1.94,2.89-1.94,4.62v19.64H7.12Zm52.97,6.54c0,.58-.24,1.14-.65,1.54-.41.41-.97.64-1.56.64h-13.25c-.58,0-1.14-.23-1.56-.64s-.65-.96-.65-1.54v-26.18c0-.58.24-1.14.65-1.54.41-.41.97-.64,1.56-.64h13.25c.58,0,1.14.23,1.56.64.41.41.65.96.65,1.54v26.18Zm-26.49,4.36c0,.58-.24,1.14-.65,1.54-.41.41-.97.64-1.56.64h-11.04c-.58,0-1.14-.23-1.56-.64-.41-.41-.65-.96-.65-1.54s.24-1.14.65-1.54c.41-.41.97-.64,1.56-.64h11.04c.58,0,1.14.23,1.56.64s.65.96.65,1.54Zm22.07-26.18c0,.58-.24,1.14-.65,1.54-.41.41-.97.64-1.56.64h-4.41c-.58,0-1.14-.23-1.56-.64-.41-.41-.65-.96-.65-1.54s.24-1.14.65-1.54c.41-.41.97-.64,1.56-.64h4.41c.58,0,1.14.23,1.56.64.41.41.65.96.65,1.54Z"/></svg>