<svg xmlns="http://www.w3.org/2000/svg" width="203" height="68.6" viewBox="0 0 203 68.6"><defs><clipPath id="a" transform="translate(0 -.5)"><path fill="none" d="M0 0h203v69H0z"/></clipPath></defs><g clip-path="url(#a)"><path fill="#00aeef" d="M119.5 36.5v-6h2.3v14.7h-2.3v-6.7h-6.4v6.7h-2.3V30.6h2.3v6Zm12.2 2.3c-.2-1.7-1-2.6-2.4-2.6s-2.2.8-2.5 2.6Zm-5 1.6c.1 2.1 1.1 3.3 2.9 3.3a2.2 2.2 0 0 0 2.2-1.4l2 .1a4 4 0 0 1-4.3 3c-3 0-5-2.1-5-5.4s2-5.6 5-5.6 4.5 2.1 4.5 5.5a3 3 0 0 1 0 .5Zm11.9-10v14.8h-2.2V30.4Zm5.1 4.3a3.5 3.5 0 0 1 .2 1.4 3.4 3.4 0 0 1 3.1-1.6 3 3 0 0 1 3 1.7 3.7 3.7 0 0 1 3.4-1.7 3 3 0 0 1 2.8 1.4c.3.7.4 1 .4 3v6.2h-2.2V39c0-2-.4-2.5-2-2.5s-2.1.9-2.1 2.7v6H148v-6c0-1.4 0-1.6-.2-2a1.8 1.8 0 0 0-1.6-.8c-1.6 0-2.3 1-2.3 2.8v6h-2.2v-7.6a7.6 7.6 0 0 0-.2-2.9Zm18.1-4.3v5.5a3.8 3.8 0 0 1 3-1.4 3.4 3.4 0 0 1 3 1.5c.4.6.5 1.3.5 3.2v6h-2.2v-5.7c0-2.3-.5-3-2-3s-2.3 1-2.3 3.2v5.5h-2.2V30.4h2.2ZM173 40c0 2.2 1 3.7 2.7 3.7s2.7-1.5 2.7-3.7-1.1-3.8-2.7-3.8-2.7 1.5-2.7 3.8Zm7.6 0c0 3.2-2 5.5-4.9 5.5s-5-2.3-5-5.5 2.1-5.5 5-5.5 4.9 2.3 4.9 5.5Zm4.7-9.6v14.8h-2.2V30.4Zm8.3 4.3v1.7h-2.3l-.1 4.6v.8c0 1.3.2 1.6 1.2 1.6a4 4 0 0 0 1.5-.3V45a5.9 5.9 0 0 1-2.2.4c-1.8 0-2.7-1-2.7-3V41l.1-4.6h-1.6v-1.7h1.6l.1-3h2.2v3Zm9.4 0v1.6l-5.5 7h5.5v1.9h-8.1v-1.7l5.4-7h-5v-1.8Zm-124.7 19v1.6l-7.2 11.2h7v2h-9.8v-2l7.2-11H69v-1.8ZM87 62c-.3-1.8-1-2.6-2.5-2.6s-2.2.8-2.5 2.6Zm-5 1.6c0 2.1 1 3.3 2.7 3.3a2.3 2.3 0 0 0 2.3-1.4l2 .1a4.1 4.1 0 0 1-4.3 3c-3 0-4.9-2.1-4.9-5.4s2-5.6 4.9-5.6 4.6 2.1 4.6 5.5a3.8 3.8 0 0 1 0 .5ZM93.4 58a4.2 4.2 0 0 1 .3 1.3 3.6 3.6 0 0 1 3.1-1.6 3.3 3.3 0 0 1 3 1.6c.4.6.5 1.1.5 3v6H98v-5.6c0-2.4-.4-3-2-3s-2.3 1-2.3 3.1v5.7h-2.2v-6.8c0-2.6 0-2.7-.3-3.7Zm15.1 0v1.6H106l-.1 4.6v.8c0 1.4.2 1.7 1.2 1.7a3.8 3.8 0 0 0 1.5-.4v1.9a5.8 5.8 0 0 1-2.2.4c-1.8 0-2.7-1-2.7-3v-1.4l.1-4.6h-1.6v-1.7h1.7v-3h2.2v3h2.3Zm4.3 0a8.5 8.5 0 0 1 .2 1.5 3 3 0 0 1 0 .6c.7-1.7 1.7-2.5 2.9-2.5a2.8 2.8 0 0 1 1 .3V60a3 3 0 0 0-1.6-.4c-1.5 0-2.2 1.4-2.2 4v4.8h-2.2v-7.1a21.4 21.4 0 0 0-.2-3.4Zm8 0v6c0 2 .6 2.7 2 2.7s2.3-1 2.3-3v-5.8h2.2V65c0 2.5 0 2.4.3 3.3h-2.1a3.7 3.7 0 0 1-.2-1.3 3.1 3.1 0 0 1-3 1.5 3.5 3.5 0 0 1-3.2-1.7 5.7 5.7 0 0 1-.5-2.8v-6Zm11.5 0a3.5 3.5 0 0 1 .2 1.3 3.4 3.4 0 0 1 3.2-1.6 3 3 0 0 1 3 1.7 3.7 3.7 0 0 1 3.3-1.7 3 3 0 0 1 2.8 1.4c.4.7.4 1 .4 3v6.3H143V62c0-2-.4-2.6-2-2.6s-2.1 1-2.1 2.8v6h-2.2v-6c0-1.4 0-1.6-.2-2a1.8 1.8 0 0 0-1.7-.8c-1.5 0-2.2 1-2.2 2.9v6h-2.2v-7.7a7.8 7.8 0 0 0-.3-2.8Zm23.5 8.5a6.7 6.7 0 0 0 2.9-.3 2.5 2.5 0 0 0-.3-4.3 6.6 6.6 0 0 0-2.5-.3h-1.5v4.9h1.4Zm0-6.7c2.4 0 3.3-.6 3.3-2.2a2 2 0 0 0-1.1-1.8 6.5 6.5 0 0 0-2.4-.2h-1.2v4.2Zm-.2-6.1a11 11 0 0 1 3.5.3 3.4 3.4 0 0 1 2.3 3.4 3 3 0 0 1-2.4 3.1c2.2.6 3.3 1.8 3.3 3.7a3.9 3.9 0 0 1-2.7 3.8 13.5 13.5 0 0 1-4.3.4h-3.1V53.7ZM171 62c-.1-1.8-1-2.6-2.3-2.6s-2.2.8-2.5 2.6Zm-5 1.6c.2 2.1 1.2 3.3 2.9 3.3a2.3 2.3 0 0 0 2.2-1.4l2 .1a4.1 4.1 0 0 1-4.2 3c-3 0-5-2.1-5-5.4s1.9-5.6 4.8-5.6 4.6 2.1 4.6 5.5a3.8 3.8 0 0 1 0 .5Zm11.7-5.6a8.5 8.5 0 0 1 .2 1.5 3 3 0 0 1 0 .6c.7-1.7 1.6-2.5 2.9-2.5a2.8 2.8 0 0 1 1 .3V60a3 3 0 0 0-1.5-.4c-1.5 0-2.3 1.4-2.3 4v4.8h-2.2v-7.1a21.4 21.4 0 0 0-.2-3.4Zm8.1-4.4v14.8h-2.2V53.6Zm5.4 4.4v10.4H189V57.9Zm.3-3.3a1.4 1.4 0 1 1-2.8 0 1.4 1.4 0 0 1 1.4-1.3 1.3 1.3 0 0 1 1.4 1.4Zm4.7 3.3a3.5 3.5 0 0 1 .2 1.3 3.6 3.6 0 0 1 3.1-1.6 3.2 3.2 0 0 1 3 1.6c.4.6.5 1.1.5 3v6h-2.2v-5.6c0-2.4-.4-3-2-3s-2.3 1-2.3 3.1v5.7h-2.2v-6.8c0-2.6 0-2.7-.3-3.7Z"/><path fill="#0060a0" d="M24 45.2V26.6H10v18.6H0V0h10v18h14V0h10v45.2Zm22.1-8.7L65 7.8V0H35.4v8.6h18L35.4 36v9H79v-8.6Z"/><path fill="#0060a0" d="M78.9 36.5h-10V45h10Z"/><path fill="#0060a0" d="M87 18h-8.2V8.6H87c3.7 0 5 2.4 5 4.6S90.6 18 87 18Zm10 4.6-1-.6 1-.7a10.3 10.3 0 0 0 4.8-8.6c0-8-5.3-12.7-14.2-12.7H68.9v35h10v-8.3h8.6c3.8 0 5 2.5 5 4.9a4.7 4.7 0 0 1-5 5h-7.1v8.7h8.3c8.5 0 13.9-5 13.9-13 0-6.3-3.6-8.4-5.5-9.6Z"/></g></svg>