<svg xmlns="http://www.w3.org/2000/svg" width="406" height="271" fill="none" viewBox="0 0 406 271"><path fill="#fff" d="M0 0h406v271H0z"/><path fill="#004087" d="m88.3 160.7-.7.8a5 5 0 0 1-3.8 1.6 5.4 5.4 0 0 1-5.5-5.4c0-1.4.5-2.7 1.6-3.7a5 5 0 0 1 3.9-1.6c.6 0 1.1 0 1.6.2.3 3 1.3 5.7 2.9 8.1Z"/><path fill="#72C6EF" d="M73.5 144.3c1 1 1.5 2.3 1.5 3.8s-.5 2.7-1.5 3.8a5.6 5.6 0 0 1-3.9 1.5 5.4 5.4 0 0 1-5.5-5.3c0-1.5.6-2.8 1.6-3.8s2.4-1.6 4-1.6a5 5 0 0 1 3.8 1.6Z"/><path fill="#004087" d="M85.3 132.8v10.4l-1.5.2a6 6 0 0 1-4-1.6c-1-1-1.5-2.3-1.5-3.8s.5-2.7 1.6-3.8c1-1 2.3-1.6 3.9-1.6.5 0 1 0 1.5.2Z"/><path fill="#72C6EF" d="M85.3 113v10.4l-1.5.2a5.4 5.4 0 0 1-5.5-5.4 5 5 0 0 1 1.6-3.8 5.7 5.7 0 0 1 5.4-1.4Zm-26.2 1.4c1.1 1 1.6 2.3 1.6 3.8s-.5 2.7-1.6 3.8c-1 1-2.3 1.5-3.8 1.5a5.4 5.4 0 0 1-5.5-5.3 5 5 0 0 1 1.6-3.8c1-1 2.4-1.6 4-1.6 1.4 0 2.7.5 3.7 1.6Zm14.4 9.8c1 1.1 1.5 2.4 1.5 3.8 0 1.5-.5 2.8-1.5 3.8a5.7 5.7 0 0 1-3.9 1.6 5.4 5.4 0 0 1-5.5-5.4c0-1.4.6-2.7 1.6-3.8 1-1 2.4-1.5 4-1.5 1.5 0 2.7.5 3.8 1.5Zm11.8-31.3v10.3c-.5.2-1 .2-1.5.2a5.4 5.4 0 0 1-5.5-5.3 5 5 0 0 1 1.6-3.8 5.7 5.7 0 0 1 5.4-1.4Zm-11.8 11.5c1 1.1 1.5 2.4 1.5 3.8 0 1.5-.5 2.8-1.5 3.8a5.7 5.7 0 0 1-3.9 1.6 5.4 5.4 0 0 1-5.5-5.4c0-1.4.6-2.7 1.6-3.8 1-1 2.4-1.5 4-1.5 1.5 0 2.7.5 3.8 1.5Zm11.8-31.7v10.4l-1.5.2a5.4 5.4 0 0 1-5.5-5.4 5 5 0 0 1 1.6-3.8 5.7 5.7 0 0 1 5.4-1.4Z"/><path fill="#CBDB2A" d="M59.1 74.1c1.1 1 1.6 2.3 1.6 3.8s-.5 2.8-1.6 3.8a5.4 5.4 0 0 1-9.3-3.8 5 5 0 0 1 1.6-3.8c1-1 2.4-1.5 4-1.5 1.4 0 2.7.5 3.7 1.5Z"/><path fill="#72C6EF" d="M73.5 84.3c1 1 1.5 2.3 1.5 3.8s-.5 2.7-1.5 3.8a5.7 5.7 0 0 1-3.9 1.6 5.4 5.4 0 0 1-5.5-5.4 5.5 5.5 0 0 1 5.6-5.4c1.5 0 2.7.6 3.8 1.6Z"/><path fill="#CBDB2A" d="M73.5 64.2c1 1 1.5 2.3 1.5 3.8s-.5 2.7-1.5 3.8a5.6 5.6 0 0 1-3.9 1.5 5.4 5.4 0 0 1-5.5-5.3c0-1.5.6-2.8 1.6-3.8s2.4-1.6 4-1.6a5 5 0 0 1 3.8 1.6ZM87 53.5c-1 2.4-1.7 5-1.7 7.9V63l-1.5.2a5.4 5.4 0 0 1-5.5-5.4 5 5 0 0 1 1.6-3.8 5.3 5.3 0 0 1 7.1-.5ZM73.5 44c1 1 1.5 2.4 1.5 3.8 0 1.5-.5 2.8-1.5 3.8a5.7 5.7 0 0 1-3.9 1.6 5.4 5.4 0 0 1-5.5-5.4c0-1.5.6-2.7 1.6-3.8 1-1 2.4-1.5 4-1.5 1.5 0 2.7.5 3.8 1.5Z"/><path fill="#72C6EF" d="M252.6 117.3h.3-.3Zm-17 49.2v.1h.3l-.3-.1Zm16.5-12.5v.1l5.2 1.4-5.2-1.5Zm.5-36.7h.3-.3ZM252 154v.1l5.2 1.4-5.2-1.5Zm6-92.6v20.1l-5.4.5V61.4c0-7.3-6-13.3-13.3-13.3H104c-7.3 0-13.3 6-13.3 13.3v89.2c0 7.3 6 13.3 13.3 13.3h92.4v5.5H104a18.7 18.7 0 0 1-18.7-18.8V61.4A18.6 18.6 0 0 1 104 42.7h135.3c10.3 0 18.7 8.4 18.7 18.7Z"/><path fill="#CBDB2A" d="m98.8 147.4 26.3-25.6h24.7L167 97.6l26.2 5L215 67.7l-9-9.2 33.7-3.6-1.5 32-9.7-7.8-30 35.6-27.7-2.9-19.5 20-26.2-.7-26.3 16.3Z"/><path fill="#004087" d="M263.1 157h-.1l-.1.1v.2l.3-.1h.2v-.3l-.3.1Z"/><path fill="#CBDB2A" d="m235.5 196.5-.4.2-5 2.2-28.3 12.1h-.2L164 191.6l32.6-11.4 38.4 15.9h.2l.2.2h.2Zm27.4-39.5v.1l-7.2 2.5-19.8 7-.3-.1-.5-.2-7.4-2.4-31.3-10.2 27.2-7.4L252 154l5.2 1.4 4.7 1.3.9.3Z"/><path fill="#CBDB2A" d="M263.4 157.1h-.2l-.3.2v-.2l-.9-.3-4.7-1.3-5.2-1.4-28.5-7.8h.1l28.4 7.7 5.3 1.5 4.8 1.3.7.2h.2l.3.1Z"/><path fill="#004087" d="M262.9 156.6v.7l.3-.1-.3-.6Zm23.7-33.7h-.5l.5.2v.2l-23.2 6 23.2-5.9h.5v-.7l-.5.2Z"/><path fill="#004087" d="M290.4 143.4a1.6 1.6 0 1 0 2.1 2.5l9.7-8.3 4 3.4.5.5.6.5v35.2l-20.7 10-23.7 11.5-27.8 13.6-33.9 16.7.6-18 28.3-12.1 5-2.2.5-.2v-29.9h.3l19.8-7 7.2-2.5.5-27.8 23.2-5.9h.5V85.1l.8-.1 14.5-2.1h.1l4.8-.6v55.2l-.6-.4-.5-.5-3-2.5c-.6-.6-1.5-.6-2 0l-10.8 9.2Z"/><path fill="#72C6EF" d="m263.4 129.3-.5 27.7-.7-.2-4.8-1.3-5.3-1.5-28.4-7.8h-.3v-25l29.2 5.9 5.4 1 4.9 1 .5.2Z"/><path fill="#72C6EF" d="m257.3 155.5-5.2-1.4-28.5-7.8h.1l28.4 7.7 5.3 1.5 4.8 1.3-4.9-1.3Z"/><path fill="#CBDB2A" d="M286.6 123v.3l-23.2 6-.5-.1-4.9-1-5.4-1.1-29.2-6 24-4.7 5.2.9h.3l5.1 1 28 4.7h.6Z"/><path fill="#CBDB2A" d="m287.1 123.2-.5.1v-.2h.5Z"/><path fill="#004087" d="m287.9 85-.8.2.8-.1Z"/><path fill="#004087" d="M287.1 85.1h-.5v.1h.5l.8-.1h-.8Z"/><path fill="#72C6EF" d="M287.1 85.2v37.5l-.5.2h-.5l-28.1-4.7-5.1-.8-.3-.1-5.5-1V82.5l5.5.4 5.4.4 28.5 2h.6Z"/><path fill="#72C6EF" d="M287.1 122.7v.5l-.5-.1-.5-.1.5-.1.5-.2ZM248 82.3l-.9.1v-.1h1Zm39.1 2.8-.5.1v-.1h.5Z"/><path fill="#CBDB2A" d="m307.3 82.3-4.8.7h-.1L288 85h-.1l-.8.1h-.5v.1h-.1l-28.5-2-5.4-.4-5.5-.4h1l4.5-.4 5.4-.5 10.3-.8 39 1.6Z"/><path fill="#CBDB2A" d="m287.9 85-.8.2h-.5v-.1h1.3Z"/><path fill="#004087" d="M235.6 196.4v.1l-.5.2-5 2.2 5-2.2.4-.2h.1Z"/><path fill="#004087" d="m201.6 211-.4 17.1v.9l.6-18h-.2Zm33.3-14.8h.2v-.1h-.2Zm.7.3-.5.2-5 2.2 5-2.2.5-.2Z"/><path fill="#72C6EF" d="M235.6 166.5v30l-.3-.1-.2-.1v-.2h-.2l-38.3-15.8h-.2v-26.6l31.3 10.2 7.4 2.4.5.2Z"/><path fill="#72C6EF" d="M235 196v.3l-.1-.1.2-.1Zm.6.4Z"/><path fill="#CBDB2A" d="m235.6 196.5-.5.2-5 2.2 5-2.2.4-.2h.1Z"/><path fill="#72C6EF" d="m201.8 211-.6 18-37.3-22v-15.3l37.7 19.2.2.1Z"/><path fill="#CBDB2A" d="M357 145.7c-.6.7-1.7.8-2.3.2l-9.7-8.3-9.6 8.3c-.7.5-1.6.5-2.2 0l-9.6-8.3-9.7 8.3c-.6.5-1.5.5-2 0l-4.6-4-.6-.4-.5-.5-4-3.4-9.7 8.3a1.6 1.6 0 1 1-2.1-2.5l10.7-9.2c.6-.6 1.5-.6 2.1 0l3 2.5.5.5.6.4 5.6 4.9 9.6-8.3c.6-.6 1.5-.6 2.2 0l9.6 8.3 9.6-8.3c.7-.6 1.6-.6 2.2 0l10.7 9.2c.7.6.7 1.6.2 2.3Zm-223.1 43.7c-.4 0-.8 0-1-.4l-7.3-6.2-7.3 6.2c-.6.6-1.5.6-2.1 0l-7.3-6.2-7.2 6.2c-.6.6-1.5.6-2.1 0l-7.3-6.2-7.2 6.2c-.6.6-1.5.6-2.2 0l-7.2-6.2-7.2 6.2c-.7.6-1.6.6-2.2 0l-8.3-7c-.7-.6-.8-1.6-.2-2.3.6-.7 1.7-.8 2.3-.2l7.3 6.2 7.2-6.2c.7-.5 1.6-.5 2.2 0l7.2 6.2 7.3-6.2c.6-.5 1.5-.5 2 0l7.3 6.2 7.3-6.2c.6-.5 1.5-.5 2.1 0l7.3 6.2 7.2-6.2c.6-.5 1.5-.5 2.1 0l8.4 7.2a1.6 1.6 0 0 1-1.1 2.8Z"/></svg>