<svg xmlns="http://www.w3.org/2000/svg" xmlns:xlink="http://www.w3.org/1999/xlink" style="display:none"><symbol id="arrow-down-big"><path d="M1.48 6.15a1.67 1.67 0 011.17-.48 1.65 1.65 0 011.17.48L12 14.34l8.2-8.19a1.62 1.62 0 011.16-.46 1.69 1.69 0 011.16.48 1.67 1.67 0 010 2.32l-9.36 9.36a1.67 1.67 0 01-2.34 0L1.48 8.49a1.67 1.67 0 010-2.34z"/></symbol><symbol id="arrow-down"><path d="M6.3 7.6a1 1 0 01-1.61 0L.19 1.53A1 1 0 011.04 0h9a1 1 0 01.81 1.53z"/></symbol><symbol id="close"><path d="M9.25 7.99l6.48-6.48a.88.88 0 000-1.25.88.88 0 00-1.25 0L8 6.74 1.51.26a.88.88 0 00-1.25 0 .88.88 0 000 1.25l6.48 6.48-6.48 6.49a.88.88 0 000 1.25.91.91 0 00.63.26.87.87 0 00.62-.26L8 9.25l6.48 6.48a.91.91 0 00.63.26.89.89 0 00.62-1.51z"/></symbol><symbol id="download"><path d="M16.15 19.05H2.91A2.9 2.9 0 010 16.15v-3.79a1 1 0 012 0v3.79a.85.85 0 00.87.87h13.27a.87.87 0 00.88-.87v-3.79a1 1 0 112 0v3.79a2.9 2.9 0 01-.84 2.05 2.83 2.83 0 01-2.03.85zm-6.62-5.67a.91.91 0 01-.37-.08 1.12 1.12 0 01-.34-.21L4.08 8.34a1 1 0 011.4-1.43l3 3V1a1 1 0 012 0v8.92l3-3a1.033 1.033 0 111.5 1.42l-4.73 4.74a1.26 1.26 0 01-.32.21 1.23 1.23 0 01-.4.09z"/></symbol><symbol id="facebook"><path d="M7.93 6.36v3.18h4.75v4.77H7.93v11.31c-.52.08-1.05.08-1.59.08a15.88 15.88 0 01-3.18-.32V14.31H0V9.54h3.16v-4A5.57 5.57 0 018.72 0h4v4.77H9.51a1.59 1.59 0 00-1.58 1.59z"/></symbol><symbol id="hzb-mini-logo"><g fill="none"><path fill="#0060A0" d="M9.1 16V9.4h-5V16H.5V0H4v6.4h5V0h3.6v16H9.1zm8-3.1L24 2.8V0H13.3v3h6.5l-6.5 9.8V16h15.6v-3.1H17.1z"/><path fill="#0060A0" d="M31.8 6.3H29V3.1h3c1.3 0 1.7.8 1.7 1.6s-.4 1.6-1.8 1.6zM35.5 8l-.4-.2.4-.3c.7-.4 1.7-1.4 1.7-3 0-2.8-1.9-4.5-5.1-4.5h-6.8v12.4H29v-3h3c1.4 0 1.9 1 1.9 1.8s-.5 1.7-1.9 1.7h-2.5V16h3c3 0 5-1.8 5-4.6 0-2.2-1.3-3-2-3.4z"/></g></symbol><symbol id="link-right"><path d="M40 18.37a3.33 3.33 0 000-4.74L27.24 1a3.43 3.43 0 00-4.8 0 3.34 3.34 0 000 4.75l7 6.92h-26a3.41 3.41 0 00-2.4 1 3.33 3.33 0 000 4.74 3.41 3.41 0 002.4 1h26l-7 6.92a3.6 3.6 0 00-.73 1.09 3.38 3.38 0 00-.26 1.29 3.33 3.33 0 00.26 1.28 3.37 3.37 0 00.73 1.01 3.33 3.33 0 001.1.72 3.47 3.47 0 001.3.26 3.39 3.39 0 001.3-.26 3.33 3.33 0 001.1-.72z"/></symbol><symbol id="linkedin"><path d="M3.65 1.73a1.72 1.72 0 01-1.86 1.73A1.7 1.7 0 010 1.73 1.72 1.72 0 011.84 0a1.71 1.71 0 011.81 1.73zM16.14 9.36v6.54h-3.45V9.76c0-1.43-.5-2.41-1.75-2.41a1.91 1.91 0 00-1.77 1.3 2.42 2.42 0 00-.1.85v6.4H5.6V8.34c0-1.39 0-2.54-.08-3.54h3l.15 1.55h.07a4 4 0 013.43-1.79c2.26.01 3.97 1.53 3.97 4.8zM3.55 4.82H.07V15.9h3.48z"/></symbol><symbol id="mail"><path d="M19.19.03H.85a.86.86 0 00-.83.82v14.36a.86.86 0 00.85.85h18.32a.86.86 0 00.85-.85V.85a.86.86 0 00-.85-.82zm-2 1.69l-7.17 7.17-7.2-7.21h14.4zM1.69 14.37V2.94l7.74 7.73a.86.86 0 00.6.25.84.84 0 00.6-.25l7.74-7.73v11.43z"/></symbol><symbol id="phone"><path d="M19.62 13.85l-4.86-2.17a1.69 1.69 0 00-.8-.13 1.55 1.55 0 00-.76.27l-.08.05-2.5 2.14a9.46 9.46 0 01-4-4l2.13-2.52v-.08a1.69 1.69 0 00.32-.78 1.63 1.63 0 00-.13-.79L6.76.99a1.59 1.59 0 00-.7-.77 1.64 1.64 0 00-1-.2 5.79 5.79 0 00-5 5.75 14.86 14.86 0 0014.79 14.86 5.81 5.81 0 005.76-5 1.72 1.72 0 00-.21-1 1.63 1.63 0 00-.78-.78zm-4.77 5.11A13.21 13.21 0 011.66 5.77a4.24 4.24 0 011-2.74 4.1 4.1 0 012.6-1.4l2.15 4.88-2.15 2.55v.07a1.64 1.64 0 00-.11 1.62 11.18 11.18 0 004.78 4.75 1.84 1.84 0 00.83.16 1.54 1.54 0 00.79-.28l.07-.05 2.51-2.14 4.85 2.17a4.12 4.12 0 01-1.38 2.58 4.2 4.2 0 01-2.75 1.02z"/></symbol><symbol id="pin"><path d="M9.36 13.53a4.13 4.13 0 01-2.31-.7 4.21 4.21 0 01-1.53-1.86 4 4 0 01-.23-2.4 4.08 4.08 0 011.18-2.13 4.17 4.17 0 012.09-1.15 4 4 0 012.39.24 4.06 4.06 0 011.87 1.53 4.16 4.16 0 01-.52 5.25 4.15 4.15 0 01-2.94 1.22zm0-6.66a2.52 2.52 0 00-1.38.42 2.56 2.56 0 00-.93 1.13 2.36 2.36 0 00-.13 1.44 2.48 2.48 0 00.69 1.28 2.59 2.59 0 001.28.69 2.63 2.63 0 001.44-.14 2.57 2.57 0 001.14-.92 2.47 2.47 0 00.42-1.39 2.51 2.51 0 00-.73-1.77 2.56 2.56 0 00-1.8-.74z"/><path d="M10.63 22.43a1.67 1.67 0 01-2.54 0l-5.91-7-.29-.39A9.3 9.3 0 010 9.4 9.37 9.37 0 019.36 0a9.38 9.38 0 017.48 15s-.25.34-.3.39zm-7.39-8.41l.25.32 4.62 5.47a1.64 1.64 0 002.5 0l4.64-5.48.24-.32a7.66 7.66 0 10-12.25 0z"/></symbol><symbol id="search"><path d="M17.81 18.54a.75.75 0 01-.51-.21l-5.26-5.27a7.8 7.8 0 01-1.86 1.12 7.44 7.44 0 01-5.64 0 7.13 7.13 0 01-2.38-1.6 7.28 7.28 0 01-1.6-2.39A7.39 7.39 0 010 7.37a7.13 7.13 0 01.56-2.82 7.28 7.28 0 011.6-2.39A7.34 7.34 0 014.54.56a7.44 7.44 0 015.64 0 7.13 7.13 0 012.38 1.6 7.43 7.43 0 011.6 2.39 7.35 7.35 0 01.56 2.82 7.2 7.2 0 01-.56 2.82 7.49 7.49 0 01-1.12 1.86l5.26 5.27a.71.71 0 010 1 .6.6 0 01-.49.22zM7.36 1.43a5.93 5.93 0 00-2.28.48 5.74 5.74 0 00-1.93 1.25 6.11 6.11 0 00-1.26 1.93 6.09 6.09 0 00-.44 2.28 6.2 6.2 0 00.44 2.28 5.7 5.7 0 001.29 1.92 5.87 5.87 0 001.9 1.34 6 6 0 004.55 0 5.73 5.73 0 001.92-1.3 6.27 6.27 0 001.34-1.96 6.2 6.2 0 00.44-2.28 6.13 6.13 0 00-.44-2.28 5.77 5.77 0 00-1.3-1.93 6 6 0 00-1.96-1.25 5.85 5.85 0 00-2.27-.48z"/></symbol><symbol id="share"><path d="M15.95 14.11a3.87 3.87 0 00-2.83 1.23l-5.57-3.25a3.82 3.82 0 00.18-1.17 3.88 3.88 0 00-.18-1.18l5.57-3.25a3.87 3.87 0 10-1-2.62 3.82 3.82 0 00.18 1.17L6.7 8.3a3.86 3.86 0 100 5.24l5.58 3.26a3.82 3.82 0 00-.18 1.17 3.86 3.86 0 103.85-3.86zm0-12.42a2.19 2.19 0 11-2.18 2.19 2.19 2.19 0 012.18-2.19zM3.86 13.1a2.18 2.18 0 112.18-2.18 2.19 2.19 0 01-2.18 2.18zm12.09 7.06a2.19 2.19 0 01-2.18-2.19 2.31 2.31 0 01.24-1s0-.06.06-.09v-.06a2.18 2.18 0 111.85 3.35z"/></symbol><symbol id="x-twitter"><path d="M7.18 9.63L.03.06h5.06a.78.78 0 01.72.39c1.34 1.81 2.7 3.62 4.05 5.42.12.15.24.29.47.6a5.4 5.4 0 01.32-.52c1.62-1.77 3.2-3.44 4.71-5.22a2.14 2.14 0 012.28-.66c-2.25 2.42-4.45 4.81-6.68 7.22 2.51 3.37 5 6.7 7.58 10.12h-5.07a.82.82 0 01-.73-.38c-1.47-2-3-4-4.44-6-.12-.14-.24-.29-.51-.65a2.43 2.43 0 01-.29.56c-1.72 1.87-3.5 3.7-5.17 5.64a2.18 2.18 0 01-2.33.73zm9 6.64a4 4 0 00-.22-.38Q10.54 8.68 5.15 1.49c-.08-.12-.22-.29-.34-.29H2.38c.17.23.26.38.36.52.89 1.19 1.78 2.37 2.65 3.56l7.94 10.59a1 1 0 00.58.4c.71.03 1.42 0 2.23 0z"/></symbol></svg>