<svg xmlns="http://www.w3.org/2000/svg" width="19.03" height="19.05" viewBox="0 0 19.03 19.05"><path d="M16.67,19.51H3.43a2.9,2.9,0,0,1-2.91-2.9V12.82a1,1,0,0,1,2,0v3.79a.85.85,0,0,0,.87.87H16.66a.87.87,0,0,0,.88-.87V12.82a1,1,0,1,1,2,0v3.79a2.9,2.9,0,0,1-.84,2.05A2.83,2.83,0,0,1,16.67,19.51Zm-6.62-5.67a.91.91,0,0,1-.37-.08,1.12,1.12,0,0,1-.34-.21h0L4.6,8.8A1,1,0,0,1,6,7.37l3,3V1.46a1,1,0,0,1,2,0v8.92l3-3A1,1,0,1,1,15.5,8.8l-4.73,4.74h0a1.26,1.26,0,0,1-.32.21A1.23,1.23,0,0,1,10.05,13.84Z" transform="translate(-0.52 -0.46)"/></svg>