<svg xmlns="http://www.w3.org/2000/svg" width="16.14" height="15.92" viewBox="0 0 16.14 15.92"><path d="M4.58,1.83A1.72,1.72,0,0,1,2.72,3.56,1.7,1.7,0,0,1,.93,1.83,1.72,1.72,0,0,1,2.77.1,1.71,1.71,0,0,1,4.58,1.83Z" transform="translate(-0.93 -0.1)"/><path d="M17.07,9.46V16H13.62V9.86c0-1.43-.5-2.41-1.75-2.41a1.91,1.91,0,0,0-1.77,1.3A2.42,2.42,0,0,0,10,9.6V16H6.53V8.44c0-1.39,0-2.54-.08-3.54h3L9.6,6.45h.07A4,4,0,0,1,13.1,4.66C15.36,4.67,17.07,6.19,17.07,9.46Z" transform="translate(-0.93 -0.1)"/><path d="M4.48,4.92H1V16H4.48Z" transform="translate(-0.93 -0.1)"/></svg>