<svg xmlns="http://www.w3.org/2000/svg" width="20.61" height="20.61" viewBox="0 0 20.61 20.61"><path d="M20.36,14.22,15.5,12.05h0a1.69,1.69,0,0,0-.8-.13,1.55,1.55,0,0,0-.76.27l-.08.05-2.5,2.14a9.46,9.46,0,0,1-4-4L9.49,7.86l0-.08A1.69,1.69,0,0,0,9.81,7a1.63,1.63,0,0,0-.13-.79h0L7.5,1.36A1.59,1.59,0,0,0,6.8.59a1.64,1.64,0,0,0-1-.2,5.79,5.79,0,0,0-5,5.75A14.86,14.86,0,0,0,15.59,21a5.81,5.81,0,0,0,5.76-5,1.72,1.72,0,0,0-.21-1A1.63,1.63,0,0,0,20.36,14.22Zm-4.77,5.11A13.21,13.21,0,0,1,2.4,6.14a4.24,4.24,0,0,1,1-2.74A4.1,4.1,0,0,1,6,2H6L8.15,6.88,6,9.43,6,9.5a1.64,1.64,0,0,0-.11,1.62,11.18,11.18,0,0,0,4.78,4.75,1.84,1.84,0,0,0,.83.16,1.54,1.54,0,0,0,.79-.28l.07-.05,2.51-2.14,4.85,2.17h0a4.12,4.12,0,0,1-1.38,2.58A4.2,4.2,0,0,1,15.59,19.33Z" transform="translate(-0.74 -0.37)"/></svg>