<svg xmlns="http://www.w3.org/2000/svg" width="18.73" height="23.01" viewBox="0 0 18.73 23.01"><path d="M9.89,13.84a4.13,4.13,0,0,1-2.31-.7,4.21,4.21,0,0,1-1.53-1.86,4,4,0,0,1-.23-2.4A4.08,4.08,0,0,1,7,6.75,4.17,4.17,0,0,1,9.09,5.6a4,4,0,0,1,2.39.24,4.06,4.06,0,0,1,1.87,1.53,4.16,4.16,0,0,1-.52,5.25A4.15,4.15,0,0,1,9.89,13.84Zm0-6.66a2.52,2.52,0,0,0-1.38.42,2.56,2.56,0,0,0-.93,1.13,2.36,2.36,0,0,0-.13,1.44,2.48,2.48,0,0,0,.69,1.28,2.59,2.59,0,0,0,1.28.69A2.63,2.63,0,0,0,10.86,12,2.57,2.57,0,0,0,12,11.08a2.47,2.47,0,0,0,.42-1.39,2.51,2.51,0,0,0-.73-1.77A2.56,2.56,0,0,0,9.89,7.18Z" transform="translate(-0.53 -0.31)"/><path d="M11.16,22.74a1.67,1.67,0,0,1-2.54,0l-5.91-7-.29-.39A9.3,9.3,0,0,1,.53,9.71,9.37,9.37,0,0,1,9.89.31a9.38,9.38,0,0,1,7.48,15s-.25.34-.3.39ZM3.77,14.33l.25.32,4.62,5.47a1.64,1.64,0,0,0,2.5,0l4.64-5.48.24-.32a7.66,7.66,0,1,0-12.25,0Z" transform="translate(-0.53 -0.31)"/></svg>