<svg xmlns="http://www.w3.org/2000/svg" width="18.51" height="18.54" viewBox="0 0 18.51 18.54"><path d="M17.92,18.63a.75.75,0,0,1-.51-.21l-5.26-5.27a7.8,7.8,0,0,1-1.86,1.12,7.44,7.44,0,0,1-5.64,0,7.13,7.13,0,0,1-2.38-1.6,7.28,7.28,0,0,1-1.6-2.39A7.39,7.39,0,0,1,.11,7.46,7.13,7.13,0,0,1,.67,4.64a7.28,7.28,0,0,1,1.6-2.39A7.34,7.34,0,0,1,4.65.65a7.44,7.44,0,0,1,5.64,0,7.13,7.13,0,0,1,2.38,1.6,7.43,7.43,0,0,1,1.6,2.39,7.35,7.35,0,0,1,.56,2.82,7.2,7.2,0,0,1-.56,2.82,7.49,7.49,0,0,1-1.12,1.86l5.26,5.27a.71.71,0,0,1,0,1A.6.6,0,0,1,17.92,18.63ZM7.47,1.52A5.93,5.93,0,0,0,5.19,2,5.74,5.74,0,0,0,3.26,3.25,6.11,6.11,0,0,0,2,5.18a6.09,6.09,0,0,0-.44,2.28A6.2,6.2,0,0,0,2,9.74a5.7,5.7,0,0,0,1.29,1.92A5.87,5.87,0,0,0,5.19,13a6,6,0,0,0,4.55,0,5.73,5.73,0,0,0,1.92-1.3A6.27,6.27,0,0,0,13,9.74a6.2,6.2,0,0,0,.44-2.28A6.13,6.13,0,0,0,13,5.18a5.77,5.77,0,0,0-1.3-1.93A6,6,0,0,0,9.74,2,5.85,5.85,0,0,0,7.47,1.52Z" transform="translate(-0.11 -0.09)"/></svg>