<svg xmlns="http://www.w3.org/2000/svg" width="19.82" height="21.83" viewBox="0 0 19.82 21.83"><path d="M16.32,14.55a3.87,3.87,0,0,0-2.83,1.23L7.92,12.53a3.82,3.82,0,0,0,.18-1.17,3.88,3.88,0,0,0-.18-1.18l5.57-3.25a3.87,3.87,0,1,0-1-2.62,3.82,3.82,0,0,0,.18,1.17L7.07,8.74a3.86,3.86,0,1,0,0,5.24l5.58,3.26a3.82,3.82,0,0,0-.18,1.17,3.86,3.86,0,1,0,3.85-3.86Zm0-12.42a2.19,2.19,0,1,1-2.18,2.19A2.19,2.19,0,0,1,16.32,2.13ZM4.23,13.54a2.18,2.18,0,1,1,2.18-2.18A2.19,2.19,0,0,1,4.23,13.54ZM16.32,20.6a2.19,2.19,0,0,1-2.18-2.19,2.31,2.31,0,0,1,.24-1s0-.06.06-.09l0-.06a2.18,2.18,0,1,1,1.85,3.35Z" transform="translate(-0.37 -0.44)"/></svg>