<svg xmlns="http://www.w3.org/2000/svg" width="18.53" height="17.47" viewBox="0 0 18.53 17.47"><path d="M7.91,9.9.76.33c.22,0,.37,0,.5,0,1.52,0,3,0,4.56,0a.78.78,0,0,1,.72.39c1.34,1.81,2.7,3.62,4.05,5.42.12.15.24.29.47.6a5.4,5.4,0,0,1,.32-.52C13,4.45,14.58,2.78,16.09,1A2.14,2.14,0,0,1,18.37.34c-2.25,2.42-4.45,4.81-6.68,7.22,2.51,3.37,5,6.7,7.58,10.12-.25,0-.41,0-.57,0-1.5,0-3,0-4.5,0a.82.82,0,0,1-.73-.38c-1.47-2-3-4-4.44-6-.12-.14-.24-.29-.51-.65a2.43,2.43,0,0,1-.29.56c-1.72,1.87-3.5,3.7-5.17,5.64a2.18,2.18,0,0,1-2.33.73Zm9,6.64a4,4,0,0,0-.22-.38Q11.27,8.95,5.88,1.76c-.08-.12-.22-.29-.34-.29-.78,0-1.55,0-2.43,0,.17.23.26.38.36.52.89,1.19,1.78,2.37,2.65,3.56l7.94,10.59a1,1,0,0,0,.58.4C15.35,16.57,16.06,16.54,16.87,16.54Z" transform="translate(-0.73 -0.27)"/></svg>