<svg xmlns="http://www.w3.org/2000/svg" width="590" height="175" viewBox="0 0 590 175"><g opacity=".9"><path fill="#fff" d="M41.4 168a23.3 23.3 0 0 1-17.2 7 23.6 23.6 0 0 1-17.1-7A23 23 0 0 1 0 151a24 24 0 0 1 7.1-17.4 23.4 23.4 0 0 1 17.1-7 23.5 23.5 0 0 1 17.1 7 23.6 23.6 0 0 1 7.2 17.3 23 23 0 0 1-7.1 17Zm89 0a24.3 24.3 0 0 1-34.2 0 23 23 0 0 1-7.1-17 24 24 0 0 1 7-17.4 24.3 24.3 0 0 1 34.3 0 23.6 23.6 0 0 1 7.1 17.3 23 23 0 0 1-7 17Z"/><path fill="#67a4e7" d="M219.8 168a24.3 24.3 0 0 1-34.3 0 23 23 0 0 1-7.1-17 24 24 0 0 1 7.1-17.4 24.3 24.3 0 0 1 34.3 0 23.6 23.6 0 0 1 7 17.3 23 23 0 0 1-7 17Zm-44.5-63a24.3 24.3 0 0 1-34.3 0 23 23 0 0 1-7-17 24 24 0 0 1 7-17.3 24.3 24.3 0 0 1 34.3 0 23.7 23.7 0 0 1 7 17.3 23 23 0 0 1-7 17Zm135.2 63a24.3 24.3 0 0 1-34.2 0 23 23 0 0 1-7.2-17 24 24 0 0 1 7.2-17.4 24.3 24.3 0 0 1 34.2 0 23.6 23.6 0 0 1 7.1 17.3 23 23 0 0 1-7 17Zm-45.9-63a24.3 24.3 0 0 1-34.3 0 23 23 0 0 1-7-17 24 24 0 0 1 7-17.3 24.3 24.3 0 0 1 34.3 0 23.7 23.7 0 0 1 7.1 17.3 23 23 0 0 1-7.1 17Zm136.7 63a24.3 24.3 0 0 1-34.2 0 23 23 0 0 1-7.1-17 24 24 0 0 1 7-17.4 24.3 24.3 0 0 1 34.3 0 23.6 23.6 0 0 1 7.1 17.3 23 23 0 0 1-7 17Z"/><path fill="#005cc3" d="M401.3 41.4a24.3 24.3 0 0 1-34.2 0 23 23 0 0 1-7.1-17 24 24 0 0 1 7-17.3 24.3 24.3 0 0 1 34.3 0 23.6 23.6 0 0 1 7.1 17.3 22.9 22.9 0 0 1-7 17Z"/><path fill="#67a4e7" d="M355.4 105a23.3 23.3 0 0 1-17.1 7.1 23.6 23.6 0 0 1-17.1-7 23 23 0 0 1-7.1-17 24 24 0 0 1 7-17.4 24.3 24.3 0 0 1 34.3 0 23.6 23.6 0 0 1 7.1 17.3 22.9 22.9 0 0 1-7 17Z"/><path fill="#005cc3" d="M446.2 105a23.3 23.3 0 0 1-17.1 7.1 23.6 23.6 0 0 1-17.2-7 23 23 0 0 1-7-17 24 24 0 0 1 7-17.4 24.3 24.3 0 0 1 34.3 0 23.6 23.6 0 0 1 7 17.3 22.9 22.9 0 0 1-7 17Zm45.8 63a24.3 24.3 0 0 1-34.2 0 23 23 0 0 1-7-17 24 24 0 0 1 7-17.4 24.3 24.3 0 0 1 34.3 0 23.6 23.6 0 0 1 7 17.3 23 23 0 0 1-7 17Zm45-63a23.3 23.3 0 0 1-17.1 7.1 23.5 23.5 0 0 1-17.1-7 23 23 0 0 1-7.2-17 24 24 0 0 1 7.2-17.4 24.3 24.3 0 0 1 34.2 0 23.6 23.6 0 0 1 7 17.3 23 23 0 0 1-7 17Zm45.9-63.6a24.3 24.3 0 0 1-34.3 0 23 23 0 0 1-7-17 24 24 0 0 1 7-17.3A23.3 23.3 0 0 1 565.9 0 23.6 23.6 0 0 1 583 7a23.7 23.7 0 0 1 7.1 17.4 23 23 0 0 1-7.1 17Z"/></g></svg>