<svg xmlns="http://www.w3.org/2000/svg" width="102" height="100" viewBox="0 0 102 100"><path d="M47.23,74.77l.65-1.1c1-1.76,1.56-2.64,2.39-3.13S52.18,70,54.35,70a12.81,12.81,0,0,0,4.56-.73,10,10,0,0,0,5.42-5.42c.77-1.85.77-4.18.77-8.85v-2c0-6.56,0-9.84-1.48-12.25a10.07,10.07,0,0,0-3.31-3.31C57.9,35.9,54.62,35.9,48.05,35.9H42c-6.56,0-9.84,0-12.25,1.48a10,10,0,0,0-3.31,3.31C25,43.1,25,46.38,25,52.94v2c0,4.67,0,7,.76,8.85a10,10,0,0,0,5.43,5.42,12.81,12.81,0,0,0,4.56.73c2.16.07,3.25.1,4.08.59s1.35,1.37,2.39,3.13l.65,1.1A2.55,2.55,0,0,0,47.23,74.77ZM53.82,56a2.51,2.51,0,1,0-1.77-.73A2.51,2.51,0,0,0,53.82,56Zm-6.26-2.5a2.6,2.6,0,0,1-.19.95,2.69,2.69,0,0,1-.55.82,2.5,2.5,0,0,1-1.77.73,2.42,2.42,0,0,1-1-.19,2.45,2.45,0,0,1-.81-.54,2.52,2.52,0,0,1-.55-.82,2.6,2.6,0,0,1-.19-.95,2.52,2.52,0,0,1,.74-1.78,2.5,2.5,0,0,1,4.27,1.78ZM36.28,56a2.51,2.51,0,1,0,0-5,2.47,2.47,0,0,0-1.77.73,2.5,2.5,0,0,0,0,3.55A2.47,2.47,0,0,0,36.28,56Z" fill="#fff" fill-rule="evenodd"/><path d="M59.24,24c3,0,5.38,0,7.29.18a11.62,11.62,0,0,1,5.09,1.48,11.4,11.4,0,0,1,3.72,3.72,11.66,11.66,0,0,1,1.48,5.09c.18,1.91.18,4.3.18,7.29v2.05c0,2.13,0,3.82-.09,5.2a11.72,11.72,0,0,1-.77,3.74,11.24,11.24,0,0,1-6.31,6.19l-.87.32h-3.9c0-1.18,0-2.59,0-4.31v-2c0-6.56,0-9.84-1.48-12.25a10.07,10.07,0,0,0-3.31-3.31C57.9,35.9,54.62,35.9,48.06,35.9H42c-2.33,0-4.24,0-5.85.07v-3.9c.08-.27.18-.58.3-.94a9.61,9.61,0,0,1,.82-1.75A11.34,11.34,0,0,1,41,25.66a11.58,11.58,0,0,1,5.09-1.48C48,24,50.42,24,53.41,24Z" fill="#72c6ef" opacity="0.45" style="isolation:isolate"/></svg>