<svg xmlns="http://www.w3.org/2000/svg" width="295" height="197" fill="none" viewBox="0 0 295 197"><path fill="#fff" d="M0 0h295v197H0z"/><path fill="#E7EE9F" d="M148 31.3c-36.7 0-66.7 30-66.7 66.7s30 66.7 66.7 66.7 66.7-30 66.7-66.7-30-66.7-66.7-66.7Z"/><path fill="#004087" d="M218 98a70 70 0 1 1-140 0 70 70 0 0 1 140 0Zm-70.7 32.3c0-1.3-.6-2-2-2.6-4.3-1.4-8.3-1.4-12-5-.6-1.4-.6-2.7-1.3-4.4-1.3-1.3-5-2-7-2.6h-14c-2-.7-3.7-3.7-5-5.7 0-.7 0-2-1.3-2-1.4-.7-2.7.7-4.4 0-.6-.7-.6-1.3-.6-2a9 9 0 0 1 2.6-5.7c2-1.3 4.4.7 6.4.7.6 0 .6 0 1.3.7 2 .6 2.7 3.3 2.7 5.6v1.4c0 .6.6.6 1.3.6.7-3.6.7-7 1.3-10.6 0-4.4 4.4-8.4 7.7-9.7 1.3-.7 2 .7 3.7 0 4.3-1.3 14.6-5.7 12.6-11.3-1.3-5-5.6-9.7-11.3-9-1.3.6-2 1.3-3.3 2-2 1.3-6.4 5.6-8.4 5.6-3.6-.6-3.6-5.6-2.6-7.6.6-2.7 7-12 11.3-10.4l2.7 2.7c1.3.7 3.6.7 5.6.7.7 0 1.4 0 2-.7.7-.7.7-.7.7-1.3 0-2-2-4.4-3.3-5.7a23.7 23.7 0 0 0-5.7-3.7c-7-2-18.3.7-23.7 5.7-5.3 5-9.6 13.3-12.6 20.3A94.6 94.6 0 0 0 87.3 91c-.6 3.3-1.3 6.3.7 9.7A31 31 0 0 0 98.7 112c2.6 2 8.3 2 11.3 5.7 2 2.6 1.3 6.3 1.3 9.6 0 4.4 2.7 7.7 4.4 11.4.6 2 1.3 5 2 7l.6 5.6c4.4 2 7.7 4.4 12.7 5.7.7 0 3.3-4.3 3.3-5 2-2 3.7-5 5.7-6.3 1.3-.7 2.7-1.4 4.3-2.7 1.4-1.3 2-4.3 2.7-6.3.3-1.7 1-4.4.3-6.4Zm1.4-64.6c.6 0 1.3-.7 2.6-1.4 2-1.3 4.4-3.6 6.4-5 2-1.3 4.3-3.6 5.6-5 2-1.3 3.7-4.3 4.4-6.3.6-1.3 2.6-4.3 2-6.3-.7-1.4-4.4-2-5.7-2.7-5.7-1.3-10.3-2-16-2-2 0-5 .7-5.7 2.7-.6 3.6 2 2.6 5 3.6l.7 6.4c.7 3.3-1.3 5.6-1.3 9 0 2 0 5.6 1.3 7h.7Zm58.6 49c.7-1.4.7-3.7 1.4-5 .6-3.4.6-7 .6-10.4 0-7-.6-14-2.6-20.3-1.4-2-2-4.3-2.7-6.3a23 23 0 0 0-6.3-9.7c-2.7-3.7-6.4-13.3-12.7-10.3-2 .6-3.3 3.3-5 5-1.3 2-2.7 4.3-4.3 6.3-.7.7-1.4 2-.7 2.7 0 .6.7.6 1.3.6 1.4.7 2 .7 3.4 1.4.6 0 1.3.6.6 1.3 0 0 0 .7-.6.7-3.4 3.6-7 6.3-10.4 9.6A5 5 0 0 0 168 83c0 .7.7.7.7 1.3 0 .7-.7.7-1.4 1.4-1.3.6-2.6 1.3-3.6 2-.7 1.3 0 3.6-.7 5-.7 3.6-2.7 6.3-4.3 9.6-1.4 2-2 4.4-3.4 6.4 0 2.6-.6 5 .7 7 3.3 5 9.7 2 14.7 4.3 1.3.7 2.6.7 3.6 2 2 2 2 5.7 2.7 7.7.7 2.6 1.3 5.6 2.7 8.3.6 3.3 2 7 2.6 9.7a61 61 0 0 0 16-17.4c5-4.3 7-10 9-15.6Z"/></svg>