<svg xmlns="http://www.w3.org/2000/svg" width="295" height="197" fill="none" viewBox="0 0 295 197"><path fill="#fff" d="M0 0h295v197H0z"/><path fill="#004087" fill-rule="evenodd" d="M96.3 77.4a4.8 4.8 0 0 1 4.8 4.8v6.4a46.2 46.2 0 0 0 79.2 32.7 46.3 46.3 0 0 0 13.6-32.7v-6.4a4.8 4.8 0 0 1 8.1-3.4c1 .9 1.4 2.1 1.4 3.4v6.4a55.8 55.8 0 0 1-51.1 55.6v14.6a4.8 4.8 0 0 1-9.6 0v-14.6a56 56 0 0 1-51.1-55.6v-6.4a4.8 4.8 0 0 1 4.7-4.8Z" clip-rule="evenodd"/><path fill="#CBDB2A" d="M147.5 32.7a36.8 36.8 0 0 0-36.8 36.7v19.2a36.7 36.7 0 0 0 60.1 28.3c7.2-5.9 12-14.3 13.2-23.6h-30.1a4.8 4.8 0 0 1-3.4-8.1c.9-1 2.1-1.4 3.4-1.4h30.4v-9.6h-30.4a4.8 4.8 0 0 1-3.4-8.2c.9-.9 2.1-1.4 3.4-1.4h30a36.7 36.7 0 0 0-36.4-31.9Z" opacity=".5"/><path fill="#004087" d="M149.1 88.6c0 2.6 2.2 4.7 4.8 4.7h30l.4-9.5h-30.4a4.8 4.8 0 0 0-4.8 4.8Zm0-19.2c0 2.7 2.2 4.8 4.8 4.8h30.4l-.3-9.6h-30.1a4.8 4.8 0 0 0-4.8 4.8Z"/></svg>