<svg xmlns="http://www.w3.org/2000/svg" width="295" height="197" fill="none" viewBox="0 0 295 197"><path fill="#fff" d="M0 0h295v197H0z"/><path fill="#004087" fill-rule="evenodd" d="m138 160.5 1.6-2.8c2.7-4.4 4-6.6 6-7.9 2.2-1.2 4.9-1.3 10.3-1.5 5.1-.1 8.6-.6 11.5-1.8A25.2 25.2 0 0 0 181 133c2-4.7 2-10.6 2-22.3v-5c0-16.6 0-24.8-3.8-30.9-2-3.4-4.9-6.2-8.3-8.3-6-3.7-14.3-3.7-30.8-3.7H125c-16.5 0-24.8 0-30.9 3.7-3.3 2-6.2 5-8.3 8.3-3.7 6-3.7 14.3-3.7 30.8v5c0 11.8 0 17.7 2 22.4 2.5 6.1 7.4 11 13.6 13.6 3 1.2 6.3 1.7 11.4 1.8 5.5.2 8.2.3 10.3 1.5 2 1.3 3.4 3.5 6 8l1.7 2.7a6.4 6.4 0 0 0 11 0Zm16.6-47.4a6.3 6.3 0 1 0 0-12.6 6.3 6.3 0 0 0 0 12.6Zm-15.8-6.3a6.3 6.3 0 1 1-12.6 0 6.3 6.3 0 0 1 12.6 0Zm-28.3 6.3a6.3 6.3 0 1 0 0-12.6 6.3 6.3 0 0 0 0 12.6Z" clip-rule="evenodd"/><path fill="#CBDB2A" d="M168.2 32.7c7.6 0 13.5 0 18.4.5a29 29 0 0 1 12.8 3.7 27 27 0 0 1 9.3 9.4 29 29 0 0 1 3.7 12.8c.5 4.8.5 10.8.5 18.3v5.2c0 5.3 0 9.6-.2 13-.3 3.6-.8 6.6-2 9.5a28.4 28.4 0 0 1-18 16.3h-9.8v-15.8c0-16.6 0-24.8-3.7-30.9-2-3.4-4.9-6.2-8.3-8.3-6-3.7-14.3-3.7-30.8-3.7H125l-14.8.1V53l.8-2.3a22 22 0 0 1 2-4.4c2.4-3.9 5.6-7 9.4-9.4a29 29 0 0 1 12.8-3.7c4.8-.5 10.8-.5 18.4-.5h14.6Z" opacity=".5"/></svg>