<svg xmlns="http://www.w3.org/2000/svg" width="406" height="271" fill="none" viewBox="0 0 406 271"><path fill="#fff" d="M0 0h406v271H0z"/><path fill="#004087" d="M199.2 78.5a5.9 5.9 0 0 1-7.8 3.2c-1-.4-1.7-1-2.3-1.6l3.7-9.7c1-.1 2 0 3 .4A6 6 0 0 1 199 74a5 5 0 0 1 0 4.5Z"/><path fill="#72C6EF" d="M198.6 94.2c-.7-1.6-.7-3-.1-4.5a5.7 5.7 0 0 1 3.2-3.2 5 5 0 0 1 4.5 0 6 6 0 0 1 3.4 7.6 5.9 5.9 0 0 1-7.8 3.2 5.8 5.8 0 0 1-3.2-3.1Z"/><path fill="#004087" d="M191.1 98.6a5 5 0 0 1-2 2.5 37.8 37.8 0 0 0-5.7-6.6l1.6-4a5 5 0 0 1 2.7.3A6 6 0 0 1 191 94c.7 1.6.7 3 .1 4.6Z"/><path fill="#72C6EF" d="M200.9 130.4c-.7-1.5-.7-3-.1-4.5a5.7 5.7 0 0 1 3.2-3.2 5 5 0 0 1 4.5 0 6 6 0 0 1 3.4 7.7 5.9 5.9 0 0 1-7.8 3.2 5.7 5.7 0 0 1-3.2-3.2Zm.5-15.9a5.7 5.7 0 0 1-3.2 3.2c-1 .4-2 .5-3 .4-.4-3.8-1.3-7.4-2.8-10.8a6 6 0 0 1 1-.5c1.6-.7 3.1-.7 4.6 0a6 6 0 0 1 3.4 7.7Z"/><path fill="#CBDB2A" d="M165.8 175.4c-.6-1.5-.6-3 0-4.5a5.6 5.6 0 0 1 3.1-3.2c1.5-.6 3-.6 4.6 0a6 6 0 0 1 3.3 7.7 5.9 5.9 0 0 1-7.8 3.2 5.7 5.7 0 0 1-3.2-3.2Zm-7.5 4.6a5.9 5.9 0 0 1-7.8 3.2l-1.4-1 4.1-10.4a6 6 0 0 1 5 3.6c.7 1.5.7 3 .1 4.5Zm-.7 15.9c-.6-1.5-.7-3 0-4.5a5.7 5.7 0 0 1 3.1-3.2 5 5 0 0 1 4.5 0 6 6 0 0 1 3.4 7.7 5.9 5.9 0 0 1-7.8 3.2 5.7 5.7 0 0 1-3.2-3.2ZM168 212c-.7-1.4-.7-3-.1-4.4a5.6 5.6 0 0 1 3.2-3.2 5 5 0 0 1 4.5 0 6 6 0 0 1 3.4 7.7 5.9 5.9 0 0 1-7.8 3.2 5.7 5.7 0 0 1-3.2-3.2Z"/><path fill="#72C6EF" d="m157.9 160-4.7 11.8-4.1 10.5-7.5 19c-.9 2.2-2.5 4-4.5 4.8a7.5 7.5 0 0 1-6.3-.1l-60-29.3c-2-1-3.5-2.7-4.3-5-.7-2.3-.7-4.7.2-7L97.1 90c.3 0 .5-.1.7-.3l7.4-6.4.3.3-34 83.6c-.3.7-.3 1.6 0 2.4a3 3 0 0 0 1.5 1.8l60 29.2a2 2 0 0 0 2.1 0c.8-.2 1.3-.8 1.6-1.6l15.6-39.4c1.8.3 3.6.4 5.5.4h.1Z"/><path fill="#72C6EF" d="m194.8 65.4-2 5-3.7 9.7-4.1 10.3-1.6 4.1A32.2 32.2 0 0 0 179 91l11-28c.3-.9.2-2-.3-3a3 3 0 0 0-2.4-1.4l-69.6-.3c-1.2 0-2.2.7-2.7 1.9l-8.2 20.2-.5-.5c-.6-.5-1.6-.5-2.2 0l-4.4 3.8 10.5-26a8.2 8.2 0 0 1 7.5-5.2l69.6.3a8 8 0 0 1 6.8 4 9.8 9.8 0 0 1 .7 8.6Z"/><path fill="#72C6EF" d="M167.9 84c0 .6-.4 1.2-.8 1.6a36.8 36.8 0 0 0-14.3-.9L117.3 81c-1.2-.2-2-1.3-2-2.6.2-1.3 1.2-2.2 2.4-2l48.3 5c1.1.1 2 1.3 1.9 2.5Zm-42.6 19c-.8 1.3-1.5 2.8-2.2 4.3l-13-2.7c-1.2-.3-2-1.5-1.8-2.7.2-1.3 1.3-2.1 2.5-1.9l14.5 3Zm-2.3 33.8-24.8-7.7a2.5 2.5 0 0 1-1.5-2.9c.3-1.2 1.5-2 2.6-1.6l22 6.8a35 35 0 0 0 1.7 5.4Zm11.1 33.2a2 2 0 0 1-.7 0l-44-16.5c-1.2-.4-1.8-1.7-1.4-3 .4-1.2 1.6-1.8 2.7-1.4l44.1 16.4c1.1.4 1.7 1.7 1.3 3-.3 1-1.1 1.6-2 1.6Zm47.8-65.6L138.4 145a30 30 0 0 1-9.5-14.8l41.3-35.4a30 30 0 0 1 11.7 9.5Zm5.5 13-.2 1.3-28.5 33.5h-1c-3 0-6-.4-8.7-1.3l36.5-40.2a30 30 0 0 1 1.9 6.7Z"/><path fill="#004087" d="m194.2 167.4-1.7 1-10.3-17.5a37.7 37.7 0 1 0-24.4 9h.1c4.9 0 9.5-.9 13.8-2.6l10.2 17.3-1.7 1 25.4 43.6 14-8.3-25.4-43.5Zm-35.5-15.2h-1a30 30 0 1 1 1 0Zm113.3-69c-.7 1.4-1.1 2.8-1.5 4.2a10 10 0 0 1-3.5 19.4 10 10 0 0 1-9.7-12.4l-3.5-3.3a14.4 14.4 0 1 0 18.1-8Zm-5.8 3.6c.3-1.4.7-3 1.3-4.5h-.5c-4.3 0-8.2 2-10.8 5l3.2 3c1.7-2 4-3.3 6.8-3.5Z"/><path fill="#CBDB2A" d="M278.9 73.7a26.3 26.3 0 0 0-8.4 13.7c-.9 4-.8 7.6-.7 10 .1 2.4.2 4.1-1.5 5l-1 .2c-1.2 0-2.1-.9-2.4-1.2l-7.6-7-3.5-3.3-1.8-1.7a2.2 2.2 0 0 1 3-3.2l1.2 1 3.2 3.1 6 5.5a37.6 37.6 0 0 1 2.1-13.5c1.5-3.9 4.1-8 8.4-11.9 1-.8 2.3-.7 3.2.2.8 1 .7 2.3-.2 3.1Z"/><path fill="#004087" d="M272 125.6c-.7 1.5-1.1 2.9-1.5 4.3a10 10 0 0 1-3.5 19.3 10 10 0 0 1-9.7-12.3l-3.5-3.3a14.5 14.5 0 0 0 13.2 20 14.4 14.4 0 0 0 5-28Zm-5.8 3.7c.3-1.5.7-3 1.3-4.5h-.5c-4.3 0-8.2 2-10.8 5l3.2 3c1.7-2 4-3.3 6.8-3.5Z"/><path fill="#CBDB2A" d="M278.9 116.2a26.3 26.3 0 0 0-8.4 13.7c-.9 4-.8 7.5-.7 9.9.1 2.4.2 4.2-1.5 5l-1 .2c-1.2 0-2.1-.8-2.4-1.1l-7.6-7-3.5-3.3-1.8-1.7c-1-.9-1-2.3-.1-3.2.8-.9 2.2-1 3-.1l1.3 1.1 3.2 3 6 5.6a37.6 37.6 0 0 1 2.1-13.5c1.5-4 4.1-8 8.4-12 1-.7 2.3-.6 3.2.3.8.9.7 2.3-.2 3.1Z"/><path fill="#004087" d="M272 168.1c-.7 1.4-1.1 2.9-1.5 4.2a10 10 0 1 1-13.2 7l-3.5-3.3a14.4 14.4 0 1 0 18.1-8Zm-5.8 3.6c.3-1.4.7-3 1.3-4.4h-.5a14 14 0 0 0-10.8 5l3.2 3c1.7-2 4-3.3 6.8-3.6Z"/><path fill="#CBDB2A" d="M278.9 158.7a26.2 26.2 0 0 0-8.4 13.6c-.9 4-.8 7.6-.7 10 .1 2.4.2 4.1-1.5 5l-1 .2c-1.2 0-2.1-.9-2.4-1.2l-7.6-7-3.5-3.3-1.8-1.7c-1-.8-1-2.2-.1-3.1a2 2 0 0 1 3-.1l1.3 1.1 3.2 3 6 5.5a37.6 37.6 0 0 1 2.1-13.4c1.5-4 4.1-8.1 8.4-12a2.2 2.2 0 1 1 3 3.4Z"/><path fill="#004087" d="m309.8 166.2-5.6 30-5.6-30a4 4 0 0 0 3.4 1.8h4.3c1.4 0 2.7-.7 3.5-1.8Z"/><path fill="#72C6EF" d="M310.5 95.3v68.5a4.2 4.2 0 0 1-4.2 4.2H302a4.2 4.2 0 0 1-4.2-4.2V95.3c2 1.4 4 1.9 6 1.9 3.5 0 6.3-1.7 6.7-2Z"/><path fill="#72C6EF" d="M310.5 85.9v9.4c-.4.2-3.2 1.9-6.8 1.9-1.8 0-3.9-.5-5.9-2V86c0-2.4 1.9-4.3 4.2-4.3h4.3c2.3 0 4.2 2 4.2 4.3Z"/><path fill="#004087" d="M310.6 95.2c-.5.3-3.4 2-6.9 2-1.8 0-3.9-.5-5.9-2a.6.6 0 0 1-.2-.8l.2-.1h.6c5.3 4 11.3.2 11.6 0h.5c.1 0 .2 0 .3.2.1.2 0 .6-.2.7Z"/><path fill="#CBDB2A" d="M304.2 220.4c-.5 0-1-.2-1.3-.6-.6-.7-.5-1.7.2-2.3l10.8-9.3c.7-.6 1.6-.6 2.2 0l9.8 8.4 9.7-8.4c.7-.6 1.6-.6 2.2 0l9.8 8.4 9.7-8.4c.7-.6 1.6-.6 2.2 0l10.9 9.3c.7.6.7 1.6.1 2.3-.6.7-1.6.8-2.3.2l-9.8-8.4-9.8 8.4c-.6.5-1.5.5-2.1 0l-9.8-8.4-9.8 8.4c-.6.5-1.5.5-2.1 0l-9.8-8.4-9.8 8.4c-.3.3-.7.4-1 .4ZM114.9 89.5a1.6 1.6 0 0 1-2.4.2l-7-6-.3-.4-7.4 6.4a1.7 1.7 0 0 1-2.1 0l-7.4-6.4-7.3 6.4c-.6.5-1.6.5-2.2 0l-7.3-6.4-7.4 6.4c-.6.5-1.5.5-2.1 0l-7.4-6.4-7.3 6.4c-.6.5-1.6.5-2.2 0l-8.4-7.3c-.7-.6-.8-1.6-.2-2.3.6-.7 1.7-.8 2.4-.2l7.3 6.3 7.3-6.3c.7-.5 1.6-.5 2.2 0l7.4 6.3 7.3-6.3c.6-.5 1.5-.5 2.2 0l7.3 6.3 7.4-6.3c.6-.5 1.5-.5 2.1 0l7.4 6.3 2.9-2.5L104 80c.6-.5 1.6-.5 2.2 0l.5.5 7.9 6.7c.7.6.8 1.7.2 2.4Z"/></svg>