<svg xmlns="http://www.w3.org/2000/svg" width="406" height="271" fill="none" viewBox="0 0 406 271"><path fill="#fff" d="M0 0h406v271H0z"/><path fill="#004087" d="M231 205.3a5.2 5.2 0 0 0-4 .5 5.2 5.2 0 0 0-2.6 3.3 5 5 0 0 0 .5 4.1 5.5 5.5 0 0 0 7.4 2.2 5.5 5.5 0 0 0 2-7.5 5.3 5.3 0 0 0-3.2-2.6Z"/><path fill="#72C6EF" d="M246.6 213a5.2 5.2 0 0 0-4.2.5 5.2 5.2 0 0 0-2.5 3.3c-.4 1.5-.3 2.9.5 4.2a5.5 5.5 0 0 0 7.4 2.2 5.5 5.5 0 0 0 2-7.5 5.3 5.3 0 0 0-3.2-2.6Z"/><path fill="#004087" d="M248.5 195.6a5.2 5.2 0 0 0-4.1.4 5.2 5.2 0 0 0-2.6 3.3c-.4 1.5-.2 2.9.5 4.2a5.5 5.5 0 0 0 7.4 2.2 5.5 5.5 0 0 0 2-7.5 5.3 5.3 0 0 0-3.2-2.6Z"/><path fill="#72C6EF" d="M266 185.8a5.2 5.2 0 0 0-4.2.4 5.2 5.2 0 0 0-2.5 3.3c-.4 1.5-.3 2.9.5 4.2a5.5 5.5 0 0 0 7.4 2.2 5.5 5.5 0 0 0 2-7.5 5.3 5.3 0 0 0-3.2-2.6Zm14 25.2a5.2 5.2 0 0 0-4.1.5 5.2 5.2 0 0 0-2.6 3.3c-.4 1.4-.2 2.8.5 4.1a5.5 5.5 0 0 0 7.5 2.3 5.5 5.5 0 0 0 2-7.5 5.3 5.3 0 0 0-3.3-2.7Zm-15.7-7.8a5.2 5.2 0 0 0-4.2.5 5.2 5.2 0 0 0-2.5 3.2c-.5 1.5-.3 2.9.5 4.2a5.5 5.5 0 0 0 7.4 2.2 5.5 5.5 0 0 0 2-7.5 5.3 5.3 0 0 0-3.2-2.6Zm19.4-27.4a5.2 5.2 0 0 0-4.1.5 5.2 5.2 0 0 0-2.6 3.3c-.4 1.5-.2 2.8.5 4.2a5.5 5.5 0 0 0 7.5 2.2 5.5 5.5 0 0 0 2-7.5 5.3 5.3 0 0 0-3.3-2.7Zm-2 17.6a5.2 5.2 0 0 0-4.1.5 5.2 5.2 0 0 0-2.6 3.3c-.4 1.4-.2 2.8.5 4.1a5.5 5.5 0 0 0 7.5 2.3 5.5 5.5 0 0 0 2-7.5 5.3 5.3 0 0 0-3.3-2.7Zm19.8-27.5a5.2 5.2 0 0 0-4.2.5 5.2 5.2 0 0 0-2.5 3.2c-.4 1.5-.3 2.9.5 4.2a5.5 5.5 0 0 0 7.4 2.2 5.5 5.5 0 0 0 2-7.5 5.3 5.3 0 0 0-3.2-2.6Z"/><path fill="#CBDB2A" d="M315.5 191.1a5.2 5.2 0 0 0-4.1.5 5.2 5.2 0 0 0-2.6 3.3c-.4 1.4-.2 2.8.5 4.2a5.5 5.5 0 0 0 7.5 2.2 5.5 5.5 0 0 0 2-7.5 5.3 5.3 0 0 0-3.3-2.7Z"/><path fill="#72C6EF" d="M299.5 183.5a5.2 5.2 0 0 0-4.2.4 5.2 5.2 0 0 0-2.5 3.3c-.4 1.5-.3 2.9.5 4.2a5.5 5.5 0 0 0 7.4 2.2 5.5 5.5 0 0 0 2-7.5 5.3 5.3 0 0 0-3.2-2.6Z"/><path fill="#CBDB2A" d="M317.2 173.5a5.2 5.2 0 0 0-4.1.5 5.2 5.2 0 0 0-2.6 3.3c-.4 1.4-.2 2.8.5 4.2a5.5 5.5 0 0 0 7.5 2.2 5.5 5.5 0 0 0 2-7.5 5.3 5.3 0 0 0-3.3-2.7Zm2-17.5a5.2 5.2 0 0 0-4.1.4 5.2 5.2 0 0 0-2.6 3.3c-.4 1.5-.2 2.9.5 4.2a5.5 5.5 0 0 0 7.5 2.2 5.5 5.5 0 0 0 2-7.5 5.3 5.3 0 0 0-3.3-2.6Zm15.8 7.6a5.2 5.2 0 0 0-4.1.5 5.2 5.2 0 0 0-2.6 3.2c-.4 1.5-.2 2.9.5 4.2a5.5 5.5 0 0 0 7.5 2.2 5.5 5.5 0 0 0 2-7.5 5.3 5.3 0 0 0-3.3-2.6Zm16 7.7a5.2 5.2 0 0 0-4 .4 5.2 5.2 0 0 0-2.7 3.3c-.4 1.5-.2 2.9.6 4.2a5.5 5.5 0 0 0 7.4 2.2 5.5 5.5 0 0 0 2-7.5 5.2 5.2 0 0 0-3.3-2.6Z"/><path fill="#004087" d="M124.7 180a7.7 7.7 0 0 1-1.7-15 7.7 7.7 0 1 1 1.7 15Zm0-11.2h-.8c-1 .3-1.8.8-2.3 1.7-.5.8-.7 1.8-.5 2.7a3.6 3.6 0 1 0 7.1-1.6 3.6 3.6 0 0 0-3.5-2.8Zm17.6 22.5a7.6 7.6 0 0 1-7.4-6 7.7 7.7 0 1 1 7.4 6Zm0-11.3h-.7a3.6 3.6 0 0 0 1.6 7.2 3.6 3.6 0 0 0-.8-7.2Zm17.7 22.5a7.7 7.7 0 0 1-1.6-15.2 7.7 7.7 0 1 1 1.6 15.2Zm0-11.3h-.8c-.9.3-1.7.8-2.2 1.7-.6.8-.7 1.8-.5 2.7a3.6 3.6 0 1 0 7-1.6 3.6 3.6 0 0 0-3.5-2.8Z"/><path fill="#CBDB2A" d="M355 61.8c-.3 0-.6 0-1-.3l-6.6-5.8-6.7 5.8c-.6.5-1.4.5-2 0l-6.6-5.8-6.7 5.8c-.6.5-1.4.5-2 0l-6.6-5.8-6.7 5.8c-.6.5-1.4.5-2 0l-6.7-5.8-6.6 5.8c-.6.5-1.4.5-2 0l-7.7-6.6c-.6-.6-.7-1.5-.1-2.1.5-.7 1.5-.8 2.1-.2l6.7 5.7 6.7-5.7c.5-.5 1.4-.5 2 0l6.6 5.7 6.7-5.7c.5-.5 1.4-.5 2 0l6.6 5.7 6.7-5.7c.6-.5 1.4-.5 2 0l6.6 5.7 6.7-5.7c.6-.5 1.4-.5 2 0l7.6 6.6c.7.5.7 1.5.2 2.1-.3.4-.7.5-1.1.5ZM119 223c-.3 0-.7-.2-1-.5l-6.6-5.7-6.7 5.7c-.6.5-1.4.5-2 0l-6.7-5.7-6.6 5.7c-.6.5-1.4.5-2 0l-6.7-5.7-6.6 5.7c-.6.5-1.4.5-2 0l-6.7-5.7-6.7 5.7c-.5.5-1.4.5-2 0l-7.6-6.5c-.6-.6-.7-1.5-.1-2.2.5-.6 1.5-.7 2-.1l6.8 5.7 6.6-5.7c.6-.5 1.4-.5 2 0l6.7 5.7 6.7-5.7c.5-.5 1.4-.5 2 0l6.6 5.7 6.7-5.7c.5-.5 1.4-.5 2 0l6.6 5.7 6.7-5.7c.6-.5 1.4-.5 2 0l7.6 6.5c.7.6.7 1.5.2 2.2-.3.3-.7.5-1.2.5Zm27.1-56.7-18.7-10v-82l18.7 5.1v86.9Z"/><path fill="#004087" d="m168.2 158.2-22 8V79.5l22-4.2v83Z"/><path fill="#72C6EF" d="m157.2 126.4 21.2 7.4 27.2-9.3-21-6.7-27.4 8.6Zm11-51.2-19-4.7-21.8 3.8 18.7 5.1 22.1-4.2Z"/><path fill="#CBDB2A" d="m179 69.9-.6 56.6-21.2-7.3V65l21.9 5Zm-21.8 56.5 21.2 7.3v48.8l-21.2-11.3v-44.8Z"/><path fill="#004087" d="M205.6 65v52.8l-27.2 8.8.7-56.7 26.5-4.9Zm-27.2 68.8 27.2-9.3v46l-27.2 12v-48.7ZM310 107.5l-18 6.9V165l18-9.7v-47.9Z"/><path fill="#88C152" d="m270.1 157.8 22 7.3v-50.7l-22.8-6 .8 49.4Z"/><path fill="#72C6EF" d="m269.3 108.4 22.8 6 18-6.9-22.5-5.4-18.3 6.3ZM205.6 65l-22.2-4.4-26.2 4.3 21.9 5 26.5-5Zm74.7 74.9-21.2 10-27.4-9.6 27.4-6.5 21.2 6.1Z"/><path fill="#004087" d="M280.3 82.9v51.7l-21.2 9.2.3-54.7 20.9-6.2ZM259 149.8l21.3-9.9v32.3l-21.2 12.5v-34.9Z"/><path fill="#88C152" d="m259.4 89-.3 54.8-26.4-8.8V82.8l26.7 6.3Zm-26.7 51.6 26.4 9.2v34.9L232.7 173v-32.5Z"/><path fill="#72C6EF" d="m232.7 82.8 26.7 6.3 20.9-6.3-20.6-4.2-27 4.2Z"/><path fill="#CBDB2A" d="m191.1 113.5 28.2 10.2-.1 78.9-28-15v-74Z"/><path fill="#72C6EF" d="m191.1 113.5 28 10.2 26.4-10.8-26.3-8.3-28 9Z"/><path fill="#CBDB2A" d="M219.2 57.6v58.7l-28-10V52.5l28 5Z"/><path fill="#004087" d="M245.5 53v53.2l-26.3 10V57.7l26.3-4.6Zm-26.3 70.7 26.3-10.8v76l-26.3 13.7v-78.9Z"/><path fill="#72C6EF" d="m245.5 53-27-4.3-27.4 3.9 28 5 26.4-4.6Z"/><path fill="#CBDB2A" d="M50 85.5c-.3 0-.8-.2-1-.5-.6-.6-.5-1.6.1-2.1l9.9-8.5c.5-.5 1.4-.5 2 0l8.8 7.6 8.9-7.6c.6-.5 1.4-.5 2 0l8.8 7.6 9-7.6c.5-.5 1.3-.5 1.9 0l9.9 8.5c.6.5.7 1.5.1 2.1-.5.6-1.5.7-2.1.2l-8.9-7.7-8.9 7.7c-.5.4-1.4.4-2 0l-8.8-7.7-9 7.7c-.5.4-1.3.4-1.9 0L60 77.5l-8.8 7.7a2 2 0 0 1-1 .3Z"/></svg>